{
.appVersion = "1161";
DisplayStrings = (
"Ä"
);
copyright = "Copyright 2018 The Chakra Petch Project Authors (https://github.com/m4rc1e/Chakra-Petch.git)";
customParameters = (
{
name = vendorID;
value = CDK;
},
{
name = license;
value = "This Font Software is licensed under the SIL Open Font License, Version 1.1. This license is available with a FAQ at: http://scripts.sil.org/OFL";
},
{
name = licenseURL;
value = "http://scripts.sil.org/OFL";
},
{
name = fsType;
value = (
);
},
{
name = "Use Typo Metrics";
value = 1;
},
{
name = "Disable Last Change";
value = 1;
},
{
name = "Use Line Breaks";
value = 1;
}
);
date = "2018-07-25 17:16:05 +0000";
designer = "Katatrad Aksorn Co.,Ltd.";
designerURL = "http://www.katatrad.com";
familyName = "Chakra Petch";
featurePrefixes = (
{
automatic = 1;
code = "languagesystem DFLT dflt;
languagesystem latn dflt;
languagesystem thai dflt;
languagesystem latn ROM;
languagesystem latn MOL;
languagesystem latn CAT;
";
name = Languagesystems;
}
);
features = (
{
automatic = 1;
code = "feature ccmp;
feature locl;
feature subs;
feature sups;
feature frac;
feature ordn;
";
name = aalt;
},
{
code = "lookup latn_decomb {
	script latn;
@CombiningTopAccents = [acutecomb brevecomb caroncomb circumflexcomb dieresiscomb dotaccentcomb gravecomb hookabovecomb hungarumlautcomb macroncomb ringcomb tildecomb];
@CombiningNonTopAccents = [brevebelowcomb cedillacomb dieresisbelowcomb dotbelowcomb macronbelowcomb ogonekcomb horncomb];
	sub [i j]' @CombiningTopAccents by [idotless jdotless];
	sub [i j]' @CombiningNonTopAccents @CombiningTopAccents by [idotless jdotless];
} latn_decomb;

lookup thai_decomb {
	script thai;
	sub saraAm-thai by nikhahit-thai saraAa-thai;
} thai_decomb;

lookup thai_comb {
    script thai;
sub maiEk-thai nikhahit-thai by nikhahit_maiEk-thai;
sub maiTho-thai nikhahit-thai by nikhahit_maiTho-thai;
sub maiTri-thai nikhahit-thai by nikhahit_maiTri-thai;
sub maiChattawa-thai nikhahit-thai by nikhahit_maiChattawa-thai;

glyphs = (
{
glyphname = A;
layers = (
{
anchors = (
{
name = bottom;
position = "{295, 0}";
},
{
name = ogonek;
position = "{559, 0}";
},
{
name = top;
position = "{295, 700}";
}
);
background = {
anchors = (
{
name = bottom;
position = "{295, 0}";
},
{
name = ogonek;
position = "{559, 0}";
},
{
name = top;
position = "{295, 700}";
}
);
paths = (
{
closed = 1;
nodes = (
"70 0 LINE",
"141 211 LINE",
"448 211 LINE",
"519 0 LINE",
"559 0 LINE",
"322 700 LINE",
"268 700 LINE",
"30 0 LINE"
);
},
{
closed = 1;
nodes = (
"294 662 LINE",
"296 662 LINE",
"435 248 LINE",
"154 248 LINE"
);
}
);
};
layerId = "39D11A97-A6D9-4B52-A6F5-15D5E4373676";
paths = (
{
closed = 1;
nodes = (
"70 0 LINE",
"141 211 LINE",
"448 211 LINE",
"519 0 LINE",
"559 0 LINE",
"322 700 LINE",
"267 700 LINE",
"30 0 LINE"
);
},
{
closed = 1;
nodes = (
"293 662 LINE",
"296 662 LINE",
"436 247 LINE",
"154 247 LINE"
);
}
);
width = 589;
},
{
anchors = (
{
name = bottom;
position = "{323, 0}";
},
{
name = ogonek;
position = "{641, 0}";
},
{
name = top;
position = "{323, 700}";
}
);
background = {
paths = (
{
closed = 1;
nodes = (
"143 0 LINE",
"200 155 LINE",
"446 155 LINE",
"503 0 LINE",
"641 0 LINE",
"385 700 LINE",
"261 700 LINE",
"5 0 LINE"
);
},
{
closed = 1;
nodes = (
"321 533 LINE",
"323 533 LINE",
"416 267 LINE",
"231 267 LINE"
);
}
);
};
layerId = "D6105F7E-CAE1-4F7B-A52E-8AA6E6082DF8";
paths = (
{
closed = 1;
nodes = (
"143 0 LINE",
"200 155 LINE",
"446 155 LINE",
"503 0 LINE",
"641 0 LINE",
"385 700 LINE",
"261 700 LINE",
"5 0 LINE"
);
},
{
closed = 1;
nodes = (
"321 533 LINE",
"323 533 LINE",
"416 267 LINE",
"231 267 LINE"
);
}
);
width = 646;
},
{
anchors = (
{
name = bottom;
position = "{311, 0}";
},
{
name = ogonek;
position = "{600, 0}";
},
{
name = top;
position = "{311, 700}";
}
);
layerId = "3C986DA2-2E28-42A4-B05D-29F449A87569";
paths = (
{
closed = 1;
nodes = (
"99 0 LINE",
"164 189 LINE",
"456 189 LINE",
"521 0 LINE",
"600 0 LINE",
"351 700 LINE",
"269 700 LINE",
"20 0 LINE"
);
},
{
closed = 1;
nodes = (
"309 612 LINE",
"311 612 LINE",
"434 255 LINE",
"187 255 LINE"
);
}
);
width = 620;
},
{
anchors = (
{
name = bottom;
position = "{283, 0}";
},
{
name = ogonek;
position = "{597, 0}";
},
{
name = top;
position = "{399, 700}";
}
);
background = {
anchors = (
{
name = bottom;
position = "{279, 0}";
},
{
name = ogonek;
position = "{597, 0}";
},
{
name = top;
position = "{402, 700}";
}
);
paths = (
{
closed = 1;
nodes = (
"99 0 LINE",
"183 155 LINE",
"429 155 LINE",
"459 0 LINE",
"597 0 LINE",
"464 700 LINE",
"340 700 LINE",
"-39 0 LINE"
);
},
{
closed = 1;
nodes = (
"371 533 LINE",
"373 533 LINE",
"419 267 LINE",
"234 267 LINE"
);
}
);
};
layerId = "1C004500-E2C5-4CA7-8B0E-089ECD41D52B";
paths = (
{
closed = 1;
nodes = (
"99 0 LINE",
"185 155 LINE",
"431 155 LINE",
"459 0 LINE",
"597 0 LINE",
"464 700 LINE",
"340 700 LINE",
"-39 0 LINE"
);
},
{
closed = 1;
nodes = (
"371 533 LINE",
"373 533 LINE",
"418 267 LINE",
"233 267 LINE"
);
}
);
width = 646;
},
{
anchors = (
{
name = bottom;
position = "{272, 0}";
},
{
name = ogonek;
position = "{556, 0}";
},
{
name = top;
position = "{389, 700}";
}
);
background = {
paths = (
{
closed = 1;
nodes = (
"57 0 LINE",
"155 189 LINE",
"447 189 LINE",
"479 0 LINE",
"556 0 LINE",
"430 700 LINE",
"348 700 LINE",
"-24 0 LINE"
);
},
{
closed = 1;
nodes = (
"375 612 LINE",
"377 612 LINE",
"437 255 LINE",
"190 255 LINE"
);
}
);
};
layerId = "76B50E0D-F613-4BB6-AC9C-0F65D3239222";
paths = (
{
closed = 1;
nodes = (
"58 0 LINE",
"156 189 LINE",
"448 189 LINE",
"480 0 LINE",
"556 0 LINE",
"430 700 LINE",
"348 700 LINE",
"-24 0 LINE"
);
},
{
closed = 1;
nodes = (
"376 612 LINE",
"378 612 LINE",
"437 255 LINE",
"190 255 LINE"
);
}
);
width = 620;
},
{
anchors = (
{
name = bottom;
position = "{251, 0}";
},
{
name = ogonek;
position = "{515, 0}";
},
{
name = top;
position = "{374, 700}";
}
);
background = {
anchors = (
{
name = bottom;
position = "{251, 0}";
},
{
name = ogonek;
position = "{515, 0}";
},
{
name = top;
position = "{374, 700}";
}
);
paths = (
{
closed = 1;
nodes = (
"26 0 LINE",
"134 211 LINE",
"441 211 LINE",
"475 0 LINE",
"515 0 LINE",
"401 700 LINE",
"347 700 LINE",
"-14 0 LINE"
);
},
{
closed = 1;
nodes = (
"367 662 LINE",
"369 662 LINE",
"436 247 LINE",
"154 247 LINE"
);
}
);
};
layerId = "7E1D32E5-5329-438C-9451-496B813F8F3E";
paths = (
{
closed = 1;
nodes = (
"27 0 LINE",
"135 211 LINE",
"442 211 LINE",
"476 0 LINE",
"515 0 LINE",
"401 700 LINE",
"347 700 LINE",
"-14 0 LINE"
);
},
{
closed = 1;
nodes = (
"368 662 LINE",
"370 662 LINE",
"436 247 LINE",
"154 247 LINE"
);
}
);
width = 589;
}
);
leftKerningGroup = A;
note = A;
rightKerningGroup = A;
rightMetricsKey = "=|";
unicode = 0041;
},
{
glyphname = AE;
layers = (
{
anchors = (
{
name = bottom;
position = "{460, 0}";
},
{
name = top;
position = "{486, 700}";
}
);
background = {
paths = (
{
closed = 1;
nodes = (
"66 0 LINE",
"357 663 LINE",
"448 663 LINE",
"448 0 LINE",
"845 0 LINE",
"845 37 LINE",
"487 37 LINE",
"487 333 LINE",
"816 333 LINE",
"816 370 LINE",
"487 370 LINE",
"487 663 LINE",
"845 663 LINE",
"845 700 LINE",
"333 700 LINE",
"25 0 LINE"
);
},
{
closed = 1;
nodes = (
"458 196 LINE",
"458 232 LINE",
"136 232 LINE",
"136 196 LINE"
);
}
);
};
layerId = "39D11A97-A6D9-4B52-A6F5-15D5E4373676";
paths = (
{
closed = 1;
nodes = (
"66 0 LINE",
"357 664 LINE",
"448 664 LINE",
"448 0 LINE",
"845 0 LINE",
"845 36 LINE",
"487 36 LINE",
"487 333 LINE",
"816 333 LINE",
"816 369 LINE",
"487 369 LINE",
"487 664 LINE",
"845 664 LINE",
"845 700 LINE",
"333 700 LINE",
"25 0 LINE"
);
},
{
closed = 1;
nodes = (
"458 196 LINE",
"458 232 LINE",
"136 232 LINE",
"136 196 LINE"
);
}
);
width = 905;
},
{
anchors = (
{
name = bottom;
position = "{488, 0}";
},
{
name = top;
position = "{532, 700}";
}
);
background = {
paths = (
{
closed = 1;
nodes = (
"142 0 LINE",
"395 580 LINE",
"428 580 LINE",
"428 0 LINE",
"922 0 LINE",
"922 118 LINE",
"546 118 LINE",
"546 294 LINE",
"893 294 LINE",
"893 410 LINE",
"546 410 LINE",
"546 582 LINE",
"922 582 LINE",
"922 700 LINE",
"310 700 LINE",
"0 0 LINE"
);
},
{
closed = 1;
nodes = (
"535 179 LINE",
"535 293 LINE",
"167 293 LINE",
"167 179 LINE"
);
}
);
};
layerId = "D6105F7E-CAE1-4F7B-A52E-8AA6E6082DF8";
paths = (
{
closed = 1;
nodes = (
"142 0 LINE",
"395 582 LINE",
"428 582 LINE",
"428 0 LINE",
"922 0 LINE",
"922 118 LINE",
"564 118 LINE",
"564 294 LINE",
"893 294 LINE",
"893 410 LINE",
"564 410 LINE",
"564 582 LINE",
"922 582 LINE",
"922 700 LINE",
"313 700 LINE",
"0 0 LINE"
);
},
{
closed = 1;
nodes = (
"535 179 LINE",
"535 293 LINE",
"167 293 LINE",
"167 179 LINE"
);
}
);
width = 957;
},
{
anchors = (
{
name = bottom;
position = "{470, 0}";
},
{
name = top;
position = "{504, 700}";
}
);
layerId = "3C986DA2-2E28-42A4-B05D-29F449A87569";
paths = (
{
closed = 1;
nodes = (
"95 0 LINE",
"370 632 LINE",
"440 632 LINE",
"440 0 LINE",
"874 0 LINE",
"874 68 LINE",
"516 68 LINE",
"516 316 LINE",
"845 316 LINE",
"845 384 LINE",
"516 384 LINE",
"516 632 LINE",
"874 632 LINE",
"874 700 LINE",
"324 700 LINE",
"15 0 LINE"
);
},
{
closed = 1;
nodes = (
"487 189 LINE",
"487 257 LINE",
"129 257 LINE",
"129 189 LINE"
);
}
);
width = 924;
},
{
anchors = (
{
name = bottom;
position = "{445, 0}";
},
{
name = top;
position = "{612, 700}";
}
);
background = {
paths = (
{
closed = 1;
nodes = (
"98 0 LINE",
"454 582 LINE",
"487 582 LINE",
"384 0 LINE",
"878 0 LINE",
"899 118 LINE",
"541 118 LINE",
"572 294 LINE",
"901 294 LINE",
"921 410 LINE",
"592 410 LINE",
"623 582 LINE",
"981 582 LINE",
"1001 700 LINE",
"392 700 LINE",
"-44 0 LINE"
);
},
{
closed = 1;
nodes = (
"523 179 LINE",
"543 293 LINE",
"175 293 LINE",
"155 179 LINE"
);
}
);
};
layerId = "1C004500-E2C5-4CA7-8B0E-089ECD41D52B";
paths = (
{
closed = 1;
nodes = (
"98 0 LINE",
"454 582 LINE",
"487 582 LINE",
"384 0 LINE",
"878 0 LINE",
"899 118 LINE",
"541 118 LINE",
"572 294 LINE",
"901 294 LINE",
"921 410 LINE",
"592 410 LINE",
"623 582 LINE",
"981 582 LINE",
"1001 700 LINE",
"392 700 LINE",
"-44 0 LINE"
);
},
{
closed = 1;
nodes = (
"523 179 LINE",
"543 293 LINE",
"175 293 LINE",
"155 179 LINE"
);
}
);
width = 957;
},
{
anchors = (
{
name = bottom;
position = "{427, 0}";
},
{
name = top;
position = "{584, 700}";
}
);
layerId = "76B50E0D-F613-4BB6-AC9C-0F65D3239222";
paths = (
{
closed = 1;
nodes = (
"51 0 LINE",
"437 632 LINE",
"507 632 LINE",
"396 0 LINE",
"830 0 LINE",
"842 68 LINE",
"484 68 LINE",
"528 316 LINE",
"857 316 LINE",
"869 384 LINE",
"540 384 LINE",
"583 632 LINE",
"941 632 LINE",
"953 700 LINE",
"403 700 LINE",
"-29 0 LINE"
);
},
{
closed = 1;
nodes = (
"476 189 LINE",
"488 257 LINE",
"130 257 LINE",
"118 189 LINE"
);
}
);
width = 924;
},
{
anchors = (
{
name = bottom;
position = "{416, 0}";
},
{
name = top;
position = "{565, 700}";
}
);
background = {
anchors = (
{
name = bottom;
position = "{417, 0}";
},
{
name = top;
position = "{566, 700}";
}
);
paths = (
{
closed = 1;
nodes = (
"23 0 LINE",
"431 664 LINE",
"522 664 LINE",
"405 0 LINE",
"802 0 LINE",
"808 36 LINE",
"450 36 LINE",
"503 333 LINE",
"832 333 LINE",
"838 369 LINE",
"509 369 LINE",
"561 664 LINE",
"919 664 LINE",
"925 700 LINE",
"413 700 LINE",
"-18 0 LINE"
);
},
{
closed = 1;
nodes = (
"450 196 LINE",
"456 232 LINE",
"134 232 LINE",
"128 196 LINE"
);
}
);
};
layerId = "7E1D32E5-5329-438C-9451-496B813F8F3E";
paths = (
{
closed = 1;
nodes = (
"22 0 LINE",
"430 664 LINE",
"521 664 LINE",
"404 0 LINE",
"801 0 LINE",
"807 36 LINE",
"449 36 LINE",
"502 333 LINE",
"831 333 LINE",
"837 369 LINE",
"508 369 LINE",
"560 664 LINE",
"918 664 LINE",
"924 700 LINE",
"412 700 LINE",
"-19 0 LINE"
);
},
{
closed = 1;
nodes = (
"449 196 LINE",
"455 232 LINE",
"133 232 LINE",
"127 196 LINE"
);
}
);
width = 905;
}
);
leftKerningGroup = A;
note = AE;
rightKerningGroup = E;
rightMetricsKey = E;
unicode = 00C6;
},
{
glyphname = B;
layers = (
{
anchors = (
{
name = bottom;
position = "{320, 0}";
},
{
name = top;
position = "{320, 700}";
}
);
background = {
paths = (
{
closed = 1;
nodes = (
"478 0 LINE",
"569 91 LINE",
"569 285 LINE",
"486 368 LINE",
"538 420 LINE",
"538 617 LINE",
"455 700 LINE",
"90 700 LINE",
"90 0 LINE"
);
},
{
closed = 1;
nodes = (
"129 334 LINE",
"463 334 LINE",
"530 269 LINE",
"530 102 LINE",
"463 37 LINE",
"129 37 LINE"
);
},
{
closed = 1;
nodes = (
"129 663 LINE",
"440 663 LINE",
"499 606 LINE",
"499 429 LINE",
"441 371 LINE",
"129 371 LINE"
);
}
);
};
layerId = "39D11A97-A6D9-4B52-A6F5-15D5E4373676";
paths = (
{
closed = 1;
nodes = (
"481 0 LINE",
"569 88 LINE",
"569 281 LINE",
"487 363 LINE",
"538 414 LINE",
"538 619 LINE",
"457 700 LINE",
"90 700 LINE",
"90 0 LINE"
);
},
{
closed = 1;
nodes = (
"129 334 LINE",
"464 334 LINE",
"530 268 LINE",
"530 102 LINE",
"464 36 LINE",
"129 36 LINE"
);
},
{
closed = 1;
nodes = (
"129 664 LINE",
"440 664 LINE",
"499 605 LINE",
"499 427 LINE",
"442 370 LINE",
"129 370 LINE"
);
}
);
width = 629;
},
{
anchors = (
{
name = bottom;
position = "{340, 0}";
},
{
name = top;
position = "{340, 700}";
}
);
background = {
paths = (
{
closed = 1;
nodes = (
"526 0 LINE",
"635 110 LINE",
"635 291 LINE",
"564 363 LINE",
"604 404 LINE",
"604 599 LINE",
"504 700 LINE",
"65 700 LINE",
"65 0 LINE"
);
},
{
closed = 1;
nodes = (
"198 298 LINE",
"458 298 LINE",
"501 255 LINE",
"501 157 LINE",
"458 114 LINE",
"198 114 LINE"
);
},
{
closed = 1;
nodes = (
"198 586 LINE",
"435 586 LINE",
"470 551 LINE",
"470 443 LINE",
"434 407 LINE",
"198 407 LINE"
);
}
);
};
layerId = "D6105F7E-CAE1-4F7B-A52E-8AA6E6082DF8";
paths = (
{
closed = 1;
nodes = (
"527 0 LINE",
"635 108 LINE",
"635 291 LINE",
"564 363 LINE",
"604 404 LINE",
"604 600 LINE",
"504 700 LINE",
"65 700 LINE",
"65 0 LINE"
);
},
{
closed = 1;
nodes = (
"198 298 LINE",
"458 298 LINE",
"501 255 LINE",
"501 157 LINE",
"458 114 LINE",
"198 114 LINE"
);
},
{
closed = 1;
nodes = (
"198 586 LINE",
"435 586 LINE",
"470 551 LINE",
"470 443 LINE",
"434 407 LINE",
"198 407 LINE"
);
}
);
width = 670;
},
{
anchors = (
{
name = bottom;
position = "{328, 0}";
},
{
name = top;
position = "{328, 700}";
}
);
background = {
paths = (
{
closed = 1;
nodes = (
"496 0 LINE",
"596 100 LINE",
"596 287 LINE",
"517 366 LINE",
"565 414 LINE",
"565 608 LINE",
"473 700 LINE",
"80 700 LINE",
"80 0 LINE"
);
},
{
closed = 1;
nodes = (
"154 320 LINE",
"464 320 LINE",
"522 263 LINE",
"522 123 LINE",
"464 66 LINE",
"154 66 LINE"
);
},
{
closed = 1;
nodes = (
"154 634 LINE",
"441 634 LINE",
"491 585 LINE",
"491 434 LINE",
"441 384 LINE",
"154 384 LINE"
);
}
);
};
layerId = "3C986DA2-2E28-42A4-B05D-29F449A87569";
paths = (
{
closed = 1;
nodes = (
"498 0 LINE",
"596 98 LINE",
"596 287 LINE",
"517 366 LINE",
"565 414 LINE",
"565 608 LINE",
"473 700 LINE",
"80 700 LINE",
"80 0 LINE"
);
},
{
closed = 1;
nodes = (
"154 320 LINE",
"464 320 LINE",
"522 263 LINE",
"522 123 LINE",
"464 66 LINE",
"154 66 LINE"
);
},
{
closed = 1;
nodes = (
"154 634 LINE",
"441 634 LINE",
"491 585 LINE",
"491 434 LINE",
"441 384 LINE",
"154 384 LINE"
);
}
);
width = 646;
},
{
anchors = (
{
name = bottom;
position = "{340, 0}";
},
{
name = top;
position = "{586, 700}";
}
);
background = {
paths = (
{
closed = 1;
nodes = (
"494 0 LINE",
"609 98 LINE",
"643 291 LINE",
"585 363 LINE",
"632 404 LINE",
"666 592 LINE",
"576 700 LINE",
"145 700 LINE",
"22 0 LINE"
);
},
{
closed = 1;
nodes = (
"208 298 LINE",
"468 298 LINE",
"503 255 LINE",
"486 157 LINE",
"435 114 LINE",
"175 114 LINE"
);
},
{
closed = 1;
nodes = (
"258 586 LINE",
"495 586 LINE",
"524 551 LINE",
"505 443 LINE",
"463 407 LINE",
"227 407 LINE"
);
}
);
};
layerId = "1C004500-E2C5-4CA7-8B0E-089ECD41D52B";
paths = (
{
closed = 1;
nodes = (
"493 0 LINE",
"608 98 LINE",
"642 291 LINE",
"584 363 LINE",
"631 404 LINE",
"665 592 LINE",
"575 700 LINE",
"145 700 LINE",
"22 0 LINE"
);
},
{
closed = 1;
nodes = (
"208 298 LINE",
"467 298 LINE",
"502 255 LINE",
"485 157 LINE",
"434 114 LINE",
"175 114 LINE"
);
},
{
closed = 1;
nodes = (
"258 586 LINE",
"494 586 LINE",
"523 551 LINE",
"504 443 LINE",
"462 407 LINE",
"227 407 LINE"
);
}
);
width = 670;
},
{
anchors = (
{
name = bottom;
position = "{285, 0}";
},
{
name = top;
position = "{408, 700}";
}
);
background = {
paths = (
{
closed = 1;
nodes = (
"461 0 LINE",
"568 91 LINE",
"602 281 LINE",
"535 362 LINE",
"594 412 LINE",
"628 604 LINE",
"548 700 LINE",
"160 700 LINE",
"37 0 LINE"
);
},
{
closed = 1;
nodes = (
"167 320 LINE",
"477 320 LINE",
"525 263 LINE",
"500 123 LINE",
"432 66 LINE",
"123 66 LINE"
);
},
{
closed = 1;
nodes = (
"223 634 LINE",
"510 634 LINE",
"551 585 LINE",
"525 434 LINE",
"466 384 LINE",
"179 384 LINE"
);
}
);
};
layerId = "76B50E0D-F613-4BB6-AC9C-0F65D3239222";
paths = (
{
closed = 1;
nodes = (
"463 0 LINE",
"568 89 LINE",
"602 281 LINE",
"535 362 LINE",
"594 412 LINE",
"628 604 LINE",
"548 700 LINE",
"160 700 LINE",
"37 0 LINE"
);
},
{
closed = 1;
nodes = (
"167 320 LINE",
"477 320 LINE",
"525 263 LINE",
"500 123 LINE",
"432 66 LINE",
"123 66 LINE"
);
},
{
closed = 1;
nodes = (
"223 634 LINE",
"510 634 LINE",
"551 585 LINE",
"525 434 LINE",
"466 384 LINE",
"179 384 LINE"
);
}
);
width = 646;
},
{
anchors = (
{
name = bottom;
position = "{277, 0}";
},
{
name = top;
position = "{400, 700}";
}
);
background = {
paths = (
{
closed = 1;
nodes = (
"442 0 LINE",
"540 82 LINE",
"574 277 LINE",
"506 359 LINE",
"566 410 LINE",
"603 615 LINE",
"532 700 LINE",
"170 700 LINE",
"47 0 LINE"
);
},
{
closed = 1;
nodes = (
"145 334 LINE",
"479 334 LINE",
"533 268 LINE",
"504 102 LINE",
"426 36 LINE",
"92 36 LINE"
);
},
{
closed = 1;
nodes = (
"203 664 LINE",
"513 664 LINE",
"562 605 LINE",
"530 427 LINE",
"463 370 LINE",
"151 370 LINE"
);
}
);
};
layerId = "7E1D32E5-5329-438C-9451-496B813F8F3E";
paths = (
{
closed = 1;
nodes = (
"442 0 LINE",
"540 82 LINE",
"574 277 LINE",
"506 359 LINE",
"566 410 LINE",
"603 615 LINE",
"532 700 LINE",
"170 700 LINE",
"47 0 LINE"
);
},
{
closed = 1;
nodes = (
"145 334 LINE",
"479 334 LINE",
"533 268 LINE",
"504 102 LINE",
"426 36 LINE",
"92 36 LINE"
);
},
{
closed = 1;
nodes = (
"203 664 LINE",
"513 664 LINE",
"562 605 LINE",
"530 427 LINE",
"463 370 LINE",
"151 370 LINE"
);
}
);
width = 629;
}
);
leftMetricsKey = H;
note = B;
unicode = 0042;
},
{
glyphname = C;
layers = (
{
anchors = (
{
name = bottom;
position = "{318, 0}";
},
{
name = top;
position = "{320, 700}";
}
);
background = {
paths = (
{
closed = 1;
nodes = (
"463 0 LINE",
"559 96 LINE",
"559 138 LINE",
"520 138 LINE",
"520 108 LINE",
"447 36 LINE",
"196 36 LINE",
"119 113 LINE",
"119 587 LINE",
"196 664 LINE",
"447 664 LINE",
"520 592 LINE",
"520 562 LINE",
"559 562 LINE",
"559 604 LINE",
"463 700 LINE",
"180 700 LINE",
"80 600 LINE",
"80 100 LINE",
"180 0 LINE"
);
}
);
};
layerId = "39D11A97-A6D9-4B52-A6F5-15D5E4373676";
paths = (
{
closed = 1;
nodes = (
"463 0 LINE",
"559 96 LINE",
"559 138 LINE",
"520 138 LINE",
"520 107 LINE",
"448 36 LINE",
"197 36 LINE",
"119 114 LINE",
"119 586 LINE",
"197 664 LINE",
"448 664 LINE",
"520 593 LINE",
"520 562 LINE",
"559 562 LINE",
"559 604 LINE",
"463 700 LINE",
"180 700 LINE",
"80 600 LINE",
"80 100 LINE",
"180 0 LINE"
);
}
);
width = 614;
},
{
anchors = (
{
name = bottom;
position = "{339, 0}";
},
{
name = top;
position = "{342, 700}";
}
);
background = {
paths = (
{
closed = 1;
nodes = (
"529 0 LINE",
"640 111 LINE",
"640 222 LINE",
"504 222 LINE",
"504 167 LINE",
"455 118 LINE",
"257 118 LINE",
"206 169 LINE",
"206 533 LINE",
"257 584 LINE",
"455 584 LINE",
"504 535 LINE",
"504 478 LINE",
"640 478 LINE",
"640 579 LINE",
"519 700 LINE",
"185 700 LINE",
"70 585 LINE",
"70 115 LINE",
"185 0 LINE"
);
}
);
};
layerId = "D6105F7E-CAE1-4F7B-A52E-8AA6E6082DF8";
paths = (
{
closed = 1;
nodes = (
"512 0 LINE",
"625 113 LINE",
"625 220 LINE",
"489 220 LINE",
"489 163 LINE",
"442 116 LINE",
"242 116 LINE",
"191 167 LINE",
"191 533 LINE",
"242 584 LINE",
"442 584 LINE",
"489 537 LINE",
"489 480 LINE",
"625 480 LINE",
"625 587 LINE",
"512 700 LINE",
"170 700 LINE",
"55 585 LINE",
"55 115 LINE",
"170 0 LINE"
);
}
);
width = 655;
},
{
anchors = (
{
name = bottom;
position = "{322, 0}";
},
{
name = top;
position = "{330, 700}";
}
);
background = {
paths = (
{
closed = 1;
nodes = (
"480 0 LINE",
"586 106 LINE",
"586 170 LINE",
"510 170 LINE",
"510 131 LINE",
"446 68 LINE",
"214 68 LINE",
"146 135 LINE",
"146 565 LINE",
"214 632 LINE",
"446 632 LINE",
"510 569 LINE",
"510 530 LINE",
"586 530 LINE",
"586 594 LINE",
"473 700 LINE",
"180 700 LINE",
"70 590 LINE",
"70 110 LINE",
"180 0 LINE"
);
}
);
};
layerId = "3C986DA2-2E28-42A4-B05D-29F449A87569";
paths = (
{
closed = 1;
nodes = (
"480 0 LINE",
"586 106 LINE",
"586 170 LINE",
"510 170 LINE",
"510 131 LINE",
"446 68 LINE",
"214 68 LINE",
"146 135 LINE",
"146 565 LINE",
"214 632 LINE",
"446 632 LINE",
"510 569 LINE",
"510 530 LINE",
"586 530 LINE",
"586 594 LINE",
"480 700 LINE",
"180 700 LINE",
"70 590 LINE",
"70 110 LINE",
"180 0 LINE"
);
}
);
width = 631;
},
{
anchors = (
{
name = bottom;
position = "{304, 0}";
},
{
name = top;
position = "{413, 700}";
}
);
background = {
paths = (
{
closed = 1;
nodes = (
"476 0 LINE",
"599 105 LINE",
"620 220 LINE",
"484 220 LINE",
"473 163 LINE",
"418 116 LINE",
"218 116 LINE",
"176 167 LINE",
"241 533 LINE",
"301 584 LINE",
"501 584 LINE",
"539 537 LINE",
"529 480 LINE",
"665 480 LINE",
"683 579 LINE",
"582 700 LINE",
"241 700 LINE",
"116 593 LINE",
"33 124 LINE",
"135 0 LINE"
);
}
);
};
layerId = "1C004500-E2C5-4CA7-8B0E-089ECD41D52B";
paths = (
{
closed = 1;
nodes = (
"476 0 LINE",
"599 105 LINE",
"620 220 LINE",
"484 220 LINE",
"473 163 LINE",
"418 116 LINE",
"218 116 LINE",
"176 167 LINE",
"241 533 LINE",
"301 584 LINE",
"501 584 LINE",
"539 537 LINE",
"529 480 LINE",
"665 480 LINE",
"683 579 LINE",
"582 700 LINE",
"241 700 LINE",
"116 593 LINE",
"33 124 LINE",
"135 0 LINE"
);
}
);
width = 655;
},
{
anchors = (
{
name = bottom;
position = "{283, 0}";
},
{
name = top;
position = "{405, 700}";
}
);
background = {
paths = (
{
closed = 1;
nodes = (
"438 0 LINE",
"559 103 LINE",
"572 170 LINE",
"496 170 LINE",
"489 131 LINE",
"414 68 LINE",
"183 68 LINE",
"126 135 LINE",
"202 565 LINE",
"282 632 LINE",
"513 632 LINE",
"566 569 LINE",
"559 530 LINE",
"635 530 LINE",
"645 587 LINE",
"552 700 LINE",
"255 700 LINE",
"132 595 LINE",
"46 115 LINE",
"141 0 LINE"
);
}
);
};
layerId = "76B50E0D-F613-4BB6-AC9C-0F65D3239222";
paths = (
{
closed = 1;
nodes = (
"440 0 LINE",
"559 101 LINE",
"572 170 LINE",
"496 170 LINE",
"489 131 LINE",
"414 68 LINE",
"183 68 LINE",
"126 135 LINE",
"202 565 LINE",
"282 632 LINE",
"513 632 LINE",
"566 569 LINE",
"559 530 LINE",
"635 530 LINE",
"645 587 LINE",
"552 700 LINE",
"255 700 LINE",
"132 595 LINE",
"46 115 LINE",
"141 0 LINE"
);
}
);
width = 631;
},
{
anchors = (
{
name = bottom;
position = "{274, 0}";
},
{
name = top;
position = "{400, 700}";
}
);
background = {
paths = (
{
closed = 1;
nodes = (
"424 0 LINE",
"531 91 LINE",
"540 138 LINE",
"501 138 LINE",
"495 107 LINE",
"411 36 LINE",
"160 36 LINE",
"95 114 LINE",
"179 586 LINE",
"270 664 LINE",
"521 664 LINE",
"581 593 LINE",
"575 562 LINE",
"614 562 LINE",
"621 600 LINE",
"538 700 LINE",
"255 700 LINE",
"143 605 LINE",
"55 105 LINE",
"141 0 LINE"
);
}
);
};
layerId = "7E1D32E5-5329-438C-9451-496B813F8F3E";
paths = (
{
closed = 1;
nodes = (
"423 0 LINE",
"530 91 LINE",
"539 138 LINE",
"500 138 LINE",
"494 107 LINE",
"410 36 LINE",
"160 36 LINE",
"95 114 LINE",
"179 586 LINE",
"270 664 LINE",
"520 664 LINE",
"580 593 LINE",
"574 562 LINE",
"613 562 LINE",
"620 600 LINE",
"537 700 LINE",
"255 700 LINE",
"143 605 LINE",
"55 105 LINE",
"141 0 LINE"
);
}
);
width = 614;
}
);
leftKerningGroup = O;
leftMetricsKey = O;
note = C;
rightKerningGroup = C;
unicode = 0043;
},
{
glyphname = D;
layers = (
{
anchors = (
{
name = bottom;
position = "{318, 0}";
},
{
name = center;
position = "{318, 350}";
},
{
name = top;
position = "{318, 700}";
}
);
background = {
anchors = (
{
name = bottom;
position = "{318, 0}";
},
{
name = center;
position = "{318, 350}";
},
{
name = top;
position = "{318, 700}";
}
);
paths = (
{
closed = 1;
nodes = (
"467 0 LINE",
"567 100 LINE",
"567 600 LINE",
"467 700 LINE",
"90 700 LINE",
"90 0 LINE"
);
},
{
closed = 1;
nodes = (
"129 663 LINE",
"451 663 LINE",
"528 586 LINE",
"528 114 LINE",
"451 37 LINE",
"129 37 LINE"
);
}
);
};
layerId = "39D11A97-A6D9-4B52-A6F5-15D5E4373676";
paths = (
{
closed = 1;
nodes = (
"467 0 LINE",
"567 100 LINE",
"567 600 LINE",
"467 700 LINE",
"90 700 LINE",
"90 0 LINE"
);
},
{
closed = 1;
nodes = (
"129 664 LINE",
"450 664 LINE",
"528 586 LINE",
"528 114 LINE",
"450 36 LINE",
"129 36 LINE"
);
}
);
width = 647;
},
{
anchors = (
{
name = bottom;
position = "{338, 0}";
},
{
name = center;
position = "{338, 350}";
},
{
name = top;
position = "{338, 700}";
}
);
background = {
paths = (
{
closed = 1;
nodes = (
"513 0 LINE",
"633 120 LINE",
"633 580 LINE",
"513 700 LINE",
"65 700 LINE",
"65 0 LINE"
);
},
{
closed = 1;
nodes = (
"201 584 LINE",
"446 584 LINE",
"497 533 LINE",
"497 167 LINE",
"446 116 LINE",
"201 116 LINE"
);
}
);
};
layerId = "D6105F7E-CAE1-4F7B-A52E-8AA6E6082DF8";
paths = (
{
closed = 1;
nodes = (
"513 0 LINE",
"633 120 LINE",
"633 580 LINE",
"513 700 LINE",
"65 700 LINE",
"65 0 LINE"
);
},
{
closed = 1;
nodes = (
"201 584 LINE",
"446 584 LINE",
"497 533 LINE",
"497 167 LINE",
"446 116 LINE",
"201 116 LINE"
);
}
);
width = 688;
},
{
anchors = (
{
name = bottom;
position = "{326, 0}";
},
{
name = center;
position = "{326, 350}";
},
{
name = top;
position = "{326, 700}";
}
);
layerId = "3C986DA2-2E28-42A4-B05D-29F449A87569";
paths = (
{
closed = 1;
nodes = (
"484 0 LINE",
"594 110 LINE",
"594 590 LINE",
"484 700 LINE",
"80 700 LINE",
"80 0 LINE"
);
},
{
closed = 1;
nodes = (
"156 632 LINE",
"450 632 LINE",
"518 565 LINE",
"518 135 LINE",
"450 68 LINE",
"156 68 LINE"
);
}
);
width = 664;
},
{
anchors = (
{
name = bottom;
position = "{295, 0}";
},
{
name = center;
position = "{357, 350}";
},
{
name = top;
position = "{418, 700}";
}
);
background = {
paths = (
{
closed = 1;
nodes = (
"470 0 LINE",
"611 120 LINE",
"692 580 LINE",
"593 700 LINE",
"145 700 LINE",
"22 0 LINE"
);
},
{
closed = 1;
nodes = (
"261 584 LINE",
"506 584 LINE",
"548 533 LINE",
"483 167 LINE",
"423 116 LINE",
"178 116 LINE"
);
}
);
};
layerId = "1C004500-E2C5-4CA7-8B0E-089ECD41D52B";
paths = (
{
closed = 1;
nodes = (
"485 0 LINE",
"607 103 LINE",
"690 572 LINE",
"584 700 LINE",
"145 700 LINE",
"22 0 LINE"
);
},
{
closed = 1;
nodes = (
"261 584 LINE",
"505 584 LINE",
"547 533 LINE",
"482 167 LINE",
"422 116 LINE",
"178 116 LINE"
);
}
);
width = 688;
},
{
anchors = (
{
name = bottom;
position = "{283, 0}";
},
{
name = center;
position = "{345, 350}";
},
{
name = top;
position = "{406, 700}";
}
);
background = {
paths = (
{
closed = 1;
nodes = (
"447 0 LINE",
"568 103 LINE",
"653 585 LINE",
"558 700 LINE",
"160 700 LINE",
"37 0 LINE"
);
},
{
closed = 1;
nodes = (
"224 632 LINE",
"517 632 LINE",
"573 565 LINE",
"497 135 LINE",
"418 68 LINE",
"125 68 LINE"
);
}
);
};
layerId = "76B50E0D-F613-4BB6-AC9C-0F65D3239222";
paths = (
{
closed = 1;
nodes = (
"449 0 LINE",
"568 101 LINE",
"653 585 LINE",
"558 700 LINE",
"160 700 LINE",
"37 0 LINE"
);
},
{
closed = 1;
nodes = (
"224 632 LINE",
"517 632 LINE",
"573 565 LINE",
"497 135 LINE",
"418 68 LINE",
"125 68 LINE"
);
}
);
width = 664;
},
{
anchors = (
{
name = bottom;
position = "{275, 0}";
},
{
name = center;
position = "{337, 350}";
},
{
name = top;
position = "{398, 700}";
}
);
background = {
paths = (
{
closed = 1;
nodes = (
"429 0 LINE",
"541 94 LINE",
"629 595 LINE",
"541 700 LINE",
"170 700 LINE",
"47 0 LINE"
);
},
{
closed = 1;
nodes = (
"203 664 LINE",
"524 664 LINE",
"588 586 LINE",
"505 114 LINE",
"413 36 LINE",
"92 36 LINE"
);
}
);
};
layerId = "7E1D32E5-5329-438C-9451-496B813F8F3E";
paths = (
{
closed = 1;
nodes = (
"428 0 LINE",
"540 94 LINE",
"628 595 LINE",
"540 700 LINE",
"170 700 LINE",
"47 0 LINE"
);
},
{
closed = 1;
nodes = (
"203 664 LINE",
"523 664 LINE",
"587 586 LINE",
"504 114 LINE",
"412 36 LINE",
"92 36 LINE"
);
}
);
width = 647;
}
);
leftKerningGroup = D;
leftMetricsKey = H;
note = D;
rightKerningGroup = O;
unicode = 0044;
},
{
glyphname = Eth;
layers = (
{
components = (
{
name = D;
transform = "{1, 0, 0, 1, 40, 0}";
}
);
layerId = "39D11A97-A6D9-4B52-A6F5-15D5E4373676";
paths = (
{
closed = 1;
nodes = (
"346 332 LINE",
"346 368 LINE",
"35 368 LINE",
"35 332 LINE"
);
}
);
width = 687;
},
{
background = {
paths = (
{
closed = 1;
nodes = (
"405 292 LINE",
"405 410 LINE",
"10 410 LINE",
"10 292 LINE"
);
}
);
};
components = (
{
name = D;
transform = "{1, 0, 0, 1, 50, 0}";
}
);
layerId = "D6105F7E-CAE1-4F7B-A52E-8AA6E6082DF8";
paths = (
{
closed = 1;
nodes = (
"405 292 LINE",
"405 410 LINE",
"10 410 LINE",
"10 292 LINE"
);
}
);
width = 738;
},
{
components = (
{
name = D;
transform = "{1, 0, 0, 1, 40, 0}";
}
);
layerId = "3C986DA2-2E28-42A4-B05D-29F449A87569";
paths = (
{
closed = 1;
nodes = (
"365 318 LINE",
"365 384 LINE",
"25 384 LINE",
"25 318 LINE"
);
}
);
width = 704;
},
{
background = {
paths = (
{
closed = 1;
nodes = (
"405 292 LINE",
"405 410 LINE",
"10 410 LINE",
"10 292 LINE"
);
}
);
};
components = (
{
name = D;
transform = "{1, 0, 0, 1, 50, 0}";
}
);
layerId = "1C004500-E2C5-4CA7-8B0E-089ECD41D52B";
paths = (
{
closed = 1;
nodes = (
"413 292 LINE",
"434 410 LINE",
"39 410 LINE",
"18 292 LINE"
);
}
);
width = 738;
},
{
components = (
{
name = D;
transform = "{1, 0, 0, 1, 40, 0}";
}
);
layerId = "76B50E0D-F613-4BB6-AC9C-0F65D3239222";
paths = (
{
closed = 1;
nodes = (
"378 318 LINE",
"390 384 LINE",
"49 384 LINE",
"37 318 LINE"
);
}
);
width = 704;
},
{
components = (
{
name = D;
transform = "{1, 0, 0, 1, 40, 0}";
}
);
layerId = "7E1D32E5-5329-438C-9451-496B813F8F3E";
paths = (
{
closed = 1;
nodes = (
"361 332 LINE",
"367 368 LINE",
"56 368 LINE",
"50 332 LINE"
);
}
);
width = 687;
}
);
note = Eth;
rightKerningGroup = O;
rightMetricsKey = D;
unicode = 00D0;
},
{
glyphname = Dcroat;
layers = (
{
background = {
paths = (
{
closed = 1;
nodes = (
"352 332 LINE",
"352 368 LINE",
"54 368 LINE",
"54 332 LINE"
);
}
);
};
components = (
{
name = D;
transform = "{1, 0, 0, 1, 40, 0}";
}
);
layerId = "39D11A97-A6D9-4B52-A6F5-15D5E4373676";
paths = (
{
closed = 1;
nodes = (
"346 332 LINE",
"346 368 LINE",
"35 368 LINE",
"35 332 LINE"
);
}
);
width = 687;
},
{
components = (
{
name = D;
transform = "{1, 0, 0, 1, 50, 0}";
}
);
layerId = "D6105F7E-CAE1-4F7B-A52E-8AA6E6082DF8";
paths = (
{
closed = 1;
nodes = (
"405 292 LINE",
"405 410 LINE",
"10 410 LINE",
"10 292 LINE"
);
}
);
width = 738;
},
{
components = (
{
name = D;
transform = "{1, 0, 0, 1, 40, 0}";
}
);
layerId = "3C986DA2-2E28-42A4-B05D-29F449A87569";
paths = (
{
closed = 1;
nodes = (
"365 318 LINE",
"365 384 LINE",
"25 384 LINE",
"25 318 LINE"
);
}
);
width = 704;
},
{
components = (
{
name = D;
transform = "{1, 0, 0, 1, 50, 0}";
}
);
layerId = "1C004500-E2C5-4CA7-8B0E-089ECD41D52B";
paths = (
{
closed = 1;
nodes = (
"413 292 LINE",
"434 410 LINE",
"39 410 LINE",
"18 292 LINE"
);
}
);
width = 738;
},
{
components = (
{
name = D;
transform = "{1, 0, 0, 1, 40, 0}";
}
);
layerId = "76B50E0D-F613-4BB6-AC9C-0F65D3239222";
paths = (
{
closed = 1;
nodes = (
"378 318 LINE",
"390 384 LINE",
"49 384 LINE",
"37 318 LINE"
);
}
);
width = 704;
},
{
background = {
paths = (
{
closed = 1;
nodes = (
"352 332 LINE",
"352 368 LINE",
"54 368 LINE",
"54 332 LINE"
);
}
);
};
components = (
{
name = D;
transform = "{1, 0, 0, 1, 40, 0}";
}
);
layerId = "7E1D32E5-5329-438C-9451-496B813F8F3E";
paths = (
{
closed = 1;
nodes = (
"361 332 LINE",
"367 368 LINE",
"56 368 LINE",
"50 332 LINE"
);
}
);
width = 687;
}
);
note = Dcroat;
rightKerningGroup = O;
rightMetricsKey = D;
unicode = 0110;
},
{
glyphname = E;
layers = (
{
anchors = (
{
name = bottom;
position = "{303, 0}";
},
{
name = ogonek;
position = "{505, 0}";
},
{
name = top;
position = "{301, 700}";
},
{
name = topleft;
position = "{12, 700}";
}
);
background = {
paths = (
{
closed = 1;
nodes = (
"505 0 LINE",
"505 37 LINE",
"129 37 LINE",
"129 333 LINE",
"476 333 LINE",
"476 370 LINE",
"129 370 LINE",
"129 663 LINE",
"505 663 LINE",
"505 700 LINE",
"90 700 LINE",
"90 0 LINE"
);
}
);
};
layerId = "39D11A97-A6D9-4B52-A6F5-15D5E4373676";
paths = (
{
closed = 1;
nodes = (
"505 0 LINE",
"505 36 LINE",
"129 36 LINE",
"129 333 LINE",
"476 333 LINE",
"476 369 LINE",
"129 369 LINE",
"129 664 LINE",
"505 664 LINE",
"505 700 LINE",
"90 700 LINE",
"90 0 LINE"
);
}
);
width = 565;
},
{
anchors = (
{
name = bottom;
position = "{328, 0}";
},
{
name = ogonek;
position = "{571, 0}";
},
{
name = top;
position = "{324, 700}";
},
{
name = topleft;
position = "{37, 700}";
}
);
background = {
paths = (
{
closed = 1;
nodes = (
"586 0 LINE",
"586 115 LINE",
"216 115 LINE",
"216 295 LINE",
"557 295 LINE",
"557 408 LINE",
"216 408 LINE",
"216 585 LINE",
"586 585 LINE",
"586 700 LINE",
"80 700 LINE",
"80 0 LINE"
);
}
);
};
layerId = "D6105F7E-CAE1-4F7B-A52E-8AA6E6082DF8";
paths = (
{
closed = 1;
nodes = (
"571 0 LINE",
"571 115 LINE",
"201 115 LINE",
"201 295 LINE",
"542 295 LINE",
"542 408 LINE",
"201 408 LINE",
"201 585 LINE",
"571 585 LINE",
"571 700 LINE",
"65 700 LINE",
"65 0 LINE"
);
}
);
width = 606;
},
{
anchors = (
{
name = bottom;
position = "{316, 0}";
},
{
name = ogonek;
position = "{532, 0}";
},
{
name = top;
position = "{312, 700}";
},
{
name = topleft;
position = "{20, 700}";
}
);
layerId = "3C986DA2-2E28-42A4-B05D-29F449A87569";
paths = (
{
closed = 1;
nodes = (
"532 0 LINE",
"532 68 LINE",
"156 68 LINE",
"156 318 LINE",
"503 318 LINE",
"503 386 LINE",
"156 386 LINE",
"156 632 LINE",
"532 632 LINE",
"532 700 LINE",
"80 700 LINE",
"80 0 LINE"
);
}
);
width = 582;
},
{
anchors = (
{
name = bottom;
position = "{285, 0}";
},
{
name = ogonek;
position = "{527, 0}";
},
{
name = top;
position = "{404, 700}";
},
{
name = topleft;
position = "{117, 700}";
}
);
background = {
paths = (
{
closed = 1;
nodes = (
"528 0 LINE",
"548 115 LINE",
"178 115 LINE",
"210 295 LINE",
"551 295 LINE",
"571 408 LINE",
"230 408 LINE",
"261 585 LINE",
"631 585 LINE",
"651 700 LINE",
"145 700 LINE",
"22 0 LINE"
);
}
);
};
layerId = "1C004500-E2C5-4CA7-8B0E-089ECD41D52B";
paths = (
{
closed = 1;
nodes = (
"527 0 LINE",
"547 115 LINE",
"178 115 LINE",
"210 295 LINE",
"550 295 LINE",
"570 408 LINE",
"230 408 LINE",
"261 585 LINE",
"630 585 LINE",
"650 700 LINE",
"145 700 LINE",
"22 0 LINE"
);
}
);
width = 606;
},
{
anchors = (
{
name = bottom;
position = "{272, 0}";
},
{
name = ogonek;
position = "{488, 0}";
},
{
name = top;
position = "{391, 700}";
},
{
name = topleft;
position = "{100, 700}";
}
);
layerId = "76B50E0D-F613-4BB6-AC9C-0F65D3239222";
paths = (
{
closed = 1;
nodes = (
"488 0 LINE",
"500 68 LINE",
"125 68 LINE",
"169 318 LINE",
"516 318 LINE",
"528 386 LINE",
"181 386 LINE",
"224 632 LINE",
"599 632 LINE",
"611 700 LINE",
"160 700 LINE",
"37 0 LINE"
);
}
);
width = 582;
},
{
anchors = (
{
name = bottom;
position = "{259, 0}";
},
{
name = ogonek;
position = "{461, 0}";
},
{
name = top;
position = "{380, 700}";
},
{
name = topleft;
position = "{91, 700}";
}
);
background = {
paths = (
{
closed = 1;
nodes = (
"462 0 LINE",
"468 36 LINE",
"92 36 LINE",
"145 333 LINE",
"492 333 LINE",
"498 369 LINE",
"151 369 LINE",
"203 664 LINE",
"579 664 LINE",
"585 700 LINE",
"170 700 LINE",
"47 0 LINE"
);
}
);
};
layerId = "7E1D32E5-5329-438C-9451-496B813F8F3E";
paths = (
{
closed = 1;
nodes = (
"461 0 LINE",
"467 36 LINE",
"92 36 LINE",
"145 333 LINE",
"491 333 LINE",
"497 369 LINE",
"151 369 LINE",
"203 664 LINE",
"578 664 LINE",
"584 700 LINE",
"170 700 LINE",
"47 0 LINE"
);
}
);
width = 565;
}
);
leftKerningGroup = E;
leftMetricsKey = H;
note = E;
rightKerningGroup = E;
unicode = 0045;
},
{
glyphname = F;
layers = (
{
anchors = (
{
name = bottom;
position = "{287, 0}";
},
{
name = top;
position = "{287, 700}";
}
);
background = {
anchors = (
{
name = bottom;
position = "{287, 0}";
},
{
name = top;
position = "{287, 700}";
}
);
paths = (
{
closed = 1;
nodes = (
"129 0 LINE",
"129 335 LINE",
"466 335 LINE",
"466 372 LINE",
"129 372 LINE",
"129 663 LINE",
"495 663 LINE",
"495 700 LINE",
"90 700 LINE",
"90 0 LINE"
);
}
);
};
layerId = "39D11A97-A6D9-4B52-A6F5-15D5E4373676";
paths = (
{
closed = 1;
nodes = (
"129 0 LINE",
"129 335 LINE",
"447 335 LINE",
"447 371 LINE",
"129 371 LINE",
"129 664 LINE",
"495 664 LINE",
"495 700 LINE",
"90 700 LINE",
"90 0 LINE"
);
}
);
width = 535;
},
{
anchors = (
{
name = bottom;
position = "{307, 0}";
},
{
name = top;
position = "{307, 700}";
}
);
background = {
paths = (
{
closed = 1;
nodes = (
"201 0 LINE",
"201 276 LINE",
"532 276 LINE",
"532 391 LINE",
"201 391 LINE",
"201 585 LINE",
"561 585 LINE",
"561 700 LINE",
"65 700 LINE",
"65 0 LINE"
);
}
);
};
layerId = "D6105F7E-CAE1-4F7B-A52E-8AA6E6082DF8";
paths = (
{
closed = 1;
nodes = (
"201 0 LINE",
"201 276 LINE",
"513 276 LINE",
"513 391 LINE",
"201 391 LINE",
"201 585 LINE",
"561 585 LINE",
"561 700 LINE",
"65 700 LINE",
"65 0 LINE"
);
}
);
width = 576;
},
{
anchors = (
{
name = bottom;
position = "{295, 0}";
},
{
name = top;
position = "{295, 700}";
}
);
background = {
paths = (
{
closed = 1;
nodes = (
"156 0 LINE",
"156 312 LINE",
"493 312 LINE",
"493 380 LINE",
"156 380 LINE",
"156 632 LINE",
"522 632 LINE",
"522 700 LINE",
"80 700 LINE",
"80 0 LINE"
);
}
);
};
layerId = "3C986DA2-2E28-42A4-B05D-29F449A87569";
paths = (
{
closed = 1;
nodes = (
"156 0 LINE",
"156 312 LINE",
"474 312 LINE",
"474 380 LINE",
"156 380 LINE",
"156 632 LINE",
"522 632 LINE",
"522 700 LINE",
"80 700 LINE",
"80 0 LINE"
);
}
);
width = 552;
},
{
anchors = (
{
name = bottom;
position = "{264, 0}";
},
{
name = top;
position = "{387, 700}";
}
);
background = {
paths = (
{
closed = 1;
nodes = (
"158 0 LINE",
"207 276 LINE",
"519 276 LINE",
"539 391 LINE",
"227 391 LINE",
"261 585 LINE",
"621 585 LINE",
"641 700 LINE",
"145 700 LINE",
"22 0 LINE"
);
}
);
};
layerId = "1C004500-E2C5-4CA7-8B0E-089ECD41D52B";
paths = (
{
closed = 1;
nodes = (
"158 0 LINE",
"207 276 LINE",
"518 276 LINE",
"538 391 LINE",
"227 391 LINE",
"261 585 LINE",
"620 585 LINE",
"640 700 LINE",
"145 700 LINE",
"22 0 LINE"
);
}
);
width = 576;
},
{
anchors = (
{
name = bottom;
position = "{252, 0}";
},
{
name = top;
position = "{375, 700}";
}
);
background = {
paths = (
{
closed = 1;
nodes = (
"156 0 LINE",
"156 312 LINE",
"493 312 LINE",
"493 380 LINE",
"156 380 LINE",
"156 632 LINE",
"522 632 LINE",
"522 700 LINE",
"80 700 LINE",
"80 0 LINE"
);
}
);
};
layerId = "76B50E0D-F613-4BB6-AC9C-0F65D3239222";
paths = (
{
closed = 1;
nodes = (
"113 0 LINE",
"168 312 LINE",
"486 312 LINE",
"498 380 LINE",
"180 380 LINE",
"224 632 LINE",
"590 632 LINE",
"602 700 LINE",
"160 700 LINE",
"37 0 LINE"
);
}
);
width = 552;
},
{
anchors = (
{
name = bottom;
position = "{244, 0}";
},
{
name = top;
position = "{367, 700}";
}
);
background = {
paths = (
{
closed = 1;
nodes = (
"86 0 LINE",
"145 335 LINE",
"463 335 LINE",
"469 371 LINE",
"151 371 LINE",
"203 664 LINE",
"569 664 LINE",
"575 700 LINE",
"170 700 LINE",
"47 0 LINE"
);
}
);
};
layerId = "7E1D32E5-5329-438C-9451-496B813F8F3E";
paths = (
{
closed = 1;
nodes = (
"86 0 LINE",
"145 335 LINE",
"462 335 LINE",
"468 371 LINE",
"151 371 LINE",
"203 664 LINE",
"568 664 LINE",
"574 700 LINE",
"170 700 LINE",
"47 0 LINE"
);
}
);
width = 535;
}
);
leftMetricsKey = H;
note = F;
unicode = 0046;
},
{
glyphname = G;
layers = (
{
anchors = (
{
name = bottom;
position = "{324, 0}";
},
{
name = top;
position = "{323, 700}";
}
);
background = {
anchors = (
{
name = bottom;
position = "{324, 0}";
},
{
name = top;
position = "{323, 700}";
}
);
paths = (
{
closed = 1;
nodes = (
"469 0 LINE",
"565 96 LINE",
"565 350 LINE",
"362 350 LINE",
"362 313 LINE",
"526 313 LINE",
"526 111 LINE",
"451 37 LINE",
"196 37 LINE",
"119 113 LINE",
"119 587 LINE",
"196 663 LINE",
"453 663 LINE",
"526 591 LINE",
"526 562 LINE",
"565 562 LINE",
"565 604 LINE",
"469 700 LINE",
"180 700 LINE",
"80 600 LINE",
"80 100 LINE",
"180 0 LINE"
);
}
);
};
layerId = "39D11A97-A6D9-4B52-A6F5-15D5E4373676";
paths = (
{
closed = 1;
nodes = (
"466 0 LINE",
"565 99 LINE",
"565 350 LINE",
"362 350 LINE",
"362 314 LINE",
"526 314 LINE",
"526 113 LINE",
"449 36 LINE",
"197 36 LINE",
"119 114 LINE",
"119 586 LINE",
"197 664 LINE",
"454 664 LINE",
"526 593 LINE",
"526 562 LINE",
"565 562 LINE",
"565 604 LINE",
"469 700 LINE",
"180 700 LINE",
"80 600 LINE",
"80 100 LINE",
"180 0 LINE"
);
}
);
width = 635;
},
{
anchors = (
{
name = bottom;
position = "{344, 0}";
},
{
name = top;
position = "{342, 700}";
}
);
background = {
paths = (
{
closed = 1;
nodes = (
"518 0 LINE",
"631 113 LINE",
"631 390 LINE",
"349 390 LINE",
"349 274 LINE",
"499 274 LINE",
"499 163 LINE",
"452 116 LINE",
"242 116 LINE",
"191 167 LINE",
"191 533 LINE",
"242 584 LINE",
"448 584 LINE",
"495 536 LINE",
"495 480 LINE",
"631 480 LINE",
"631 587 LINE",
"518 700 LINE",
"170 700 LINE",
"55 585 LINE",
"55 115 LINE",
"170 0 LINE"
);
}
);
};
layerId = "D6105F7E-CAE1-4F7B-A52E-8AA6E6082DF8";
paths = (
{
closed = 1;
nodes = (
"516 0 LINE",
"631 115 LINE",
"631 390 LINE",
"349 390 LINE",
"349 274 LINE",
"499 274 LINE",
"499 165 LINE",
"450 116 LINE",
"242 116 LINE",
"191 167 LINE",
"191 533 LINE",
"242 584 LINE",
"448 584 LINE",
"495 537 LINE",
"495 480 LINE",
"631 480 LINE",
"631 587 LINE",
"518 700 LINE",
"170 700 LINE",
"55 585 LINE",
"55 115 LINE",
"170 0 LINE"
);
}
);
width = 676;
},
{
anchors = (
{
name = bottom;
position = "{332, 0}";
},
{
name = top;
position = "{330, 700}";
}
);
layerId = "3C986DA2-2E28-42A4-B05D-29F449A87569";
paths = (
{
closed = 1;
nodes = (
"482 0 LINE",
"592 110 LINE",
"592 365 LINE",
"358 365 LINE",
"358 297 LINE",
"516 297 LINE",
"516 135 LINE",
"448 68 LINE",
"214 68 LINE",
"146 135 LINE",
"146 565 LINE",
"214 632 LINE",
"452 632 LINE",
"516 569 LINE",
"516 530 LINE",
"592 530 LINE",
"592 594 LINE",
"486 700 LINE",
"180 700 LINE",
"70 590 LINE",
"70 110 LINE",
"180 0 LINE"
);
}
);
width = 652;
},
{
anchors = (
{
name = bottom;
position = "{307, 0}";
},
{
name = top;
position = "{414, 700}";
}
);
background = {
paths = (
{
closed = 1;
nodes = (
"482 0 LINE",
"605 103 LINE",
"655 390 LINE",
"374 390 LINE",
"354 274 LINE",
"503 274 LINE",
"484 164 LINE",
"427 116 LINE",
"218 116 LINE",
"176 167 LINE",
"242 533 LINE",
"302 584 LINE",
"507 584 LINE",
"545 537 LINE",
"535 480 LINE",
"671 480 LINE",
"689 579 LINE",
"588 700 LINE",
"242 700 LINE",
"117 593 LINE",
"33 124 LINE",
"135 0 LINE"
);
}
);
};
layerId = "1C004500-E2C5-4CA7-8B0E-089ECD41D52B";
paths = (
{
closed = 1;
nodes = (
"482 0 LINE",
"605 103 LINE",
"655 390 LINE",
"374 390 LINE",
"354 274 LINE",
"503 274 LINE",
"484 164 LINE",
"427 116 LINE",
"218 116 LINE",
"176 167 LINE",
"242 533 LINE",
"302 584 LINE",
"507 584 LINE",
"545 537 LINE",
"535 480 LINE",
"671 480 LINE",
"689 579 LINE",
"588 700 LINE",
"242 700 LINE",
"117 593 LINE",
"33 124 LINE",
"135 0 LINE"
);
}
);
width = 676;
},
{
anchors = (
{
name = bottom;
position = "{292, 0}";
},
{
name = top;
position = "{407, 700}";
}
);
background = {
paths = (
{
closed = 1;
nodes = (
"444 0 LINE",
"566 103 LINE",
"612 365 LINE",
"378 365 LINE",
"366 297 LINE",
"524 297 LINE",
"495 135 LINE",
"416 68 LINE",
"182 68 LINE",
"125 135 LINE",
"201 565 LINE",
"281 632 LINE",
"519 632 LINE",
"572 569 LINE",
"565 530 LINE",
"641 530 LINE",
"651 589 LINE",
"560 700 LINE",
"253 700 LINE",
"131 595 LINE",
"46 115 LINE",
"142 0 LINE"
);
}
);
};
layerId = "76B50E0D-F613-4BB6-AC9C-0F65D3239222";
paths = (
{
closed = 1;
nodes = (
"444 0 LINE",
"566 103 LINE",
"612 365 LINE",
"378 365 LINE",
"366 297 LINE",
"524 297 LINE",
"495 135 LINE",
"416 68 LINE",
"182 68 LINE",
"125 135 LINE",
"201 565 LINE",
"281 632 LINE",
"519 632 LINE",
"572 569 LINE",
"565 530 LINE",
"641 530 LINE",
"651 589 LINE",
"560 700 LINE",
"253 700 LINE",
"131 595 LINE",
"46 115 LINE",
"142 0 LINE"
);
}
);
width = 652;
},
{
anchors = (
{
name = bottom;
position = "{280, 0}";
},
{
name = top;
position = "{403, 700}";
}
);
background = {
paths = (
{
closed = 1;
nodes = (
"423 0 LINE",
"540 99 LINE",
"584 350 LINE",
"381 350 LINE",
"375 314 LINE",
"539 314 LINE",
"503 113 LINE",
"413 36 LINE",
"161 36 LINE",
"96 114 LINE",
"180 586 LINE",
"271 664 LINE",
"528 664 LINE",
"588 593 LINE",
"582 562 LINE",
"621 562 LINE",
"629 604 LINE",
"550 700 LINE",
"261 700 LINE",
"143 600 LINE",
"55 100 LINE",
"137 0 LINE"
);
}
);
};
layerId = "7E1D32E5-5329-438C-9451-496B813F8F3E";
paths = (
{
closed = 1;
nodes = (
"426 0 LINE",
"538 94 LINE",
"583 350 LINE",
"380 350 LINE",
"374 314 LINE",
"538 314 LINE",
"502 113 LINE",
"412 36 LINE",
"160 36 LINE",
"95 114 LINE",
"179 586 LINE",
"270 664 LINE",
"527 664 LINE",
"587 593 LINE",
"581 562 LINE",
"620 562 LINE",
"627 600 LINE",
"544 700 LINE",
"256 700 LINE",
"143 604 LINE",
"55 104 LINE",
"140 0 LINE"
);
}
);
width = 635;
}
);
leftKerningGroup = O;
leftMetricsKey = O;
note = G;
rightKerningGroup = G;
unicode = 0047;
},
{
glyphname = H;
layers = (
{
anchors = (
{
name = bottom;
position = "{331, 0}";
},
{
name = center;
position = "{329, 350}";
},
{
name = top;
position = "{329, 700}";
},
{
name = topleft;
position = "{21, 700}";
}
);
background = {
anchors = (
{
name = bottom;
position = "{331, 0}";
},
{
name = center;
position = "{329, 350}";
},
{
name = top;
position = "{329, 700}";
},
{
name = topleft;
position = "{21, 700}";
}
);
paths = (
{
closed = 1;
nodes = (
"129 0 LINE",
"129 330 LINE",
"528 330 LINE",
"528 0 LINE",
"567 0 LINE",
"567 700 LINE",
"528 700 LINE",
"528 367 LINE",
"129 367 LINE",
"129 700 LINE",
"90 700 LINE",
"90 0 LINE"
);
}
);
};
layerId = "39D11A97-A6D9-4B52-A6F5-15D5E4373676";
paths = (
{
closed = 1;
nodes = (
"129 0 LINE",
"129 331 LINE",
"528 331 LINE",
"528 0 LINE",
"567 0 LINE",
"567 700 LINE",
"528 700 LINE",
"528 367 LINE",
"129 367 LINE",
"129 700 LINE",
"90 700 LINE",
"90 0 LINE"
);
}
);
width = 657;
},
{
anchors = (
{
name = bottom;
position = "{351, 0}";
},
{
name = center;
position = "{349, 349}";
},
{
name = top;
position = "{349, 700}";
},
{
name = topleft;
position = "{21, 700}";
}
);
background = {
paths = (
{
closed = 1;
nodes = (
"216 0 LINE",
"216 290 LINE",
"512 290 LINE",
"512 0 LINE",
"648 0 LINE",
"648 700 LINE",
"512 700 LINE",
"512 408 LINE",
"216 408 LINE",
"216 700 LINE",
"80 700 LINE",
"80 0 LINE"
);
}
);
};
layerId = "D6105F7E-CAE1-4F7B-A52E-8AA6E6082DF8";
paths = (
{
closed = 1;
nodes = (
"201 0 LINE",
"201 291 LINE",
"497 291 LINE",
"497 0 LINE",
"633 0 LINE",
"633 700 LINE",
"497 700 LINE",
"497 407 LINE",
"201 407 LINE",
"201 700 LINE",
"65 700 LINE",
"65 0 LINE"
);
}
);
width = 698;
},
{
anchors = (
{
name = bottom;
position = "{338, 0}";
},
{
name = center;
position = "{336, 350}";
},
{
name = top;
position = "{336, 700}";
},
{
name = topleft;
position = "{20, 700}";
}
);
layerId = "3C986DA2-2E28-42A4-B05D-29F449A87569";
paths = (
{
closed = 1;
nodes = (
"156 0 LINE",
"156 315 LINE",
"518 315 LINE",
"518 0 LINE",
"594 0 LINE",
"594 700 LINE",
"518 700 LINE",
"518 383 LINE",
"156 383 LINE",
"156 700 LINE",
"80 700 LINE",
"80 0 LINE"
);
}
);
width = 674;
},
{
anchors = (
{
name = bottom;
position = "{312, 0}";
},
{
name = center;
position = "{368, 349}";
},
{
name = top;
position = "{429, 700}";
},
{
name = topleft;
position = "{101, 700}";
}
);
background = {
paths = (
{
closed = 1;
nodes = (
"158 0 LINE",
"209 291 LINE",
"505 291 LINE",
"454 0 LINE",
"590 0 LINE",
"713 700 LINE",
"577 700 LINE",
"526 407 LINE",
"230 407 LINE",
"281 700 LINE",
"145 700 LINE",
"22 0 LINE"
);
}
);
};
layerId = "1C004500-E2C5-4CA7-8B0E-089ECD41D52B";
paths = (
{
closed = 1;
nodes = (
"158 0 LINE",
"209 291 LINE",
"504 291 LINE",
"453 0 LINE",
"589 0 LINE",
"712 700 LINE",
"576 700 LINE",
"525 407 LINE",
"230 407 LINE",
"281 700 LINE",
"145 700 LINE",
"22 0 LINE"
);
}
);
width = 698;
},
{
anchors = (
{
name = bottom;
position = "{295, 0}";
},
{
name = center;
position = "{355, 350}";
},
{
name = top;
position = "{416, 700}";
},
{
name = topleft;
position = "{100, 700}";
}
);
layerId = "76B50E0D-F613-4BB6-AC9C-0F65D3239222";
paths = (
{
closed = 1;
nodes = (
"113 0 LINE",
"169 315 LINE",
"530 315 LINE",
"474 0 LINE",
"550 0 LINE",
"673 700 LINE",
"597 700 LINE",
"542 383 LINE",
"181 383 LINE",
"236 700 LINE",
"160 700 LINE",
"37 0 LINE"
);
}
);
width = 674;
},
{
anchors = (
{
name = bottom;
position = "{287, 0}";
},
{
name = center;
position = "{347, 350}";
},
{
name = top;
position = "{408, 700}";
},
{
name = topleft;
position = "{100, 700}";
}
);
background = {
paths = (
{
closed = 1;
nodes = (
"86 0 LINE",
"144 331 LINE",
"543 331 LINE",
"485 0 LINE",
"524 0 LINE",
"647 700 LINE",
"608 700 LINE",
"550 367 LINE",
"151 367 LINE",
"209 700 LINE",
"170 700 LINE",
"47 0 LINE"
);
}
);
};
layerId = "7E1D32E5-5329-438C-9451-496B813F8F3E";
paths = (
{
closed = 1;
nodes = (
"85 0 LINE",
"143 331 LINE",
"542 331 LINE",
"484 0 LINE",
"523 0 LINE",
"646 700 LINE",
"607 700 LINE",
"549 367 LINE",
"150 367 LINE",
"209 700 LINE",
"170 700 LINE",
"46 0 LINE"
);
}
);
width = 657;
}
);
note = H;
rightMetricsKey = "=|";
unicode = 0048;
},
{
glyphname = Hbar;
layers = (
{
background = {
paths = (
{
closed = 1;
nodes = (
"732 514 LINE",
"732 550 LINE",
"25 550 LINE",
"25 514 LINE"
);
}
);
};
components = (
{
name = H;
transform = "{1, 0, 0, 1, 50, 0}";
}
);
layerId = "39D11A97-A6D9-4B52-A6F5-15D5E4373676";
paths = (
{
closed = 1;
nodes = (
"722 518 LINE",
"722 552 LINE",
"35 552 LINE",
"35 518 LINE"
);
}
);
width = 757;
},
{
background = {
paths = (
{
closed = 1;
nodes = (
"743 497 LINE",
"743 594 LINE",
"5 594 LINE",
"5 497 LINE"
);
}
);
};
components = (
{
name = H;
transform = "{1, 0, 0, 1, 34, 0}";
}
);
layerId = "D6105F7E-CAE1-4F7B-A52E-8AA6E6082DF8";
paths = (
{
closed = 1;
nodes = (
"757 494 LINE",
"757 594 LINE",
"10 594 LINE",
"10 494 LINE"
);
}
);
width = 767;
},
{
components = (
{
name = H;
transform = "{1, 0, 0, 1, 45, 0}";
}
);
layerId = "3C986DA2-2E28-42A4-B05D-29F449A87569";
paths = (
{
closed = 1;
nodes = (
"739 509 LINE",
"739 569 LINE",
"25 569 LINE",
"25 509 LINE"
);
}
);
width = 764;
},
{
background = {
paths = (
{
closed = 1;
nodes = (
"800 494 LINE",
"818 594 LINE",
"71 594 LINE",
"53 494 LINE"
);
}
);
};
components = (
{
name = H;
transform = "{1, 0, 0, 1, 34, 0}";
}
);
layerId = "1C004500-E2C5-4CA7-8B0E-089ECD41D52B";
paths = (
{
closed = 1;
nodes = (
"800 494 LINE",
"818 594 LINE",
"71 594 LINE",
"53 494 LINE"
);
}
);
width = 767;
},
{
components = (
{
name = H;
transform = "{1, 0, 0, 1, 45, 0}";
}
);
layerId = "76B50E0D-F613-4BB6-AC9C-0F65D3239222";
paths = (
{
closed = 1;
nodes = (
"784 509 LINE",
"795 569 LINE",
"82 569 LINE",
"71 509 LINE"
);
}
);
width = 764;
},
{
background = {
components = (
{
name = H;
transform = "{1, 0, 0, 1, 49, 0}";
}
);
};
components = (
{
name = H;
transform = "{1, 0, 0, 1, 49, 0}";
}
);
layerId = "7E1D32E5-5329-438C-9451-496B813F8F3E";
paths = (
{
closed = 1;
nodes = (
"769 518 LINE",
"775 552 LINE",
"88 552 LINE",
"82 518 LINE"
);
}
);
width = 757;
}
);
note = Hbar;
unicode = 0126;
},
{
glyphname = I;
layers = (
{
anchors = (
{
name = bottom;
position = "{115, 0}";
},
{
name = ogonek;
position = "{134, 0}";
},
{
name = top;
position = "{115, 700}";
},
{
name = topleft;
position = "{7, 700}";
}
);
background = {
anchors = (
{
name = bottom;
position = "{115, 0}";
},
{
name = ogonek;
position = "{134, 0}";
},
{
name = top;
position = "{115, 700}";
},
{
name = topleft;
position = "{7, 700}";
}
);
paths = (
{
closed = 1;
nodes = (
"134 0 LINE",
"134 700 LINE",
"95 700 LINE",
"95 0 LINE"
);
}
);
};
layerId = "39D11A97-A6D9-4B52-A6F5-15D5E4373676";
paths = (
{
closed = 1;
nodes = (
"134 0 LINE",
"134 700 LINE",
"95 700 LINE",
"95 0 LINE"
);
}
);
width = 229;
},
{
anchors = (
{
name = bottom;
position = "{138, 0}";
},
{
name = ogonek;
position = "{206, 0}";
},
{
name = top;
position = "{138, 700}";
},
{
name = topleft;
position = "{38, 700}";
}
);
layerId = "D6105F7E-CAE1-4F7B-A52E-8AA6E6082DF8";
paths = (
{
closed = 1;
nodes = (
"206 0 LINE",
"206 700 LINE",
"70 700 LINE",
"70 0 LINE"
);
}
);
width = 276;
},
{
anchors = (
{
name = bottom;
position = "{123, 0}";
},
{
name = ogonek;
position = "{161, 0}";
},
{
name = top;
position = "{123, 700}";
},
{
name = topleft;
position = "{15, 700}";
}
);
layerId = "3C986DA2-2E28-42A4-B05D-29F449A87569";
paths = (
{
closed = 1;
nodes = (
"161 0 LINE",
"161 700 LINE",
"85 700 LINE",
"85 0 LINE"
);
}
);
width = 246;
},
{
anchors = (
{
name = bottom;
position = "{94, 0}";
},
{
name = ogonek;
position = "{162, 0}";
},
{
name = top;
position = "{218, 700}";
},
{
name = topleft;
position = "{118, 700}";
}
);
background = {
paths = (
{
closed = 1;
nodes = (
"163 0 LINE",
"286 700 LINE",
"150 700 LINE",
"27 0 LINE"
);
}
);
};
layerId = "1C004500-E2C5-4CA7-8B0E-089ECD41D52B";
paths = (
{
closed = 1;
nodes = (
"162 0 LINE",
"286 700 LINE",
"150 700 LINE",
"26 0 LINE"
);
}
);
width = 276;
},
{
anchors = (
{
name = bottom;
position = "{79, 0}";
},
{
name = ogonek;
position = "{117, 0}";
},
{
name = top;
position = "{202, 700}";
},
{
name = topleft;
position = "{94, 700}";
}
);
background = {
paths = (
{
closed = 1;
nodes = (
"118 0 LINE",
"241 700 LINE",
"165 700 LINE",
"42 0 LINE"
);
}
);
};
layerId = "76B50E0D-F613-4BB6-AC9C-0F65D3239222";
paths = (
{
closed = 1;
nodes = (
"117 0 LINE",
"241 700 LINE",
"165 700 LINE",
"41 0 LINE"
);
}
);
width = 246;
},
{
anchors = (
{
name = bottom;
position = "{71, 0}";
},
{
name = ogonek;
position = "{90, 0}";
},
{
name = top;
position = "{194, 700}";
},
{
name = topleft;
position = "{87, 700}";
}
);
background = {
paths = (
{
closed = 1;
nodes = (
"90 0 LINE",
"214 700 LINE",
"175 700 LINE",
"51 0 LINE"
);
}
);
};
layerId = "7E1D32E5-5329-438C-9451-496B813F8F3E";
paths = (
{
closed = 1;
nodes = (
"90 0 LINE",
"214 700 LINE",
"175 700 LINE",
"51 0 LINE"
);
}
);
width = 229;
}
);
note = I;
rightMetricsKey = "=|";
unicode = 0049;
},
{
glyphname = J;
layers = (
{
anchors = (
{
name = bottom;
position = "{269, 0}";
},
{
name = top;
position = "{434, 700}";
}
);
background = {
anchors = (
{
name = bottom;
position = "{269, 0}";
},
{
name = top;
position = "{434, 700}";
}
);
paths = (
{
closed = 1;
nodes = (
"364 0 LINE",
"454 90 LINE",
"454 700 LINE",
"415 700 LINE",
"415 102 LINE",
"349 37 LINE",
"161 37 LINE",
"83 114 LINE",
"83 177 LINE",
"45 177 LINE",
"45 100 LINE",
"145 0 LINE"
);
}
);
};
layerId = "39D11A97-A6D9-4B52-A6F5-15D5E4373676";
paths = (
{
closed = 1;
nodes = (
"364 0 LINE",
"454 90 LINE",
"454 700 LINE",
"415 700 LINE",
"415 102 LINE",
"349 36 LINE",
"161 36 LINE",
"83 114 LINE",
"83 177 LINE",
"45 177 LINE",
"45 100 LINE",
"145 0 LINE"
);
}
);
width = 539;
},
{
anchors = (
{
name = bottom;
position = "{289, 0}";
},
{
name = top;
position = "{450, 700}";
}
);
background = {
paths = (
{
closed = 1;
nodes = (
"418 0 LINE",
"535 117 LINE",
"535 700 LINE",
"399 700 LINE",
"399 163 LINE",
"351 116 LINE",
"218 116 LINE",
"167 167 LINE",
"167 251 LINE",
"35 251 LINE",
"35 121 LINE",
"155 0 LINE"
);
}
);
};
layerId = "D6105F7E-CAE1-4F7B-A52E-8AA6E6082DF8";
paths = (
{
closed = 1;
nodes = (
"403 0 LINE",
"520 117 LINE",
"520 700 LINE",
"384 700 LINE",
"384 163 LINE",
"336 116 LINE",
"203 116 LINE",
"152 167 LINE",
"152 251 LINE",
"20 251 LINE",
"20 121 LINE",
"140 0 LINE"
);
}
);
width = 580;
},
{
anchors = (
{
name = bottom;
position = "{277, 0}";
},
{
name = top;
position = "{442, 700}";
}
);
layerId = "3C986DA2-2E28-42A4-B05D-29F449A87569";
paths = (
{
closed = 1;
nodes = (
"381 0 LINE",
"481 100 LINE",
"481 700 LINE",
"405 700 LINE",
"405 124 LINE",
"348 68 LINE",
"177 68 LINE",
"109 135 LINE",
"109 209 LINE",
"35 209 LINE",
"35 110 LINE",
"145 0 LINE"
);
}
);
width = 556;
},
{
anchors = (
{
name = bottom;
position = "{246, 0}";
},
{
name = top;
position = "{530, 700}";
}
);
background = {
paths = (
{
closed = 1;
nodes = (
"360 0 LINE",
"497 117 LINE",
"600 700 LINE",
"464 700 LINE",
"369 163 LINE",
"313 116 LINE",
"180 116 LINE",
"138 167 LINE",
"153 251 LINE",
"21 251 LINE",
"-2 121 LINE",
"97 0 LINE"
);
}
);
};
layerId = "1C004500-E2C5-4CA7-8B0E-089ECD41D52B";
paths = (
{
closed = 1;
nodes = (
"370 0 LINE",
"495 107 LINE",
"600 700 LINE",
"464 700 LINE",
"369 163 LINE",
"313 116 LINE",
"180 116 LINE",
"138 167 LINE",
"153 251 LINE",
"21 251 LINE",
"-1 129 LINE",
"105 0 LINE"
);
}
);
width = 580;
},
{
anchors = (
{
name = bottom;
position = "{234, 0}";
},
{
name = top;
position = "{522, 700}";
}
);
background = {
paths = (
{
closed = 1;
nodes = (
"345 0 LINE",
"453 92 LINE",
"560 700 LINE",
"484 700 LINE",
"382 124 LINE",
"316 68 LINE",
"146 68 LINE",
"89 135 LINE",
"102 209 LINE",
"28 209 LINE",
"12 114 LINE",
"106 0 LINE"
);
}
);
};
layerId = "76B50E0D-F613-4BB6-AC9C-0F65D3239222";
paths = (
{
closed = 1;
nodes = (
"346 0 LINE",
"453 91 LINE",
"560 700 LINE",
"484 700 LINE",
"382 124 LINE",
"316 68 LINE",
"146 68 LINE",
"89 135 LINE",
"102 209 LINE",
"28 209 LINE",
"12 114 LINE",
"106 0 LINE"
);
}
);
width = 556;
},
{
anchors = (
{
name = bottom;
position = "{225, 0}";
},
{
name = top;
position = "{514, 700}";
}
);
background = {
paths = (
{
closed = 1;
nodes = (
"325 0 LINE",
"425 85 LINE",
"534 700 LINE",
"495 700 LINE",
"389 102 LINE",
"312 36 LINE",
"123 36 LINE",
"58 114 LINE",
"70 177 LINE",
"32 177 LINE",
"19 104 LINE",
"104 0 LINE"
);
}
);
};
layerId = "7E1D32E5-5329-438C-9451-496B813F8F3E";
paths = (
{
closed = 1;
nodes = (
"325 0 LINE",
"425 85 LINE",
"534 700 LINE",
"495 700 LINE",
"389 102 LINE",
"312 36 LINE",
"123 36 LINE",
"58 114 LINE",
"70 177 LINE",
"32 177 LINE",
"19 104 LINE",
"104 0 LINE"
);
}
);
width = 539;
}
);
leftKerningGroup = J;
note = J;
rightKerningGroup = J;
unicode = 004A;
},
{
glyphname = K;
layers = (
{
anchors = (
{
name = bottom;
position = "{302, 0}";
},
{
name = top;
position = "{311, 700}";
}
);
background = {
paths = (
{
closed = 1;
nodes = (
"129 0 LINE",
"129 331 LINE",
"324 331 LINE",
"517 0 LINE",
"558 0 LINE",
"357 351 LINE",
"544 700 LINE",
"503 700 LINE",
"324 368 LINE",
"129 368 LINE",
"129 700 LINE",
"90 700 LINE",
"90 0 LINE"
);
}
);
};
layerId = "39D11A97-A6D9-4B52-A6F5-15D5E4373676";
paths = (
{
closed = 1;
nodes = (
"129 0 LINE",
"129 332 LINE",
"324 332 LINE",
"516 0 LINE",
"558 0 LINE",
"357 351 LINE",
"544 700 LINE",
"502 700 LINE",
"324 368 LINE",
"129 368 LINE",
"129 700 LINE",
"90 700 LINE",
"90 0 LINE"
);
}
);
width = 588;
},
{
anchors = (
{
name = bottom;
position = "{335, 0}";
},
{
name = top;
position = "{331, 700}";
}
);
background = {
paths = (
{
closed = 1;
nodes = (
"216 0 LINE",
"216 291 LINE",
"323 291 LINE",
"507 0 LINE",
"661 0 LINE",
"439 351 LINE",
"644 700 LINE",
"492 700 LINE",
"323 407 LINE",
"216 407 LINE",
"216 700 LINE",
"80 700 LINE",
"80 0 LINE"
);
}
);
};
layerId = "D6105F7E-CAE1-4F7B-A52E-8AA6E6082DF8";
paths = (
{
closed = 1;
nodes = (
"201 0 LINE",
"201 291 LINE",
"306 291 LINE",
"490 0 LINE",
"646 0 LINE",
"424 351 LINE",
"629 700 LINE",
"476 700 LINE",
"307 407 LINE",
"201 407 LINE",
"201 700 LINE",
"65 700 LINE",
"65 0 LINE"
);
}
);
width = 651;
},
{
anchors = (
{
name = bottom;
position = "{318, 0}";
},
{
name = top;
position = "{319, 700}";
}
);
layerId = "3C986DA2-2E28-42A4-B05D-29F449A87569";
paths = (
{
closed = 1;
nodes = (
"156 0 LINE",
"156 315 LINE",
"320 315 LINE",
"513 0 LINE",
"597 0 LINE",
"383 351 LINE",
"582 700 LINE",
"500 700 LINE",
"319 383 LINE",
"156 383 LINE",
"156 700 LINE",
"80 700 LINE",
"80 0 LINE"
);
}
);
width = 617;
},
{
anchors = (
{
name = bottom;
position = "{292, 0}";
},
{
name = top;
position = "{411, 700}";
}
);
background = {
paths = (
{
closed = 1;
nodes = (
"158 0 LINE",
"209 291 LINE",
"325 291 LINE",
"458 0 LINE",
"603 0 LINE",
"443 351 LINE",
"709 700 LINE",
"548 700 LINE",
"328 407 LINE",
"230 407 LINE",
"281 700 LINE",
"145 700 LINE",
"22 0 LINE"
);
}
);
};
layerId = "1C004500-E2C5-4CA7-8B0E-089ECD41D52B";
paths = (
{
closed = 1;
nodes = (
"158 0 LINE",
"209 291 LINE",
"324 291 LINE",
"457 0 LINE",
"602 0 LINE",
"442 351 LINE",
"708 700 LINE",
"547 700 LINE",
"327 407 LINE",
"230 407 LINE",
"281 700 LINE",
"145 700 LINE",
"22 0 LINE"
);
}
);
width = 651;
},
{
anchors = (
{
name = bottom;
position = "{275, 0}";
},
{
name = top;
position = "{399, 700}";
}
);
background = {
paths = (
{
closed = 1;
nodes = (
"113 0 LINE",
"169 315 LINE",
"338 315 LINE",
"475 0 LINE",
"554 0 LINE",
"402 351 LINE",
"662 700 LINE",
"574 700 LINE",
"338 383 LINE",
"181 383 LINE",
"236 700 LINE",
"160 700 LINE",
"37 0 LINE"
);
}
);
};
layerId = "76B50E0D-F613-4BB6-AC9C-0F65D3239222";
paths = (
{
closed = 1;
nodes = (
"113 0 LINE",
"169 315 LINE",
"338 315 LINE",
"474 0 LINE",
"553 0 LINE",
"402 351 LINE",
"662 700 LINE",
"574 700 LINE",
"338 383 LINE",
"181 383 LINE",
"236 700 LINE",
"160 700 LINE",
"37 0 LINE"
);
}
);
width = 617;
},
{
anchors = (
{
name = bottom;
position = "{259, 0}";
},
{
name = top;
position = "{391, 700}";
}
);
background = {
anchors = (
{
name = bottom;
position = "{259, 0}";
},
{
name = top;
position = "{391, 700}";
}
);
paths = (
{
closed = 1;
nodes = (
"86 0 LINE",
"145 332 LINE",
"342 332 LINE",
"475 0 LINE",
"515 0 LINE",
"376 351 LINE",
"624 700 LINE",
"578 700 LINE",
"342 368 LINE",
"151 368 LINE",
"209 700 LINE",
"170 700 LINE",
"47 0 LINE"
);
}
);
};
layerId = "7E1D32E5-5329-438C-9451-496B813F8F3E";
paths = (
{
closed = 1;
nodes = (
"86 0 LINE",
"145 332 LINE",
"341 332 LINE",
"474 0 LINE",
"514 0 LINE",
"375 351 LINE",
"623 700 LINE",
"577 700 LINE",
"341 368 LINE",
"151 368 LINE",
"209 700 LINE",
"170 700 LINE",
"47 0 LINE"
);
}
);
width = 588;
}
);
leftMetricsKey = "=H";
note = K;
rightKerningGroup = K;
unicode = 004B;
},
{
glyphname = L;
layers = (
{
anchors = (
{
name = bottom;
position = "{288, 0}";
},
{
name = center;
position = "{294, 350}";
},
{
name = top;
position = "{110, 700}";
}
);
background = {
anchors = (
{
name = bottom;
position = "{288, 0}";
},
{
name = center;
position = "{272, 350}";
},
{
name = top;
position = "{110, 700}";
},
{
name = topright;
position = "{523, 700}";
}
);
paths = (
{
closed = 1;
nodes = (
"485 0 LINE",
"485 37 LINE",
"129 37 LINE",
"129 700 LINE",
"90 700 LINE",
"90 0 LINE"
);
}
);
};
layerId = "39D11A97-A6D9-4B52-A6F5-15D5E4373676";
paths = (
{
closed = 1;
nodes = (
"485 0 LINE",
"485 36 LINE",
"129 36 LINE",
"129 700 LINE",
"90 700 LINE",
"90 0 LINE"
);
}
);
width = 520;
},
{
anchors = (
{
name = bottom;
position = "{309, 0}";
},
{
name = center;
position = "{342, 350}";
},
{
name = top;
position = "{133, 700}";
}
);
background = {
paths = (
{
closed = 1;
nodes = (
"566 0 LINE",
"566 118 LINE",
"216 118 LINE",
"216 700 LINE",
"80 700 LINE",
"80 0 LINE"
);
}
);
};
layerId = "D6105F7E-CAE1-4F7B-A52E-8AA6E6082DF8";
paths = (
{
closed = 1;
nodes = (
"551 0 LINE",
"551 115 LINE",
"201 115 LINE",
"201 700 LINE",
"65 700 LINE",
"65 0 LINE"
);
}
);
width = 561;
},
{
anchors = (
{
name = bottom;
position = "{300, 0}";
},
{
name = center;
position = "{334, 350}";
},
{
name = top;
position = "{119, 700}";
}
);
layerId = "3C986DA2-2E28-42A4-B05D-29F449A87569";
paths = (
{
closed = 1;
nodes = (
"512 0 LINE",
"512 67 LINE",
"156 67 LINE",
"156 700 LINE",
"80 700 LINE",
"80 0 LINE"
);
}
);
width = 537;
},
{
anchors = (
{
name = bottom;
position = "{266, 0}";
},
{
name = center;
position = "{368, 350}";
},
{
name = top;
position = "{213, 700}";
}
);
background = {
paths = (
{
closed = 1;
nodes = (
"508 0 LINE",
"528 115 LINE",
"178 115 LINE",
"281 700 LINE",
"145 700 LINE",
"22 0 LINE"
);
}
);
};
layerId = "1C004500-E2C5-4CA7-8B0E-089ECD41D52B";
paths = (
{
closed = 1;
nodes = (
"507 0 LINE",
"527 115 LINE",
"178 115 LINE",
"281 700 LINE",
"145 700 LINE",
"22 0 LINE"
);
}
);
width = 561;
},
{
anchors = (
{
name = bottom;
position = "{257, 0}";
},
{
name = center;
position = "{329, 350}";
},
{
name = top;
position = "{199, 700}";
}
);
layerId = "76B50E0D-F613-4BB6-AC9C-0F65D3239222";
paths = (
{
closed = 1;
nodes = (
"468 0 LINE",
"480 67 LINE",
"125 67 LINE",
"236 700 LINE",
"160 700 LINE",
"37 0 LINE"
);
}
);
width = 537;
},
{
anchors = (
{
name = bottom;
position = "{245, 0}";
},
{
name = center;
position = "{323, 350}";
},
{
name = top;
position = "{190, 700}";
}
);
background = {
paths = (
{
closed = 1;
nodes = (
"442 0 LINE",
"448 36 LINE",
"92 36 LINE",
"209 700 LINE",
"170 700 LINE",
"47 0 LINE"
);
}
);
};
layerId = "7E1D32E5-5329-438C-9451-496B813F8F3E";
paths = (
{
closed = 1;
nodes = (
"441 0 LINE",
"447 36 LINE",
"92 36 LINE",
"209 700 LINE",
"170 700 LINE",
"47 0 LINE"
);
}
);
width = 520;
}
);
note = L;
rightKerningGroup = L;
unicode = 004C;
},
{
glyphname = Lslash;
layers = (
{
background = {
paths = (
{
closed = 1;
nodes = (
"321 404 LINE",
"321 445 LINE",
"25 245 LINE",
"25 204 LINE"
);
}
);
};
components = (
{
name = L;
transform = "{1, 0, 0, 1, 45, 0}";
}
);
layerId = "39D11A97-A6D9-4B52-A6F5-15D5E4373676";
paths = (
{
closed = 1;
nodes = (
"321 403 LINE",
"321 445 LINE",
"25 245 LINE",
"25 203 LINE"
);
}
);
width = 565;
},
{
background = {
paths = (
{
closed = 1;
nodes = (
"366 390 LINE",
"366 507 LINE",
"10 297 LINE",
"10 180 LINE"
);
}
);
};
components = (
{
name = L;
transform = "{1, 0, 0, 1, 30, 0}";
}
);
layerId = "D6105F7E-CAE1-4F7B-A52E-8AA6E6082DF8";
paths = (
{
closed = 1;
nodes = (
"366 390 LINE",
"366 507 LINE",
"0 291 LINE",
"0 174 LINE"
);
}
);
width = 591;
},
{
components = (
{
name = L;
transform = "{1, 0, 0, 1, 35, 0}";
}
);
layerId = "3C986DA2-2E28-42A4-B05D-29F449A87569";
paths = (
{
closed = 1;
nodes = (
"311 410 LINE",
"311 480 LINE",
"15 280 LINE",
"15 210 LINE"
);
}
);
width = 572;
},
{
background = {
paths = (
{
closed = 1;
nodes = (
"366 390 LINE",
"366 507 LINE",
"10 297 LINE",
"10 180 LINE"
);
}
);
};
components = (
{
name = L;
transform = "{1, 0, 0, 1, 30, 0}";
}
);
layerId = "1C004500-E2C5-4CA7-8B0E-089ECD41D52B";
paths = (
{
closed = 1;
nodes = (
"391 390 LINE",
"412 507 LINE",
"8 291 LINE",
"-13 174 LINE"
);
}
);
width = 591;
},
{
components = (
{
name = L;
transform = "{1, 0, 0, 1, 35, 0}";
}
);
layerId = "76B50E0D-F613-4BB6-AC9C-0F65D3239222";
paths = (
{
closed = 1;
nodes = (
"339 410 LINE",
"352 480 LINE",
"20 280 LINE",
"8 210 LINE"
);
}
);
width = 572;
},
{
background = {
paths = (
{
closed = 1;
nodes = (
"349 403 LINE",
"357 445 LINE",
"25 245 LINE",
"18 203 LINE"
);
}
);
};
components = (
{
name = L;
transform = "{1, 0, 0, 1, 45, 0}";
}
);
layerId = "7E1D32E5-5329-438C-9451-496B813F8F3E";
paths = (
{
closed = 1;
nodes = (
"348 403 LINE",
"356 445 LINE",
"24 245 LINE",
"17 203 LINE"
);
}
);
width = 565;
}
);
note = Lslash;
rightKerningGroup = L;
rightMetricsKey = L;
unicode = 0141;
},
{
glyphname = M;
layers = (
{
anchors = (
{
name = bottom;
position = "{380, 0}";
},
{
name = top;
position = "{380, 700}";
}
);
background = {
anchors = (
{
name = bottom;
position = "{380, 0}";
},
{
name = top;
position = "{380, 700}";
}
);
paths = (
{
closed = 1;
nodes = (
"127 0 LINE",
"127 631 LINE",
"129 631 LINE",
"361 59 LINE",
"399 59 LINE",
"631 631 LINE",
"633 631 LINE",
"633 0 LINE",
"670 0 LINE",
"670 700 LINE",
"618 700 LINE",
"381 104 LINE",
"379 104 LINE",
"142 700 LINE",
"90 700 LINE",
"90 0 LINE"
);
}
);
};
layerId = "39D11A97-A6D9-4B52-A6F5-15D5E4373676";
paths = (
{
closed = 1;
nodes = (
"127 0 LINE",
"127 631 LINE",
"129 631 LINE",
"361 59 LINE",
"399 59 LINE",
"631 631 LINE",
"633 631 LINE",
"633 0 LINE",
"670 0 LINE",
"670 700 LINE",
"618 700 LINE",
"381 104 LINE",
"379 104 LINE",
"142 700 LINE",
"90 700 LINE",
"90 0 LINE"
);
}
);
width = 760;
},
{
anchors = (
{
name = bottom;
position = "{400, 0}";
},
{
name = top;
position = "{400, 700}";
}
);
background = {
paths = (
{
closed = 1;
nodes = (
"197 -26 LINE",
"197 527 LINE",
"148 527 LINE",
"352 44 LINE",
"454 44 LINE",
"659 527 LINE",
"610 527 LINE",
"610 -26 LINE",
"742 -26 LINE",
"742 726 LINE",
"608 726 LINE",
"383 184 LINE",
"423 184 LINE",
"198 726 LINE",
"65 726 LINE",
"65 -26 LINE"
);
}
);
};
layerId = "D6105F7E-CAE1-4F7B-A52E-8AA6E6082DF8";
paths = (
{
closed = 1;
nodes = (
"196 0 LINE",
"196 426 LINE",
"198 426 LINE",
"358 98 LINE",
"442 98 LINE",
"603 426 LINE",
"605 426 LINE",
"605 0 LINE",
"736 0 LINE",
"736 700 LINE",
"610 700 LINE",
"401 248 LINE",
"399 248 LINE",
"191 700 LINE",
"65 700 LINE",
"65 0 LINE"
);
}
);
width = 801;
},
{
anchors = (
{
name = bottom;
position = "{388, 0}";
},
{
name = top;
position = "{388, 700}";
}
);
layerId = "3C986DA2-2E28-42A4-B05D-29F449A87569";
paths = (
{
closed = 1;
nodes = (
"152 0 LINE",
"152 553 LINE",
"154 553 LINE",
"358 70 LINE",
"418 70 LINE",
"623 553 LINE",
"625 553 LINE",
"625 0 LINE",
"697 0 LINE",
"697 700 LINE",
"614 700 LINE",
"389 158 LINE",
"387 158 LINE",
"162 700 LINE",
"80 700 LINE",
"80 0 LINE"
);
}
);
width = 777;
},
{
anchors = (
{
name = bottom;
position = "{360, 0}";
},
{
name = top;
position = "{473, 700}";
}
);
background = {
paths = (
{
closed = 1;
nodes = (
"153 0 LINE",
"228 426 LINE",
"230 426 LINE",
"332 98 LINE",
"416 98 LINE",
"635 426 LINE",
"637 426 LINE",
"562 0 LINE",
"693 0 LINE",
"816 700 LINE",
"682 700 LINE",
"394 248 LINE",
"392 248 LINE",
"263 700 LINE",
"145 700 LINE",
"22 0 LINE"
);
}
);
};
layerId = "1C004500-E2C5-4CA7-8B0E-089ECD41D52B";
paths = (
{
closed = 1;
nodes = (
"153 0 LINE",
"228 426 LINE",
"230 426 LINE",
"332 98 LINE",
"416 98 LINE",
"634 426 LINE",
"636 426 LINE",
"561 0 LINE",
"692 0 LINE",
"815 700 LINE",
"681 700 LINE",
"394 248 LINE",
"392 248 LINE",
"263 700 LINE",
"145 700 LINE",
"22 0 LINE"
);
}
);
width = 801;
},
{
anchors = (
{
name = bottom;
position = "{346, 0}";
},
{
name = top;
position = "{469, 700}";
}
);
layerId = "76B50E0D-F613-4BB6-AC9C-0F65D3239222";
paths = (
{
closed = 1;
nodes = (
"109 0 LINE",
"207 553 LINE",
"209 553 LINE",
"327 70 LINE",
"387 70 LINE",
"678 553 LINE",
"680 553 LINE",
"581 0 LINE",
"653 0 LINE",
"777 700 LINE",
"694 700 LINE",
"374 158 LINE",
"372 158 LINE",
"242 700 LINE",
"160 700 LINE",
"37 0 LINE"
);
}
);
width = 777;
},
{
anchors = (
{
name = bottom;
position = "{335, 0}";
},
{
name = top;
position = "{458, 700}";
}
);
background = {
paths = (
{
closed = 1;
nodes = (
"84 0 LINE",
"195 631 LINE",
"197 631 LINE",
"328 59 LINE",
"366 59 LINE",
"699 631 LINE",
"701 631 LINE",
"590 0 LINE",
"627 0 LINE",
"750 700 LINE",
"695 700 LINE",
"353 104 LINE",
"351 104 LINE",
"219 700 LINE",
"170 700 LINE",
"47 0 LINE"
);
}
);
};
layerId = "7E1D32E5-5329-438C-9451-496B813F8F3E";
paths = (
{
closed = 1;
nodes = (
"84 0 LINE",
"195 631 LINE",
"197 631 LINE",
"328 59 LINE",
"366 59 LINE",
"698 631 LINE",
"700 631 LINE",
"589 0 LINE",
"626 0 LINE",
"749 700 LINE",
"695 700 LINE",
"354 104 LINE",
"352 104 LINE",
"220 700 LINE",
"170 700 LINE",
"47 0 LINE"
);
}
);
width = 760;
}
);
note = M;
rightMetricsKey = "=|";
unicode = 004D;
},
{
glyphname = N;
layers = (
{
anchors = (
{
name = bottom;
position = "{328, 0}";
},
{
name = top;
position = "{328, 700}";
}
);
background = {
anchors = (
{
name = bottom;
position = "{328, 0}";
},
{
name = top;
position = "{328, 700}";
}
);
paths = (
{
closed = 1;
nodes = (
"127 0 LINE",
"127 635 LINE",
"129 635 LINE",
"525 0 LINE",
"566 0 LINE",
"566 700 LINE",
"529 700 LINE",
"529 65 LINE",
"527 65 LINE",
"131 700 LINE",
"90 700 LINE",
"90 0 LINE"
);
}
);
};
layerId = "39D11A97-A6D9-4B52-A6F5-15D5E4373676";
paths = (
{
closed = 1;
nodes = (
"127 0 LINE",
"127 635 LINE",
"129 635 LINE",
"525 0 LINE",
"566 0 LINE",
"566 700 LINE",
"529 700 LINE",
"529 65 LINE",
"527 65 LINE",
"131 700 LINE",
"90 700 LINE",
"90 0 LINE"
);
}
);
width = 656;
},
{
anchors = (
{
name = bottom;
position = "{349, 0}";
},
{
name = top;
position = "{349, 700}";
}
);
background = {
paths = (
{
closed = 1;
nodes = (
"211 0 LINE",
"211 474 LINE",
"213 474 LINE",
"525 0 LINE",
"647 0 LINE",
"647 700 LINE",
"516 700 LINE",
"516 225 LINE",
"514 225 LINE",
"202 700 LINE",
"80 700 LINE",
"80 0 LINE"
);
}
);
};
layerId = "D6105F7E-CAE1-4F7B-A52E-8AA6E6082DF8";
paths = (
{
closed = 1;
nodes = (
"196 0 LINE",
"196 474 LINE",
"198 474 LINE",
"510 0 LINE",
"632 0 LINE",
"632 700 LINE",
"501 700 LINE",
"501 225 LINE",
"499 225 LINE",
"187 700 LINE",
"65 700 LINE",
"65 0 LINE"
);
}
);
width = 697;
},
{
anchors = (
{
name = bottom;
position = "{336, 0}";
},
{
name = top;
position = "{336, 700}";
}
);
layerId = "3C986DA2-2E28-42A4-B05D-29F449A87569";
paths = (
{
closed = 1;
nodes = (
"152 0 LINE",
"152 576 LINE",
"154 576 LINE",
"519 0 LINE",
"593 0 LINE",
"593 700 LINE",
"521 700 LINE",
"521 124 LINE",
"519 124 LINE",
"154 700 LINE",
"80 700 LINE",
"80 0 LINE"
);
}
);
width = 673;
},
{
anchors = (
{
name = bottom;
position = "{316, 0}";
},
{
name = top;
position = "{419, 700}";
}
);
background = {
paths = (
{
closed = 1;
nodes = (
"153 0 LINE",
"237 474 LINE",
"239 474 LINE",
"467 0 LINE",
"589 0 LINE",
"712 700 LINE",
"581 700 LINE",
"498 225 LINE",
"496 225 LINE",
"267 700 LINE",
"145 700 LINE",
"22 0 LINE"
);
}
);
};
layerId = "1C004500-E2C5-4CA7-8B0E-089ECD41D52B";
paths = (
{
closed = 1;
nodes = (
"153 0 LINE",
"237 474 LINE",
"239 474 LINE",
"466 0 LINE",
"588 0 LINE",
"712 700 LINE",
"581 700 LINE",
"498 225 LINE",
"496 225 LINE",
"267 700 LINE",
"145 700 LINE",
"22 0 LINE"
);
}
);
width = 697;
},
{
anchors = (
{
name = bottom;
position = "{293, 0}";
},
{
name = top;
position = "{416, 700}";
}
);
background = {
paths = (
{
closed = 1;
nodes = (
"109 0 LINE",
"211 576 LINE",
"213 576 LINE",
"476 0 LINE",
"550 0 LINE",
"673 700 LINE",
"601 700 LINE",
"500 124 LINE",
"498 124 LINE",
"234 700 LINE",
"160 700 LINE",
"37 0 LINE"
);
}
);
};
layerId = "76B50E0D-F613-4BB6-AC9C-0F65D3239222";
paths = (
{
closed = 1;
nodes = (
"109 0 LINE",
"211 576 LINE",
"213 576 LINE",
"475 0 LINE",
"549 0 LINE",
"673 700 LINE",
"601 700 LINE",
"499 124 LINE",
"497 124 LINE",
"234 700 LINE",
"160 700 LINE",
"37 0 LINE"
);
}
);
width = 673;
},
{
anchors = (
{
name = bottom;
position = "{285, 0}";
},
{
name = top;
position = "{408, 700}";
}
);
background = {
paths = (
{
closed = 1;
nodes = (
"84 0 LINE",
"196 635 LINE",
"198 635 LINE",
"482 0 LINE",
"523 0 LINE",
"646 700 LINE",
"609 700 LINE",
"497 65 LINE",
"495 65 LINE",
"211 700 LINE",
"170 700 LINE",
"47 0 LINE"
);
}
);
};
layerId = "7E1D32E5-5329-438C-9451-496B813F8F3E";
paths = (
{
closed = 1;
nodes = (
"84 0 LINE",
"196 635 LINE",
"198 635 LINE",
"481 0 LINE",
"522 0 LINE",
"645 700 LINE",
"608 700 LINE",
"496 65 LINE",
"494 65 LINE",
"211 700 LINE",
"170 700 LINE",
"47 0 LINE"
);
}
);
width = 656;
}
);
note = N;
rightMetricsKey = "=|";
unicode = 004E;
},
{
glyphname = Eng;
layers = (
{
layerId = "39D11A97-A6D9-4B52-A6F5-15D5E4373676";
paths = (
{
closed = 1;
nodes = (
"127 0 LINE",
"127 635 LINE",
"129 635 LINE",
"528 0 LINE",
"566 0 LINE",
"566 700 LINE",
"529 700 LINE",
"529 68 LINE",
"527 68 LINE",
"131 700 LINE",
"90 700 LINE",
"90 0 LINE"
);
},
{
closed = 1;
nodes = (
"485 -218 LINE",
"566 -137 LINE",
"566 28 LINE",
"528 28 LINE",
"528 -122 LINE",
"468 -182 LINE",
"378 -182 LINE",
"378 -218 LINE"
);
}
);
width = 656;
},
{
background = {
paths = (
{
closed = 1;
nodes = (
"507 225 LINE",
"505 225 LINE",
"187 700 LINE",
"65 700 LINE",
"65 0 LINE",
"196 0 LINE",
"196 474 LINE",
"198 474 LINE",
"516 0 LINE",
"638 0 LINE",
"638 700 LINE",
"507 700 LINE"
);
},
{
closed = 1;
nodes = (
"531 -218 LINE",
"638 -111 LINE",
"638 498 LINE",
"507 498 LINE",
"507 -69 LINE",
"472 -104 LINE",
"357 -104 LINE",
"357 -218 LINE"
);
}
);
};
layerId = "D6105F7E-CAE1-4F7B-A52E-8AA6E6082DF8";
paths = (
{
closed = 1;
nodes = (
"196 0 LINE",
"196 474 LINE",
"198 474 LINE",
"516 0 LINE",
"638 0 LINE",
"638 700 LINE",
"507 700 LINE",
"507 225 LINE",
"505 225 LINE",
"187 700 LINE",
"65 700 LINE",
"65 0 LINE"
);
},
{
closed = 1;
nodes = (
"531 -218 LINE",
"638 -111 LINE",
"638 47 LINE",
"507 47 LINE",
"507 -69 LINE",
"472 -104 LINE",
"357 -104 LINE",
"357 -218 LINE"
);
}
);
width = 703;
},
{
layerId = "3C986DA2-2E28-42A4-B05D-29F449A87569";
paths = (
{
closed = 1;
nodes = (
"152 0 LINE",
"152 576 LINE",
"154 576 LINE",
"516 0 LINE",
"590 0 LINE",
"590 700 LINE",
"518 700 LINE",
"518 124 LINE",
"516 124 LINE",
"154 700 LINE",
"80 700 LINE",
"80 0 LINE"
);
},
{
closed = 1;
nodes = (
"499 -218 LINE",
"590 -127 LINE",
"590 40 LINE",
"516 40 LINE",
"516 -103 LINE",
"466 -152 LINE",
"366 -152 LINE",
"366 -218 LINE"
);
}
);
width = 670;
},
{
background = {
paths = (
{
closed = 1;
nodes = (
"153 0 LINE",
"237 474 LINE",
"239 474 LINE",
"473 0 LINE",
"595 0 LINE",
"718 700 LINE",
"587 700 LINE",
"504 225 LINE",
"502 225 LINE",
"267 700 LINE",
"145 700 LINE",
"22 0 LINE"
);
},
{
closed = 1;
nodes = (
"450 -218 LINE",
"575 -111 LINE",
"683 498 LINE",
"552 498 LINE",
"452 -69 LINE",
"411 -104 LINE",
"296 -104 LINE",
"276 -218 LINE"
);
}
);
};
layerId = "1C004500-E2C5-4CA7-8B0E-089ECD41D52B";
paths = (
{
closed = 1;
nodes = (
"153 0 LINE",
"237 474 LINE",
"239 474 LINE",
"472 0 LINE",
"594 0 LINE",
"717 700 LINE",
"586 700 LINE",
"503 225 LINE",
"501 225 LINE",
"267 700 LINE",
"145 700 LINE",
"22 0 LINE"
);
},
{
closed = 1;
nodes = (
"449 -218 LINE",
"574 -111 LINE",
"594 0 LINE",
"466 16 LINE",
"451 -69 LINE",
"410 -104 LINE",
"295 -104 LINE",
"275 -218 LINE"
);
}
);
width = 703;
},
{
layerId = "76B50E0D-F613-4BB6-AC9C-0F65D3239222";
paths = (
{
closed = 1;
nodes = (
"109 0 LINE",
"211 576 LINE",
"213 576 LINE",
"472 0 LINE",
"546 0 LINE",
"670 700 LINE",
"598 700 LINE",
"496 124 LINE",
"494 124 LINE",
"234 700 LINE",
"160 700 LINE",
"37 0 LINE"
);
},
{
closed = 1;
nodes = (
"416 -218 LINE",
"523 -127 LINE",
"546 0 LINE",
"475 18 LINE",
"453 -103 LINE",
"394 -152 LINE",
"294 -152 LINE",
"283 -218 LINE"
);
}
);
width = 670;
},
{
background = {
paths = (
{
closed = 1;
nodes = (
"403 -218 LINE",
"498 -137 LINE",
"527 28 LINE",
"489 28 LINE",
"462 -122 LINE",
"392 -182 LINE",
"302 -182 LINE",
"296 -218 LINE"
);
},
{
closed = 1;
nodes = (
"84 0 LINE",
"196 635 LINE",
"198 635 LINE",
"481 0 LINE",
"522 0 LINE",
"645 700 LINE",
"608 700 LINE",
"496 65 LINE",
"494 65 LINE",
"211 700 LINE",
"170 700 LINE",
"47 0 LINE"
);
}
);
};
layerId = "7E1D32E5-5329-438C-9451-496B813F8F3E";
paths = (
{
closed = 1;
nodes = (
"84 0 LINE",
"196 635 LINE",
"198 635 LINE",
"484 0 LINE",
"522 0 LINE",
"645 700 LINE",
"608 700 LINE",
"496 68 LINE",
"494 68 LINE",
"211 700 LINE",
"170 700 LINE",
"47 0 LINE"
);
},
{
closed = 1;
nodes = (
"403 -218 LINE",
"498 -137 LINE",
"522 0 LINE",
"487 17 LINE",
"462 -122 LINE",
"392 -182 LINE",
"302 -182 LINE",
"296 -218 LINE"
);
}
);
width = 656;
}
);
leftMetricsKey = N;
note = Eng;
rightMetricsKey = N;
unicode = 014A;
},
{
glyphname = O;
layers = (
{
anchors = (
{
name = bottom;
position = "{330, 0}";
},
{
name = center;
position = "{330, 350}";
},
{
name = ogonek;
position = "{353, 10}";
},
{
name = top;
position = "{330, 700}";
},
{
name = topright;
position = "{559, 558}";
}
);
background = {
anchors = (
{
name = bottom;
position = "{330, 0}";
},
{
name = center;
position = "{330, 350}";
},
{
name = ogonek;
position = "{606, 10}";
},
{
name = top;
position = "{330, 700}";
},
{
name = topleft;
position = "{7, 700}";
},
{
name = topright;
position = "{600, 518}";
}
);
paths = (
{
closed = 1;
nodes = (
"479 0 LINE",
"579 100 LINE",
"579 600 LINE",
"479 700 LINE",
"180 700 LINE",
"80 600 LINE",
"80 100 LINE",
"180 0 LINE"
);
},
{
closed = 1;
nodes = (
"119 113 LINE",
"119 587 LINE",
"196 663 LINE",
"463 663 LINE",
"540 587 LINE",
"540 113 LINE",
"463 37 LINE",
"196 37 LINE"
);
}
);
};
layerId = "39D11A97-A6D9-4B52-A6F5-15D5E4373676";
paths = (
{
closed = 1;
nodes = (
"479 0 LINE",
"579 100 LINE",
"579 600 LINE",
"479 700 LINE",
"180 700 LINE",
"80 600 LINE",
"80 100 LINE",
"180 0 LINE"
);
},
{
closed = 1;
nodes = (
"119 114 LINE",
"119 586 LINE",
"197 664 LINE",
"462 664 LINE",
"540 586 LINE",
"540 114 LINE",
"462 36 LINE",
"197 36 LINE"
);
}
);
width = 659;
},
{
anchors = (
{
name = bottom;
position = "{350, 0}";
},
{
name = center;
position = "{353, 350}";
},
{
name = ogonek;
position = "{431, 10}";
},
{
name = top;
position = "{350, 700}";
},
{
name = topright;
position = "{625, 558}";
}
);
background = {
paths = (
{
closed = 1;
nodes = (
"545 0 LINE",
"660 115 LINE",
"660 585 LINE",
"545 700 LINE",
"185 700 LINE",
"70 585 LINE",
"70 115 LINE",
"185 0 LINE"
);
},
{
closed = 1;
nodes = (
"206 167 LINE",
"206 533 LINE",
"257 584 LINE",
"473 584 LINE",
"524 533 LINE",
"524 167 LINE",
"473 116 LINE",
"257 116 LINE"
);
}
);
};
layerId = "D6105F7E-CAE1-4F7B-A52E-8AA6E6082DF8";
paths = (
{
closed = 1;
nodes = (
"530 0 LINE",
"645 115 LINE",
"645 585 LINE",
"530 700 LINE",
"170 700 LINE",
"55 585 LINE",
"55 115 LINE",
"170 0 LINE"
);
},
{
closed = 1;
nodes = (
"191 167 LINE",
"191 533 LINE",
"242 584 LINE",
"458 584 LINE",
"509 533 LINE",
"509 167 LINE",
"458 116 LINE",
"242 116 LINE"
);
}
);
width = 700;
},
{
anchors = (
{
name = bottom;
position = "{339, 0}";
},
{
name = center;
position = "{339, 350}";
},
{
name = ogonek;
position = "{380, 10}";
},
{
name = top;
position = "{339, 700}";
},
{
name = topright;
position = "{586, 558}";
}
);
layerId = "3C986DA2-2E28-42A4-B05D-29F449A87569";
paths = (
{
closed = 1;
nodes = (
"496 0 LINE",
"606 110 LINE",
"606 590 LINE",
"496 700 LINE",
"180 700 LINE",
"70 590 LINE",
"70 110 LINE",
"180 0 LINE"
);
},
{
closed = 1;
nodes = (
"146 135 LINE",
"146 565 LINE",
"214 632 LINE",
"462 632 LINE",
"530 565 LINE",
"530 135 LINE",
"462 68 LINE",
"214 68 LINE"
);
}
);
width = 676;
},
{
anchors = (
{
name = bottom;
position = "{320, 0}";
},
{
name = center;
position = "{375, 350}";
},
{
name = ogonek;
position = "{397, 10}";
},
{
name = top;
position = "{426, 700}";
},
{
name = topright;
position = "{679, 558}";
}
);
background = {
paths = (
{
closed = 1;
nodes = (
"497 0 LINE",
"619 103 LINE",
"703 577 LINE",
"601 700 LINE",
"240 700 LINE",
"115 593 LINE",
"33 124 LINE",
"135 0 LINE"
);
},
{
closed = 1;
nodes = (
"176 167 LINE",
"241 533 LINE",
"301 584 LINE",
"517 584 LINE",
"559 533 LINE",
"494 167 LINE",
"434 116 LINE",
"218 116 LINE"
);
}
);
};
layerId = "1C004500-E2C5-4CA7-8B0E-089ECD41D52B";
paths = (
{
closed = 1;
nodes = (
"497 0 LINE",
"619 103 LINE",
"703 577 LINE",
"601 700 LINE",
"241 700 LINE",
"116 593 LINE",
"33 124 LINE",
"135 0 LINE"
);
},
{
closed = 1;
nodes = (
"176 167 LINE",
"242 533 LINE",
"302 584 LINE",
"517 584 LINE",
"559 533 LINE",
"494 167 LINE",
"434 116 LINE",
"218 116 LINE"
);
}
);
width = 700;
},
{
anchors = (
{
name = bottom;
position = "{302, 0}";
},
{
name = center;
position = "{357, 350}";
},
{
name = ogonek;
position = "{345, 10}";
},
{
name = top;
position = "{419, 700}";
},
{
name = topright;
position = "{640, 558}";
}
);
background = {
paths = (
{
closed = 1;
nodes = (
"459 0 LINE",
"580 103 LINE",
"665 585 LINE",
"570 700 LINE",
"254 700 LINE",
"131 595 LINE",
"46 115 LINE",
"141 0 LINE"
);
},
{
closed = 1;
nodes = (
"125 135 LINE",
"201 565 LINE",
"281 632 LINE",
"529 632 LINE",
"585 565 LINE",
"509 135 LINE",
"430 68 LINE",
"182 68 LINE"
);
}
);
};
layerId = "76B50E0D-F613-4BB6-AC9C-0F65D3239222";
paths = (
{
closed = 1;
nodes = (
"460 0 LINE",
"580 102 LINE",
"665 585 LINE",
"570 700 LINE",
"254 700 LINE",
"131 595 LINE",
"46 115 LINE",
"141 0 LINE"
);
},
{
closed = 1;
nodes = (
"125 135 LINE",
"201 565 LINE",
"281 632 LINE",
"529 632 LINE",
"585 565 LINE",
"509 135 LINE",
"430 68 LINE",
"182 68 LINE"
);
}
);
width = 676;
},
{
anchors = (
{
name = bottom;
position = "{284, 0}";
},
{
name = center;
position = "{348, 350}";
},
{
name = ogonek;
position = "{305, 10}";
},
{
name = top;
position = "{408, 700}";
},
{
name = topright;
position = "{613, 558}";
}
);
background = {
paths = (
{
closed = 1;
nodes = (
"440 0 LINE",
"552 95 LINE",
"640 596 LINE",
"555 700 LINE",
"256 700 LINE",
"143 604 LINE",
"55 104 LINE",
"140 0 LINE"
);
},
{
closed = 1;
nodes = (
"95 114 LINE",
"179 586 LINE",
"270 664 LINE",
"535 664 LINE",
"600 586 LINE",
"516 114 LINE",
"425 36 LINE",
"160 36 LINE"
);
}
);
};
layerId = "7E1D32E5-5329-438C-9451-496B813F8F3E";
paths = (
{
closed = 1;
nodes = (
"440 0 LINE",
"552 95 LINE",
"640 596 LINE",
"555 700 LINE",
"256 700 LINE",
"143 604 LINE",
"55 104 LINE",
"140 0 LINE"
);
},
{
closed = 1;
nodes = (
"95 114 LINE",
"179 586 LINE",
"270 664 LINE",
"535 664 LINE",
"600 586 LINE",
"516 114 LINE",
"425 36 LINE",
"160 36 LINE"
);
}
);
width = 659;
}
);
leftKerningGroup = O;
note = O;
rightKerningGroup = O;
rightMetricsKey = "=|";
unicode = 004F;
},
{
glyphname = Oslash;
layers = (
{
background = {
paths = (
{
closed = 1;
nodes = (
"90 -30 LINE",
"612 730 LINE",
"569 730 LINE",
"47 -30 LINE"
);
}
);
};
components = (
{
name = O;
}
);
layerId = "39D11A97-A6D9-4B52-A6F5-15D5E4373676";
paths = (
{
closed = 1;
nodes = (
"93 -30 LINE",
"610 730 LINE",
"566 730 LINE",
"49 -30 LINE"
);
}
);
width = 659;
},
{
background = {
paths = (
{
closed = 1;
nodes = (
"96 -40 LINE",
"701 740 LINE",
"592 740 LINE",
"-13 -40 LINE"
);
}
);
};
components = (
{
name = O;
}
);
layerId = "D6105F7E-CAE1-4F7B-A52E-8AA6E6082DF8";
paths = (
{
closed = 1;
nodes = (
"96 -40 LINE",
"701 740 LINE",
"592 740 LINE",
"-13 -40 LINE"
);
}
);
width = 700;
},
{
background = {
paths = (
{
closed = 1;
nodes = (
"30 -30 LINE",
"108 -30 LINE",
"648 730 LINE",
"570 730 LINE"
);
}
);
};
components = (
{
name = O;
}
);
layerId = "3C986DA2-2E28-42A4-B05D-29F449A87569";
paths = (
{
closed = 1;
nodes = (
"106 -30 LINE",
"648 730 LINE",
"570 730 LINE",
"28 -30 LINE"
);
}
);
width = 676;
},
{
background = {
paths = (
{
closed = 1;
nodes = (
"96 -40 LINE",
"701 740 LINE",
"592 740 LINE",
"-13 -40 LINE"
);
}
);
};
components = (
{
name = O;
}
);
layerId = "1C004500-E2C5-4CA7-8B0E-089ECD41D52B";
paths = (
{
closed = 1;
nodes = (
"46 -40 LINE",
"789 740 LINE",
"680 740 LINE",
"-63 -40 LINE"
);
}
);
width = 700;
},
{
background = {
paths = (
{
closed = 1;
nodes = (
"30 -30 LINE",
"108 -30 LINE",
"648 730 LINE",
"570 730 LINE"
);
}
);
};
components = (
{
name = O;
}
);
layerId = "76B50E0D-F613-4BB6-AC9C-0F65D3239222";
paths = (
{
closed = 1;
nodes = (
"58 -30 LINE",
"734 730 LINE",
"656 730 LINE",
"-20 -30 LINE"
);
}
);
width = 676;
},
{
background = {
paths = (
{
closed = 1;
nodes = (
"90 -30 LINE",
"612 730 LINE",
"569 730 LINE",
"47 -30 LINE"
);
}
);
};
components = (
{
name = O;
}
);
layerId = "7E1D32E5-5329-438C-9451-496B813F8F3E";
paths = (
{
closed = 1;
nodes = (
"45 -30 LINE",
"696 730 LINE",
"652 730 LINE",
"1 -30 LINE"
);
}
);
width = 659;
}
);
leftKerningGroup = O;
widthMetricsKey = O;
note = Oslash;
rightKerningGroup = O;
unicode = 00D8;
},
{
glyphname = OE;
layers = (
{
background = {
paths = (
{
closed = 1;
nodes = (
"461 0 LINE",
"579 118 LINE",
"579 582 LINE",
"461 700 LINE",
"180 700 LINE",
"80 600 LINE",
"80 100 LINE",
"180 0 LINE"
);
},
{
closed = 1;
nodes = (
"119 113 LINE",
"119 587 LINE",
"196 663 LINE",
"445 663 LINE",
"540 569 LINE",
"540 131 LINE",
"445 37 LINE",
"196 37 LINE"
);
},
{
closed = 1;
nodes = (
"937 0 LINE",
"937 37 LINE",
"579 37 LINE",
"579 333 LINE",
"908 333 LINE",
"908 370 LINE",
"579 370 LINE",
"579 663 LINE",
"937 663 LINE",
"937 700 LINE",
"540 700 LINE",
"540 602 LINE",
"540 594 LINE",
"540 104 LINE",
"540 98 LINE",
"540 0 LINE"
);
}
);
};
layerId = "39D11A97-A6D9-4B52-A6F5-15D5E4373676";
paths = (
{
closed = 1;
nodes = (
"461 0 LINE",
"579 118 LINE",
"579 582 LINE",
"461 700 LINE",
"180 700 LINE",
"80 600 LINE",
"80 100 LINE",
"180 0 LINE"
);
},
{
closed = 1;
nodes = (
"119 114 LINE",
"119 586 LINE",
"197 664 LINE",
"445 664 LINE",
"540 569 LINE",
"540 131 LINE",
"445 36 LINE",
"197 36 LINE"
);
},
{
closed = 1;
nodes = (
"937 0 LINE",
"937 36 LINE",
"579 36 LINE",
"579 333 LINE",
"908 333 LINE",
"908 369 LINE",
"579 369 LINE",
"579 664 LINE",
"937 664 LINE",
"937 700 LINE",
"540 700 LINE",
"540 602 LINE",
"540 594 LINE",
"540 104 LINE",
"540 98 LINE",
"540 0 LINE"
);
}
);
width = 997;
},
{
background = {
paths = (
{
closed = 1;
nodes = (
"485 0 LINE",
"635 150 LINE",
"635 554 LINE",
"489 700 LINE",
"170 700 LINE",
"55 585 LINE",
"55 115 LINE",
"170 0 LINE"
);
},
{
closed = 1;
nodes = (
"191 167 LINE",
"191 533 LINE",
"242 584 LINE",
"458 584 LINE",
"509 533 LINE",
"509 167 LINE",
"458 116 LINE",
"242 116 LINE"
);
},
{
closed = 1;
nodes = (
"1021 0 LINE",
"1021 118 LINE",
"645 118 LINE",
"645 294 LINE",
"992 294 LINE",
"992 410 LINE",
"645 410 LINE",
"645 582 LINE",
"1021 582 LINE",
"1021 700 LINE",
"549 700 LINE",
"549 633 LINE",
"519 611 LINE",
"519 115 LINE",
"549 85 LINE",
"549 0 LINE"
);
}
);
};
layerId = "D6105F7E-CAE1-4F7B-A52E-8AA6E6082DF8";
paths = (
{
closed = 1;
nodes = (
"485 0 LINE",
"635 150 LINE",
"635 554 LINE",
"489 700 LINE",
"170 700 LINE",
"55 585 LINE",
"55 115 LINE",
"170 0 LINE"
);
},
{
closed = 1;
nodes = (
"191 167 LINE",
"191 533 LINE",
"242 584 LINE",
"458 584 LINE",
"509 533 LINE",
"509 167 LINE",
"458 116 LINE",
"242 116 LINE"
);
},
{
closed = 1;
nodes = (
"1021 0 LINE",
"1021 118 LINE",
"645 118 LINE",
"645 294 LINE",
"992 294 LINE",
"992 410 LINE",
"645 410 LINE",
"645 582 LINE",
"1021 582 LINE",
"1021 700 LINE",
"549 700 LINE",
"549 633 LINE",
"519 611 LINE",
"519 115 LINE",
"549 85 LINE",
"549 0 LINE"
);
}
);
width = 1056;
},
{
layerId = "3C986DA2-2E28-42A4-B05D-29F449A87569";
paths = (
{
closed = 1;
nodes = (
"476 0 LINE",
"606 130 LINE",
"606 570 LINE",
"476 700 LINE",
"180 700 LINE",
"70 590 LINE",
"70 110 LINE",
"180 0 LINE"
);
},
{
closed = 1;
nodes = (
"146 135 LINE",
"146 565 LINE",
"214 632 LINE",
"452 632 LINE",
"530 555 LINE",
"530 145 LINE",
"452 68 LINE",
"214 68 LINE"
);
},
{
closed = 1;
nodes = (
"964 0 LINE",
"964 68 LINE",
"606 68 LINE",
"606 316 LINE",
"935 316 LINE",
"935 384 LINE",
"606 384 LINE",
"606 632 LINE",
"964 632 LINE",
"964 700 LINE",
"540 700 LINE",
"540 603 LINE",
"530 585 LINE",
"530 88 LINE",
"540 77 LINE",
"540 0 LINE"
);
}
);
width = 1014;
},
{
background = {
paths = (
{
closed = 1;
nodes = (
"445 0 LINE",
"617 146 LINE",
"688 554 LINE",
"568 700 LINE",
"241 700 LINE",
"116 593 LINE",
"33 124 LINE",
"135 0 LINE"
);
},
{
closed = 1;
nodes = (
"176 167 LINE",
"242 533 LINE",
"302 584 LINE",
"517 584 LINE",
"559 533 LINE",
"494 167 LINE",
"434 116 LINE",
"218 116 LINE"
);
},
{
closed = 1;
nodes = (
"976 0 LINE",
"997 118 LINE",
"622 118 LINE",
"653 294 LINE",
"999 294 LINE",
"1019 410 LINE",
"673 410 LINE",
"703 582 LINE",
"1078 582 LINE",
"1099 700 LINE",
"628 700 LINE",
"616 633 LINE",
"583 611 LINE",
"495 115 LINE",
"520 85 LINE",
"505 0 LINE"
);
}
);
};
layerId = "1C004500-E2C5-4CA7-8B0E-089ECD41D52B";
paths = (
{
closed = 1;
nodes = (
"441 0 LINE",
"618 150 LINE",
"688 554 LINE",
"568 700 LINE",
"241 700 LINE",
"116 593 LINE",
"33 124 LINE",
"135 0 LINE"
);
},
{
closed = 1;
nodes = (
"176 167 LINE",
"242 533 LINE",
"302 584 LINE",
"517 584 LINE",
"559 533 LINE",
"494 167 LINE",
"434 116 LINE",
"218 116 LINE"
);
},
{
closed = 1;
nodes = (
"976 0 LINE",
"997 118 LINE",
"622 118 LINE",
"653 294 LINE",
"999 294 LINE",
"1019 410 LINE",
"673 410 LINE",
"703 582 LINE",
"1078 582 LINE",
"1099 700 LINE",
"628 700 LINE",
"616 633 LINE",
"583 611 LINE",
"495 115 LINE",
"520 85 LINE",
"505 0 LINE"
);
}
);
width = 1055;
},
{
background = {
paths = (
{
closed = 1;
nodes = (
"432 0 LINE",
"585 130 LINE",
"662 570 LINE",
"555 700 LINE",
"257 700 LINE",
"128 590 LINE",
"43 110 LINE",
"134 0 LINE"
);
},
{
closed = 1;
nodes = (
"123 135 LINE",
"199 565 LINE",
"279 632 LINE",
"519 632 LINE",
"583 555 LINE",
"511 145 LINE",
"420 68 LINE",
"180 68 LINE"
);
},
{
closed = 1;
nodes = (
"920 0 LINE",
"932 68 LINE",
"574 68 LINE",
"617 316 LINE",
"946 316 LINE",
"958 384 LINE",
"629 384 LINE",
"673 632 LINE",
"1031 632 LINE",
"1043 700 LINE",
"619 700 LINE",
"602 603 LINE",
"589 585 LINE",
"501 88 LINE",
"509 77 LINE",
"496 0 LINE"
);
}
);
};
layerId = "76B50E0D-F613-4BB6-AC9C-0F65D3239222";
paths = (
{
closed = 1;
nodes = (
"432 0 LINE",
"585 130 LINE",
"662 570 LINE",
"555 700 LINE",
"254 700 LINE",
"131 595 LINE",
"46 115 LINE",
"141 0 LINE"
);
},
{
closed = 1;
nodes = (
"125 135 LINE",
"201 565 LINE",
"281 632 LINE",
"519 632 LINE",
"583 555 LINE",
"511 145 LINE",
"420 68 LINE",
"182 68 LINE"
);
},
{
closed = 1;
nodes = (
"920 0 LINE",
"932 68 LINE",
"574 68 LINE",
"617 316 LINE",
"946 316 LINE",
"958 384 LINE",
"629 384 LINE",
"673 632 LINE",
"1031 632 LINE",
"1043 700 LINE",
"619 700 LINE",
"602 603 LINE",
"589 585 LINE",
"501 88 LINE",
"509 77 LINE",
"496 0 LINE"
);
}
);
width = 1014;
},
{
background = {
paths = (
{
closed = 1;
nodes = (
"421 0 LINE",
"556 115 LINE",
"637 579 LINE",
"537 700 LINE",
"256 700 LINE",
"143 604 LINE",
"55 104 LINE",
"140 0 LINE"
);
},
{
closed = 1;
nodes = (
"95 114 LINE",
"179 586 LINE",
"270 664 LINE",
"519 664 LINE",
"598 569 LINE",
"520 131 LINE",
"409 36 LINE",
"160 36 LINE"
);
},
{
closed = 1;
nodes = (
"894 0 LINE",
"901 36 LINE",
"543 36 LINE",
"595 333 LINE",
"924 333 LINE",
"930 369 LINE",
"601 369 LINE",
"653 664 LINE",
"1011 664 LINE",
"1018 700 LINE",
"621 700 LINE",
"604 602 LINE",
"602 594 LINE",
"516 104 LINE",
"515 98 LINE",
"497 0 LINE"
);
}
);
};
layerId = "7E1D32E5-5329-438C-9451-496B813F8F3E";
paths = (
{
closed = 1;
nodes = (
"421 0 LINE",
"556 115 LINE",
"637 579 LINE",
"537 700 LINE",
"256 700 LINE",
"143 604 LINE",
"55 104 LINE",
"140 0 LINE"
);
},
{
closed = 1;
nodes = (
"95 114 LINE",
"179 586 LINE",
"270 664 LINE",
"519 664 LINE",
"598 569 LINE",
"520 131 LINE",
"409 36 LINE",
"160 36 LINE"
);
},
{
closed = 1;
nodes = (
"892 0 LINE",
"899 36 LINE",
"543 36 LINE",
"595 333 LINE",
"922 333 LINE",
"928 369 LINE",
"601 369 LINE",
"653 664 LINE",
"1009 664 LINE",
"1016 700 LINE",
"621 700 LINE",
"604 602 LINE",
"602 594 LINE",
"516 104 LINE",
"515 98 LINE",
"497 0 LINE"
);
}
);
width = 997;
}
);
leftKerningGroup = O;
leftMetricsKey = O;
note = OE;
rightKerningGroup = E;
rightMetricsKey = E;
unicode = 0152;
},
{
glyphname = P;
layers = (
{
anchors = (
{
name = bottom;
position = "{303, 0}";
},
{
name = top;
position = "{303, 700}";
}
);
background = {
paths = (
{
closed = 1;
nodes = (
"129 0 LINE",
"129 322 LINE",
"462 322 LINE",
"545 405 LINE",
"545 618 LINE",
"463 700 LINE",
"90 700 LINE",
"90 0 LINE"
);
},
{
closed = 1;
nodes = (
"129 664 LINE",
"447 664 LINE",
"506 605 LINE",
"506 417 LINE",
"447 358 LINE",
"129 358 LINE"
);
}
);
};
layerId = "39D11A97-A6D9-4B52-A6F5-15D5E4373676";
paths = (
{
closed = 1;
nodes = (
"129 0 LINE",
"129 322 LINE",
"462 322 LINE",
"545 405 LINE",
"545 618 LINE",
"463 700 LINE",
"90 700 LINE",
"90 0 LINE"
);
},
{
closed = 1;
nodes = (
"129 664 LINE",
"447 664 LINE",
"506 605 LINE",
"506 417 LINE",
"447 358 LINE",
"129 358 LINE"
);
}
);
width = 605;
},
{
anchors = (
{
name = bottom;
position = "{323, 0}";
},
{
name = top;
position = "{323, 700}";
}
);
background = {
paths = (
{
closed = 1;
nodes = (
"216 0 LINE",
"216 238 LINE",
"518 238 LINE",
"626 347 LINE",
"626 592 LINE",
"519 700 LINE",
"80 700 LINE",
"80 0 LINE"
);
},
{
closed = 1;
nodes = (
"216 584 LINE",
"457 584 LINE",
"492 549 LINE",
"492 389 LINE",
"457 354 LINE",
"216 354 LINE"
);
}
);
};
layerId = "D6105F7E-CAE1-4F7B-A52E-8AA6E6082DF8";
paths = (
{
closed = 1;
nodes = (
"201 0 LINE",
"201 238 LINE",
"503 238 LINE",
"611 347 LINE",
"611 592 LINE",
"504 700 LINE",
"65 700 LINE",
"65 0 LINE"
);
},
{
closed = 1;
nodes = (
"201 586 LINE",
"442 586 LINE",
"477 551 LINE",
"477 387 LINE",
"442 352 LINE",
"201 352 LINE"
);
}
);
width = 646;
},
{
anchors = (
{
name = bottom;
position = "{311, 0}";
},
{
name = top;
position = "{311, 700}";
}
);
layerId = "3C986DA2-2E28-42A4-B05D-29F449A87569";
paths = (
{
closed = 1;
nodes = (
"156 0 LINE",
"156 290 LINE",
"479 290 LINE",
"572 383 LINE",
"572 608 LINE",
"480 700 LINE",
"80 700 LINE",
"80 0 LINE"
);
},
{
closed = 1;
nodes = (
"156 634 LINE",
"447 634 LINE",
"497 585 LINE",
"497 405 LINE",
"447 356 LINE",
"156 356 LINE"
);
}
);
width = 622;
},
{
anchors = (
{
name = bottom;
position = "{280, 0}";
},
{
name = top;
position = "{403, 700}";
}
);
background = {
paths = (
{
closed = 1;
nodes = (
"158 0 LINE",
"200 238 LINE",
"502 238 LINE",
"629 347 LINE",
"672 592 LINE",
"584 700 LINE",
"145 700 LINE",
"22 0 LINE"
);
},
{
closed = 1;
nodes = (
"261 586 LINE",
"502 586 LINE",
"531 551 LINE",
"502 387 LINE",
"461 352 LINE",
"220 352 LINE"
);
}
);
};
layerId = "1C004500-E2C5-4CA7-8B0E-089ECD41D52B";
paths = (
{
closed = 1;
nodes = (
"158 0 LINE",
"200 238 LINE",
"511 238 LINE",
"626 336 LINE",
"670 584 LINE",
"575 700 LINE",
"145 700 LINE",
"22 0 LINE"
);
},
{
closed = 1;
nodes = (
"261 586 LINE",
"501 586 LINE",
"530 551 LINE",
"501 387 LINE",
"460 352 LINE",
"220 352 LINE"
);
}
);
width = 646;
},
{
anchors = (
{
name = bottom;
position = "{268, 0}";
},
{
name = top;
position = "{391, 700}";
}
);
background = {
paths = (
{
closed = 1;
nodes = (
"113 0 LINE",
"164 290 LINE",
"493 290 LINE",
"594 376 LINE",
"634 604 LINE",
"554 700 LINE",
"160 700 LINE",
"37 0 LINE"
);
},
{
closed = 1;
nodes = (
"225 634 LINE",
"515 634 LINE",
"556 585 LINE",
"524 405 LINE",
"465 356 LINE",
"176 356 LINE"
);
}
);
};
layerId = "76B50E0D-F613-4BB6-AC9C-0F65D3239222";
paths = (
{
closed = 1;
nodes = (
"113 0 LINE",
"164 290 LINE",
"493 290 LINE",
"594 376 LINE",
"634 604 LINE",
"554 700 LINE",
"160 700 LINE",
"37 0 LINE"
);
},
{
closed = 1;
nodes = (
"225 634 LINE",
"515 634 LINE",
"556 585 LINE",
"524 405 LINE",
"465 356 LINE",
"176 356 LINE"
);
}
);
width = 622;
},
{
anchors = (
{
name = bottom;
position = "{260, 0}";
},
{
name = top;
position = "{383, 700}";
}
);
background = {
paths = (
{
closed = 1;
nodes = (
"86 0 LINE",
"143 322 LINE",
"476 322 LINE",
"573 405 LINE",
"611 618 LINE",
"543 700 LINE",
"170 700 LINE",
"47 0 LINE"
);
},
{
closed = 1;
nodes = (
"203 664 LINE",
"521 664 LINE",
"570 605 LINE",
"537 417 LINE",
"467 358 LINE",
"149 358 LINE"
);
}
);
};
layerId = "7E1D32E5-5329-438C-9451-496B813F8F3E";
paths = (
{
closed = 1;
nodes = (
"86 0 LINE",
"143 322 LINE",
"480 322 LINE",
"572 400 LINE",
"609 614 LINE",
"538 700 LINE",
"170 700 LINE",
"47 0 LINE"
);
},
{
closed = 1;
nodes = (
"203 664 LINE",
"520 664 LINE",
"569 605 LINE",
"537 417 LINE",
"467 358 LINE",
"149 358 LINE"
);
}
);
width = 605;
}
);
note = P;
unicode = 0050;
},
{
glyphname = Thorn;
layers = (
{
anchors = (
{
name = bottom;
position = "{303, 0}";
},
{
name = top;
position = "{303, 700}";
}
);
background = {
paths = (
{
closed = 1;
nodes = (
"129 0 LINE",
"129 161 LINE",
"462 161 LINE",
"545 244 LINE",
"545 457 LINE",
"463 539 LINE",
"90 539 LINE",
"90 0 LINE"
);
},
{
closed = 1;
nodes = (
"129 502 LINE",
"447 502 LINE",
"506 444 LINE",
"506 256 LINE",
"447 198 LINE",
"129 198 LINE"
);
},
{
closed = 1;
nodes = (
"129 495 LINE",
"129 700 LINE",
"90 700 LINE",
"90 495 LINE"
);
}
);
};
layerId = "39D11A97-A6D9-4B52-A6F5-15D5E4373676";
paths = (
{
closed = 1;
nodes = (
"129 0 LINE",
"129 161 LINE",
"462 161 LINE",
"545 244 LINE",
"545 457 LINE",
"463 539 LINE",
"90 539 LINE",
"90 0 LINE"
);
},
{
closed = 1;
nodes = (
"129 503 LINE",
"447 503 LINE",
"506 444 LINE",
"506 256 LINE",
"447 197 LINE",
"129 197 LINE"
);
},
{
closed = 1;
nodes = (
"129 495 LINE",
"129 700 LINE",
"90 700 LINE",
"90 495 LINE"
);
}
);
width = 605;
},
{
anchors = (
{
name = bottom;
position = "{323, 0}";
},
{
name = top;
position = "{323, 700}";
}
);
background = {
paths = (
{
closed = 1;
nodes = (
"201 0 LINE",
"201 119 LINE",
"508 119 LINE",
"617 228 LINE",
"617 473 LINE",
"509 581 LINE",
"65 581 LINE",
"65 0 LINE"
);
},
{
closed = 1;
nodes = (
"201 465 LINE",
"447 465 LINE",
"483 430 LINE",
"483 270 LINE",
"447 235 LINE",
"201 235 LINE"
);
},
{
closed = 1;
nodes = (
"201 453 LINE",
"201 700 LINE",
"65 700 LINE",
"65 453 LINE"
);
}
);
};
layerId = "D6105F7E-CAE1-4F7B-A52E-8AA6E6082DF8";
paths = (
{
closed = 1;
nodes = (
"201 0 LINE",
"201 119 LINE",
"503 119 LINE",
"611 228 LINE",
"611 473 LINE",
"504 581 LINE",
"65 581 LINE",
"65 0 LINE"
);
},
{
closed = 1;
nodes = (
"201 467 LINE",
"442 467 LINE",
"477 432 LINE",
"477 268 LINE",
"442 233 LINE",
"201 233 LINE"
);
},
{
closed = 1;
nodes = (
"201 453 LINE",
"201 700 LINE",
"65 700 LINE",
"65 453 LINE"
);
}
);
width = 646;
},
{
anchors = (
{
name = bottom;
position = "{311, 0}";
},
{
name = top;
position = "{311, 700}";
}
);
layerId = "3C986DA2-2E28-42A4-B05D-29F449A87569";
paths = (
{
closed = 1;
nodes = (
"156 0 LINE",
"156 145 LINE",
"479 145 LINE",
"572 238 LINE",
"572 463 LINE",
"480 555 LINE",
"80 555 LINE",
"80 0 LINE"
);
},
{
closed = 1;
nodes = (
"156 489 LINE",
"448 489 LINE",
"498 440 LINE",
"498 260 LINE",
"448 211 LINE",
"156 211 LINE"
);
},
{
closed = 1;
nodes = (
"156 479 LINE",
"156 700 LINE",
"80 700 LINE",
"80 479 LINE"
);
}
);
width = 622;
},
{
anchors = (
{
name = bottom;
position = "{279, 0}";
},
{
name = top;
position = "{403, 700}";
}
);
background = {
paths = (
{
closed = 1;
nodes = (
"158 0 LINE",
"179 119 LINE",
"481 119 LINE",
"608 228 LINE",
"651 473 LINE",
"563 581 LINE",
"124 581 LINE",
"22 0 LINE"
);
},
{
closed = 1;
nodes = (
"240 467 LINE",
"481 467 LINE",
"510 432 LINE",
"481 268 LINE",
"440 233 LINE",
"199 233 LINE"
);
},
{
closed = 1;
nodes = (
"238 453 LINE",
"281 700 LINE",
"145 700 LINE",
"102 453 LINE"
);
}
);
};
layerId = "1C004500-E2C5-4CA7-8B0E-089ECD41D52B";
paths = (
{
closed = 1;
nodes = (
"157 0 LINE",
"179 119 LINE",
"490 119 LINE",
"605 217 LINE",
"649 465 LINE",
"554 581 LINE",
"124 581 LINE",
"21 0 LINE"
);
},
{
closed = 1;
nodes = (
"240 467 LINE",
"480 467 LINE",
"509 432 LINE",
"480 268 LINE",
"439 233 LINE",
"199 233 LINE"
);
},
{
closed = 1;
nodes = (
"238 453 LINE",
"281 700 LINE",
"145 700 LINE",
"102 453 LINE"
);
}
);
width = 646;
},
{
anchors = (
{
name = bottom;
position = "{267, 0}";
},
{
name = top;
position = "{391, 700}";
}
);
background = {
paths = (
{
closed = 1;
nodes = (
"113 0 LINE",
"139 145 LINE",
"460 145 LINE",
"570 238 LINE",
"609 459 LINE",
"529 555 LINE",
"135 555 LINE",
"37 0 LINE"
);
},
{
closed = 1;
nodes = (
"199 489 LINE",
"490 489 LINE",
"531 440 LINE",
"499 260 LINE",
"440 211 LINE",
"150 211 LINE"
);
},
{
closed = 1;
nodes = (
"197 479 LINE",
"236 700 LINE",
"160 700 LINE",
"121 479 LINE"
);
}
);
};
layerId = "76B50E0D-F613-4BB6-AC9C-0F65D3239222";
paths = (
{
closed = 1;
nodes = (
"113 0 LINE",
"139 145 LINE",
"467 145 LINE",
"569 231 LINE",
"609 459 LINE",
"529 555 LINE",
"135 555 LINE",
"37 0 LINE"
);
},
{
closed = 1;
nodes = (
"199 489 LINE",
"490 489 LINE",
"531 440 LINE",
"499 260 LINE",
"440 211 LINE",
"150 211 LINE"
);
},
{
closed = 1;
nodes = (
"197 479 LINE",
"236 700 LINE",
"160 700 LINE",
"121 479 LINE"
);
}
);
width = 622;
},
{
anchors = (
{
name = bottom;
position = "{259, 0}";
},
{
name = top;
position = "{383, 700}";
}
);
background = {
paths = (
{
closed = 1;
nodes = (
"86 0 LINE",
"114 161 LINE",
"447 161 LINE",
"545 244 LINE",
"583 457 LINE",
"515 539 LINE",
"142 539 LINE",
"47 0 LINE"
);
},
{
closed = 1;
nodes = (
"175 503 LINE",
"493 503 LINE",
"541 444 LINE",
"508 256 LINE",
"439 197 LINE",
"121 197 LINE"
);
},
{
closed = 1;
nodes = (
"173 495 LINE",
"209 700 LINE",
"170 700 LINE",
"134 495 LINE"
);
}
);
};
layerId = "7E1D32E5-5329-438C-9451-496B813F8F3E";
paths = (
{
closed = 1;
nodes = (
"86 0 LINE",
"115 161 LINE",
"452 161 LINE",
"544 239 LINE",
"581 453 LINE",
"510 539 LINE",
"142 539 LINE",
"47 0 LINE"
);
},
{
closed = 1;
nodes = (
"175 503 LINE",
"492 503 LINE",
"541 444 LINE",
"509 256 LINE",
"439 197 LINE",
"121 197 LINE"
);
},
{
closed = 1;
nodes = (
"173 495 LINE",
"209 700 LINE",
"170 700 LINE",
"134 495 LINE"
);
}
);
width = 606;
}
);
leftMetricsKey = P;
note = Thorn;
rightMetricsKey = P;
unicode = 00DE;
},
{
glyphname = Q;
layers = (
{
anchors = (
{
name = bottom;
position = "{324, 0}";
},
{
name = top;
position = "{324, 700}";
}
);
background = {
anchors = (
{
name = bottom;
position = "{324, 0}";
},
{
name = top;
position = "{324, 700}";
}
);
components = (
{
locked = 1;
name = O;
}
);
paths = (
{
closed = 1;
nodes = (
"581 -71 LINE",
"483 27 LINE",
"458 0 LINE",
"556 -97 LINE"
);
}
);
};
components = (
{
locked = 1;
name = O;
}
);
layerId = "39D11A97-A6D9-4B52-A6F5-15D5E4373676";
paths = (
{
closed = 1;
nodes = (
"581 -71 LINE",
"483 27 LINE",
"458 0 LINE",
"556 -97 LINE"
);
}
);
width = 659;
},
{
anchors = (
{
name = bottom;
position = "{353, 0}";
},
{
name = top;
position = "{353, 700}";
}
);
background = {
paths = (
{
closed = 1;
nodes = (
"670 -56 LINE",
"514 100 LINE",
"446 0 LINE",
"585 -141 LINE"
);
}
);
};
components = (
{
locked = 1;
name = O;
}
);
layerId = "D6105F7E-CAE1-4F7B-A52E-8AA6E6082DF8";
paths = (
{
closed = 1;
nodes = (
"666 -56 LINE",
"514 100 LINE",
"441 0 LINE",
"582 -140 LINE"
);
}
);
width = 700;
},
{
anchors = (
{
name = bottom;
position = "{344, 0}";
},
{
name = top;
position = "{344, 700}";
}
);
background = {
paths = (
{
closed = 1;
nodes = (
"628 -58 LINE",
"515 54 LINE",
"478 0 LINE",
"582 -104 LINE"
);
}
);
};
components = (
{
locked = 1;
name = O;
}
);
layerId = "3C986DA2-2E28-42A4-B05D-29F449A87569";
paths = (
{
closed = 1;
nodes = (
"630 -62 LINE",
"515 54 LINE",
"478 0 LINE",
"584 -108 LINE"
);
}
);
width = 676;
},
{
anchors = (
{
name = bottom;
position = "{310, 0}";
},
{
name = top;
position = "{433, 700}";
}
);
background = {
paths = (
{
closed = 1;
nodes = (
"613 -54 LINE",
"489 100 LINE",
"398 0 LINE",
"515 -138 LINE"
);
}
);
};
components = (
{
locked = 1;
name = O;
}
);
layerId = "1C004500-E2C5-4CA7-8B0E-089ECD41D52B";
paths = (
{
closed = 1;
nodes = (
"615 -56 LINE",
"489 100 LINE",
"398 0 LINE",
"517 -140 LINE"
);
}
);
width = 700;
},
{
anchors = (
{
name = bottom;
position = "{301, 0}";
},
{
name = top;
position = "{424, 700}";
}
);
background = {
paths = (
{
closed = 1;
nodes = (
"576 -60 LINE",
"482 54 LINE",
"435 0 LINE",
"522 -106 LINE"
);
}
);
};
components = (
{
locked = 1;
name = O;
}
);
layerId = "76B50E0D-F613-4BB6-AC9C-0F65D3239222";
paths = (
{
closed = 1;
nodes = (
"578 -62 LINE",
"482 54 LINE",
"433 1 LINE",
"524 -108 LINE"
);
}
);
width = 676;
},
{
anchors = (
{
name = bottom;
position = "{281, 0}";
},
{
name = top;
position = "{404, 700}";
}
);
background = {
paths = (
{
closed = 1;
nodes = (
"525 -71 LINE",
"445 27 LINE",
"415 0 LINE",
"496 -97 LINE"
);
}
);
};
components = (
{
locked = 1;
name = O;
}
);
layerId = "7E1D32E5-5329-438C-9451-496B813F8F3E";
paths = (
{
closed = 1;
nodes = (
"527 -73 LINE",
"445 27 LINE",
"415 0 LINE",
"498 -99 LINE"
);
}
);
width = 659;
}
);
leftKerningGroup = O;
leftMetricsKey = O;
widthMetricsKey = O;
note = Q;
rightKerningGroup = O;
unicode = 0051;
},
{
glyphname = R;
layers = (
{
anchors = (
{
name = bottom;
position = "{314, 0}";
},
{
name = top;
position = "{311, 700}";
}
);
background = {
paths = (
{
closed = 1;
nodes = (
"129 0 LINE",
"129 312 LINE",
"462 312 LINE",
"545 395 LINE",
"545 618 LINE",
"463 700 LINE",
"90 700 LINE",
"90 0 LINE"
);
},
{
closed = 1;
nodes = (
"549 0 LINE",
"549 233 LINE",
"462 328 LINE",
"422 318 LINE",
"510 223 LINE",
"510 0 LINE"
);
},
{
closed = 1;
nodes = (
"129 663 LINE",
"447 663 LINE",
"506 605 LINE",
"506 407 LINE",
"447 349 LINE",
"129 349 LINE"
);
}
);
};
layerId = "39D11A97-A6D9-4B52-A6F5-15D5E4373676";
paths = (
{
closed = 1;
nodes = (
"129 0 LINE",
"129 312 LINE",
"462 312 LINE",
"545 395 LINE",
"545 618 LINE",
"463 700 LINE",
"90 700 LINE",
"90 0 LINE"
);
},
{
closed = 1;
nodes = (
"549 0 LINE",
"549 233 LINE",
"462 328 LINE",
"422 318 LINE",
"510 223 LINE",
"510 0 LINE"
);
},
{
closed = 1;
nodes = (
"129 664 LINE",
"447 664 LINE",
"506 605 LINE",
"506 407 LINE",
"447 348 LINE",
"129 348 LINE"
);
}
);
width = 634;
},
{
anchors = (
{
name = bottom;
position = "{334, 0}";
},
{
name = top;
position = "{329, 700}";
}
);
background = {
paths = (
{
closed = 1;
nodes = (
"216 0 LINE",
"216 268 LINE",
"515 268 LINE",
"626 380 LINE",
"626 592 LINE",
"519 700 LINE",
"80 700 LINE",
"80 0 LINE"
);
},
{
closed = 1;
nodes = (
"630 0 LINE",
"630 232 LINE",
"490 385 LINE",
"387 320 LINE",
"494 201 LINE",
"494 0 LINE"
);
},
{
closed = 1;
nodes = (
"216 584 LINE",
"457 584 LINE",
"492 549 LINE",
"492 417 LINE",
"457 382 LINE",
"216 382 LINE"
);
}
);
};
layerId = "D6105F7E-CAE1-4F7B-A52E-8AA6E6082DF8";
paths = (
{
closed = 1;
nodes = (
"201 0 LINE",
"201 268 LINE",
"500 268 LINE",
"611 380 LINE",
"611 592 LINE",
"504 700 LINE",
"65 700 LINE",
"65 0 LINE"
);
},
{
closed = 1;
nodes = (
"615 0 LINE",
"615 232 LINE",
"475 385 LINE",
"372 320 LINE",
"479 201 LINE",
"479 0 LINE"
);
},
{
closed = 1;
nodes = (
"201 586 LINE",
"442 586 LINE",
"477 551 LINE",
"477 415 LINE",
"442 380 LINE",
"201 380 LINE"
);
}
);
width = 675;
},
{
anchors = (
{
name = bottom;
position = "{328, 0}";
},
{
name = top;
position = "{314, 700}";
}
);
layerId = "3C986DA2-2E28-42A4-B05D-29F449A87569";
paths = (
{
closed = 1;
nodes = (
"156 0 LINE",
"156 294 LINE",
"479 294 LINE",
"572 387 LINE",
"572 608 LINE",
"480 700 LINE",
"80 700 LINE",
"80 0 LINE"
);
},
{
closed = 1;
nodes = (
"576 0 LINE",
"576 214 LINE",
"450 350 LINE",
"384 315 LINE",
"500 193 LINE",
"500 0 LINE"
);
},
{
closed = 1;
nodes = (
"156 634 LINE",
"447 634 LINE",
"497 585 LINE",
"497 409 LINE",
"447 360 LINE",
"156 360 LINE"
);
}
);
width = 651;
},
{
anchors = (
{
name = bottom;
position = "{311, 0}";
},
{
name = top;
position = "{404, 700}";
}
);
background = {
paths = (
{
closed = 1;
nodes = (
"158 0 LINE",
"205 268 LINE",
"512 268 LINE",
"634 372 LINE",
"671 584 LINE",
"576 700 LINE",
"145 700 LINE",
"22 0 LINE"
);
},
{
closed = 1;
nodes = (
"572 0 LINE",
"613 232 LINE",
"500 385 LINE",
"391 320 LINE",
"472 207 LINE",
"436 0 LINE"
);
},
{
closed = 1;
nodes = (
"261 586 LINE",
"502 586 LINE",
"531 551 LINE",
"507 415 LINE",
"466 380 LINE",
"225 380 LINE"
);
}
);
};
layerId = "1C004500-E2C5-4CA7-8B0E-089ECD41D52B";
paths = (
{
closed = 1;
nodes = (
"158 0 LINE",
"205 268 LINE",
"511 268 LINE",
"633 372 LINE",
"670 584 LINE",
"575 700 LINE",
"145 700 LINE",
"22 0 LINE"
);
},
{
closed = 1;
nodes = (
"571 0 LINE",
"612 232 LINE",
"499 385 LINE",
"390 320 LINE",
"471 207 LINE",
"435 0 LINE"
);
},
{
closed = 1;
nodes = (
"261 586 LINE",
"501 586 LINE",
"530 551 LINE",
"506 415 LINE",
"465 380 LINE",
"225 380 LINE"
);
}
);
width = 675;
},
{
anchors = (
{
name = bottom;
position = "{285, 0}";
},
{
name = top;
position = "{394, 700}";
}
);
background = {
paths = (
{
closed = 1;
nodes = (
"113 0 LINE",
"165 294 LINE",
"488 294 LINE",
"597 387 LINE",
"635 604 LINE",
"555 700 LINE",
"160 700 LINE",
"37 0 LINE"
);
},
{
closed = 1;
nodes = (
"533 0 LINE",
"571 214 LINE",
"469 350 LINE",
"399 324 LINE",
"493 200 LINE",
"457 0 LINE"
);
},
{
closed = 1;
nodes = (
"225 634 LINE",
"516 634 LINE",
"557 585 LINE",
"526 409 LINE",
"467 360 LINE",
"176 360 LINE"
);
}
);
};
layerId = "76B50E0D-F613-4BB6-AC9C-0F65D3239222";
paths = (
{
closed = 1;
nodes = (
"113 0 LINE",
"165 294 LINE",
"487 294 LINE",
"596 387 LINE",
"634 604 LINE",
"554 700 LINE",
"160 700 LINE",
"37 0 LINE"
);
},
{
closed = 1;
nodes = (
"532 0 LINE",
"570 214 LINE",
"468 350 LINE",
"398 324 LINE",
"492 200 LINE",
"456 0 LINE"
);
},
{
closed = 1;
nodes = (
"225 634 LINE",
"515 634 LINE",
"556 585 LINE",
"525 409 LINE",
"466 360 LINE",
"176 360 LINE"
);
}
);
width = 651;
},
{
anchors = (
{
name = bottom;
position = "{271, 0}";
},
{
name = top;
position = "{391, 700}";
}
);
background = {
paths = (
{
closed = 1;
nodes = (
"86 0 LINE",
"141 312 LINE",
"478 312 LINE",
"571 391 LINE",
"610 614 LINE",
"538 700 LINE",
"170 700 LINE",
"47 0 LINE"
);
},
{
closed = 1;
nodes = (
"506 0 LINE",
"547 233 LINE",
"477 328 LINE",
"438 318 LINE",
"506 226 LINE",
"467 0 LINE"
);
},
{
closed = 1;
nodes = (
"203 664 LINE",
"521 664 LINE",
"570 605 LINE",
"535 407 LINE",
"465 348 LINE",
"147 348 LINE"
);
}
);
};
layerId = "7E1D32E5-5329-438C-9451-496B813F8F3E";
paths = (
{
closed = 1;
nodes = (
"86 0 LINE",
"141 312 LINE",
"477 312 LINE",
"570 391 LINE",
"609 614 LINE",
"537 700 LINE",
"170 700 LINE",
"47 0 LINE"
);
},
{
closed = 1;
nodes = (
"505 0 LINE",
"546 233 LINE",
"476 328 LINE",
"437 318 LINE",
"505 226 LINE",
"466 0 LINE"
);
},
{
closed = 1;
nodes = (
"203 664 LINE",
"520 664 LINE",
"569 605 LINE",
"534 407 LINE",
"464 348 LINE",
"147 348 LINE"
);
}
);
width = 634;
}
);
note = R;
rightKerningGroup = R;
unicode = 0052;
},
{
glyphname = S;
layers = (
{
anchors = (
{
name = bottom;
position = "{307, 0}";
},
{
name = top;
position = "{297, 700}";
}
);
background = {
anchors = (
{
name = bottom;
position = "{301, 0}";
},
{
name = top;
position = "{297, 700}";
}
);
paths = (
{
closed = 1;
nodes = (
"442 0 LINE",
"526 84 LINE",
"526 296 LINE",
"444 378 LINE",
"176 378 LINE",
"116 437 LINE",
"116 604 LINE",
"176 663 LINE",
"419 663 LINE",
"479 604 LINE",
"479 575 LINE",
"518 575 LINE",
"518 618 LINE",
"436 700 LINE",
"159 700 LINE",
"77 618 LINE",
"77 423 LINE",
"159 341 LINE",
"427 341 LINE",
"487 282 LINE",
"487 98 LINE",
"427 37 LINE",
"175 37 LINE",
"115 96 LINE",
"115 124 LINE",
"75 124 LINE",
"75 82 LINE",
"157 0 LINE"
);
}
);
};
layerId = "39D11A97-A6D9-4B52-A6F5-15D5E4373676";
paths = (
{
closed = 1;
nodes = (
"442 0 LINE",
"526 84 LINE",
"526 296 LINE",
"444 378 LINE",
"175 378 LINE",
"116 437 LINE",
"116 604 LINE",
"176 664 LINE",
"419 664 LINE",
"479 604 LINE",
"479 575 LINE",
"518 575 LINE",
"518 618 LINE",
"436 700 LINE",
"159 700 LINE",
"77 618 LINE",
"77 423 LINE",
"158 342 LINE",
"427 342 LINE",
"487 282 LINE",
"487 98 LINE",
"427 36 LINE",
"174 36 LINE",
"114 96 LINE",
"114 124 LINE",
"75 124 LINE",
"75 82 LINE",
"157 0 LINE"
);
}
);
width = 596;
},
{
anchors = (
{
name = bottom;
position = "{322, 0}";
},
{
name = top;
position = "{318, 700}";
}
);
background = {
paths = (
{
closed = 1;
nodes = (
"482 0 LINE",
"592 110 LINE",
"592 307 LINE",
"484 415 LINE",
"219 415 LINE",
"186 448 LINE",
"186 551 LINE",
"219 584 LINE",
"417 584 LINE",
"450 551 LINE",
"450 491 LINE",
"584 491 LINE",
"584 592 LINE",
"476 700 LINE",
"160 700 LINE",
"52 592 LINE",
"52 407 LINE",
"160 299 LINE",
"425 299 LINE",
"458 266 LINE",
"458 150 LINE",
"424 116 LINE",
"217 116 LINE",
"184 149 LINE",
"184 208 LINE",
"50 208 LINE",
"50 108 LINE",
"158 0 LINE"
);
}
);
};
layerId = "D6105F7E-CAE1-4F7B-A52E-8AA6E6082DF8";
paths = (
{
closed = 1;
nodes = (
"482 0 LINE",
"592 110 LINE",
"592 307 LINE",
"484 415 LINE",
"219 415 LINE",
"186 448 LINE",
"186 551 LINE",
"219 584 LINE",
"417 584 LINE",
"450 551 LINE",
"450 491 LINE",
"584 491 LINE",
"584 592 LINE",
"476 700 LINE",
"160 700 LINE",
"52 592 LINE",
"52 407 LINE",
"160 299 LINE",
"425 299 LINE",
"458 266 LINE",
"458 150 LINE",
"424 116 LINE",
"217 116 LINE",
"184 149 LINE",
"184 208 LINE",
"50 208 LINE",
"50 108 LINE",
"158 0 LINE"
);
}
);
width = 637;
},
{
anchors = (
{
name = bottom;
position = "{314, 0}";
},
{
name = top;
position = "{305, 700}";
}
);
layerId = "3C986DA2-2E28-42A4-B05D-29F449A87569";
paths = (
{
closed = 1;
nodes = (
"459 0 LINE",
"553 94 LINE",
"553 301 LINE",
"461 393 LINE",
"192 393 LINE",
"142 442 LINE",
"142 583 LINE",
"192 632 LINE",
"421 632 LINE",
"471 583 LINE",
"471 543 LINE",
"545 543 LINE",
"545 608 LINE",
"453 700 LINE",
"159 700 LINE",
"67 608 LINE",
"67 417 LINE",
"159 325 LINE",
"428 325 LINE",
"478 276 LINE",
"478 119 LINE",
"428 68 LINE",
"188 68 LINE",
"140 117 LINE",
"140 156 LINE",
"65 156 LINE",
"65 92 LINE",
"157 0 LINE"
);
}
);
width = 613;
},
{
anchors = (
{
name = bottom;
position = "{284, 0}";
},
{
name = top;
position = "{389, 700}";
}
);
background = {
paths = (
{
closed = 1;
nodes = (
"449 0 LINE",
"566 100 LINE",
"602 299 LINE",
"506 415 LINE",
"249 415 LINE",
"222 448 LINE",
"240 551 LINE",
"279 584 LINE",
"477 584 LINE",
"504 551 LINE",
"494 491 LINE",
"628 491 LINE",
"644 584 LINE",
"547 700 LINE",
"232 700 LINE",
"114 600 LINE",
"82 415 LINE",
"178 299 LINE",
"435 299 LINE",
"462 266 LINE",
"441 150 LINE",
"401 116 LINE",
"194 116 LINE",
"167 149 LINE",
"178 208 LINE",
"44 208 LINE",
"27 116 LINE",
"123 0 LINE"
);
}
);
};
layerId = "1C004500-E2C5-4CA7-8B0E-089ECD41D52B";
paths = (
{
closed = 1;
nodes = (
"448 0 LINE",
"565 100 LINE",
"601 299 LINE",
"505 415 LINE",
"248 415 LINE",
"221 448 LINE",
"239 551 LINE",
"278 584 LINE",
"476 584 LINE",
"503 551 LINE",
"493 491 LINE",
"627 491 LINE",
"643 584 LINE",
"546 700 LINE",
"231 700 LINE",
"113 600 LINE",
"81 415 LINE",
"177 299 LINE",
"434 299 LINE",
"461 266 LINE",
"440 150 LINE",
"400 116 LINE",
"194 116 LINE",
"167 149 LINE",
"178 208 LINE",
"44 208 LINE",
"27 116 LINE",
"123 0 LINE"
);
}
);
width = 637;
},
{
anchors = (
{
name = bottom;
position = "{276, 0}";
},
{
name = top;
position = "{385, 700}";
}
);
background = {
paths = (
{
closed = 1;
nodes = (
"424 0 LINE",
"524 85 LINE",
"562 299 LINE",
"484 393 LINE",
"218 393 LINE",
"177 442 LINE",
"202 583 LINE",
"260 632 LINE",
"489 632 LINE",
"531 583 LINE",
"524 543 LINE",
"598 543 LINE",
"609 603 LINE",
"528 700 LINE",
"234 700 LINE",
"132 613 LINE",
"98 420 LINE",
"176 325 LINE",
"442 325 LINE",
"483 276 LINE",
"456 119 LINE",
"397 68 LINE",
"157 68 LINE",
"117 117 LINE",
"124 156 LINE",
"49 156 LINE",
"39 97 LINE",
"119 0 LINE"
);
}
);
};
layerId = "76B50E0D-F613-4BB6-AC9C-0F65D3239222";
paths = (
{
closed = 1;
nodes = (
"424 0 LINE",
"524 85 LINE",
"562 299 LINE",
"484 393 LINE",
"218 393 LINE",
"177 442 LINE",
"202 583 LINE",
"260 632 LINE",
"489 632 LINE",
"531 583 LINE",
"524 543 LINE",
"598 543 LINE",
"609 603 LINE",
"528 700 LINE",
"234 700 LINE",
"132 613 LINE",
"98 420 LINE",
"176 325 LINE",
"442 325 LINE",
"483 276 LINE",
"456 119 LINE",
"397 68 LINE",
"157 68 LINE",
"117 117 LINE",
"124 156 LINE",
"49 156 LINE",
"39 97 LINE",
"119 0 LINE"
);
}
);
width = 613;
},
{
anchors = (
{
name = bottom;
position = "{269, 0}";
},
{
name = top;
position = "{372, 700}";
}
);
background = {
paths = (
{
closed = 1;
nodes = (
"404 0 LINE",
"496 79 LINE",
"535 296 LINE",
"467 378 LINE",
"198 378 LINE",
"150 437 LINE",
"179 604 LINE",
"250 664 LINE",
"493 664 LINE",
"542 604 LINE",
"537 575 LINE",
"576 575 LINE",
"583 614 LINE",
"512 700 LINE",
"235 700 LINE",
"144 622 LINE",
"108 423 LINE",
"175 342 LINE",
"444 342 LINE",
"493 282 LINE",
"461 98 LINE",
"390 36 LINE",
"137 36 LINE",
"87 96 LINE",
"92 124 LINE",
"53 124 LINE",
"46 86 LINE",
"118 0 LINE"
);
}
);
};
layerId = "7E1D32E5-5329-438C-9451-496B813F8F3E";
paths = (
{
closed = 1;
nodes = (
"403 0 LINE",
"495 79 LINE",
"534 296 LINE",
"466 378 LINE",
"197 378 LINE",
"149 437 LINE",
"178 604 LINE",
"249 664 LINE",
"492 664 LINE",
"541 604 LINE",
"536 575 LINE",
"575 575 LINE",
"582 614 LINE",
"511 700 LINE",
"234 700 LINE",
"143 622 LINE",
"107 423 LINE",
"174 342 LINE",
"443 342 LINE",
"492 282 LINE",
"460 98 LINE",
"389 36 LINE",
"137 36 LINE",
"87 96 LINE",
"92 124 LINE",
"53 124 LINE",
"46 86 LINE",
"118 0 LINE"
);
}
);
width = 596;
}
);
leftKerningGroup = S;
note = S;
rightKerningGroup = S;
unicode = 0053;
},
{
glyphname = Germandbls;
layers = (
{
background = {
paths = (
{
closed = 1;
nodes = (
"129 0 LINE",
"129 609 LINE",
"184 663 LINE",
"527 663 LINE",
"527 700 LINE",
"167 700 LINE",
"90 623 LINE",
"90 0 LINE"
);
},
{
closed = 1;
nodes = (
"512 0 LINE",
"584 72 LINE",
"584 309 LINE",
"514 379 LINE",
"389 379 LINE",
"527 663 LINE",
"486 663 LINE",
"354 389 LINE",
"354 343 LINE",
"495 343 LINE",
"545 293 LINE",
"545 85 LINE",
"494 36 LINE",
"349 36 LINE",
"299 85 LINE",
"299 119 LINE",
"260 119 LINE",
"260 70 LINE",
"330 0 LINE"
);
}
);
};
layerId = "39D11A97-A6D9-4B52-A6F5-15D5E4373676";
paths = (
{
closed = 1;
nodes = (
"129 0 LINE",
"129 609 LINE",
"184 664 LINE",
"527 664 LINE",
"527 700 LINE",
"167 700 LINE",
"90 623 LINE",
"90 0 LINE"
);
},
{
closed = 1;
nodes = (
"512 0 LINE",
"584 72 LINE",
"584 309 LINE",
"514 379 LINE",
"389 379 LINE",
"527 664 LINE",
"486 664 LINE",
"354 389 LINE",
"354 343 LINE",
"495 343 LINE",
"545 293 LINE",
"545 85 LINE",
"495 35 LINE",
"348 35 LINE",
"299 84 LINE",
"299 119 LINE",
"260 119 LINE",
"260 70 LINE",
"330 0 LINE"
);
}
);
width = 644;
},
{
background = {
paths = (
{
closed = 1;
nodes = (
"201 0 LINE",
"201 554 LINE",
"229 582 LINE",
"599 582 LINE",
"599 700 LINE",
"168 700 LINE",
"65 597 LINE",
"65 0 LINE"
);
},
{
closed = 1;
nodes = (
"558 0 LINE",
"656 98 LINE",
"656 312 LINE",
"558 410 LINE",
"479 410 LINE",
"599 582 LINE",
"455 582 LINE",
"334 404 LINE",
"334 300 LINE",
"498 300 LINE",
"522 276 LINE",
"522 139 LINE",
"499 116 LINE",
"413 116 LINE",
"390 139 LINE",
"390 184 LINE",
"258 184 LINE",
"258 96 LINE",
"354 0 LINE"
);
}
);
};
layerId = "D6105F7E-CAE1-4F7B-A52E-8AA6E6082DF8";
paths = (
{
closed = 1;
nodes = (
"201 0 LINE",
"201 554 LINE",
"229 582 LINE",
"599 582 LINE",
"599 700 LINE",
"168 700 LINE",
"65 597 LINE",
"65 0 LINE"
);
},
{
closed = 1;
nodes = (
"558 0 LINE",
"656 98 LINE",
"656 310 LINE",
"558 408 LINE",
"473 408 LINE",
"599 582 LINE",
"461 582 LINE",
"334 402 LINE",
"334 300 LINE",
"498 300 LINE",
"522 276 LINE",
"522 139 LINE",
"499 116 LINE",
"413 116 LINE",
"390 139 LINE",
"390 184 LINE",
"258 184 LINE",
"258 96 LINE",
"354 0 LINE"
);
}
);
width = 691;
},
{
layerId = "3C986DA2-2E28-42A4-B05D-29F449A87569";
paths = (
{
closed = 1;
nodes = (
"156 0 LINE",
"156 588 LINE",
"201 632 LINE",
"554 632 LINE",
"554 700 LINE",
"167 700 LINE",
"80 613 LINE",
"80 0 LINE"
);
},
{
closed = 1;
nodes = (
"529 0 LINE",
"611 82 LINE",
"611 310 LINE",
"529 392 LINE",
"423 392 LINE",
"554 632 LINE",
"474 632 LINE",
"349 402 LINE",
"349 326 LINE",
"495 326 LINE",
"535 286 LINE",
"535 105 LINE",
"495 66 LINE",
"373 66 LINE",
"333 105 LINE",
"333 144 LINE",
"259 144 LINE",
"259 80 LINE",
"339 0 LINE"
);
}
);
width = 661;
},
{
background = {
paths = (
{
closed = 1;
nodes = (
"157 0 LINE",
"255 554 LINE",
"288 582 LINE",
"658 582 LINE",
"678 700 LINE",
"237 700 LINE",
"128 607 LINE",
"21 0 LINE"
);
},
{
closed = 1;
nodes = (
"524 0 LINE",
"627 88 LINE",
"666 302 LINE",
"578 408 LINE",
"501 408 LINE",
"658 582 LINE",
"520 582 LINE",
"361 402 LINE",
"343 300 LINE",
"507 300 LINE",
"527 276 LINE",
"503 139 LINE",
"475 116 LINE",
"389 116 LINE",
"371 139 LINE",
"378 184 LINE",
"246 184 LINE",
"232 104 LINE",
"318 0 LINE"
);
}
);
};
layerId = "1C004500-E2C5-4CA7-8B0E-089ECD41D52B";
paths = (
{
closed = 1;
nodes = (
"157 0 LINE",
"255 554 LINE",
"288 582 LINE",
"658 582 LINE",
"678 700 LINE",
"237 700 LINE",
"128 607 LINE",
"21 0 LINE"
);
},
{
closed = 1;
nodes = (
"524 0 LINE",
"627 88 LINE",
"666 302 LINE",
"578 408 LINE",
"501 408 LINE",
"658 582 LINE",
"520 582 LINE",
"361 402 LINE",
"343 300 LINE",
"507 300 LINE",
"527 276 LINE",
"503 139 LINE",
"475 116 LINE",
"389 116 LINE",
"371 139 LINE",
"378 184 LINE",
"246 184 LINE",
"232 104 LINE",
"318 0 LINE"
);
}
);
width = 691;
},
{
background = {
paths = (
{
closed = 1;
nodes = (
"112 0 LINE",
"216 588 LINE",
"268 632 LINE",
"621 632 LINE",
"633 700 LINE",
"241 700 LINE",
"145 618 LINE",
"36 0 LINE"
);
},
{
closed = 1;
nodes = (
"492 0 LINE",
"580 75 LINE",
"622 310 LINE",
"554 392 LINE",
"448 392 LINE",
"621 632 LINE",
"541 632 LINE",
"376 402 LINE",
"362 326 LINE",
"508 326 LINE",
"541 286 LINE",
"510 105 LINE",
"463 66 LINE",
"341 66 LINE",
"308 105 LINE",
"314 144 LINE",
"240 144 LINE",
"230 85 LINE",
"300 0 LINE"
);
}
);
};
layerId = "76B50E0D-F613-4BB6-AC9C-0F65D3239222";
paths = (
{
closed = 1;
nodes = (
"112 0 LINE",
"216 588 LINE",
"268 632 LINE",
"621 632 LINE",
"633 700 LINE",
"241 700 LINE",
"145 618 LINE",
"36 0 LINE"
);
},
{
closed = 1;
nodes = (
"492 0 LINE",
"580 75 LINE",
"622 310 LINE",
"554 392 LINE",
"448 392 LINE",
"621 632 LINE",
"541 632 LINE",
"376 402 LINE",
"362 326 LINE",
"508 326 LINE",
"541 286 LINE",
"510 105 LINE",
"463 66 LINE",
"341 66 LINE",
"308 105 LINE",
"314 144 LINE",
"240 144 LINE",
"230 85 LINE",
"300 0 LINE"
);
}
);
width = 661;
},
{
background = {
paths = (
{
closed = 1;
nodes = (
"86 0 LINE",
"193 609 LINE",
"258 664 LINE",
"601 664 LINE",
"607 700 LINE",
"247 700 LINE",
"157 623 LINE",
"47 0 LINE"
);
},
{
closed = 1;
nodes = (
"469 0 LINE",
"554 72 LINE",
"595 309 LINE",
"538 379 LINE",
"413 379 LINE",
"601 664 LINE",
"560 664 LINE",
"380 389 LINE",
"371 343 LINE",
"512 343 LINE",
"554 293 LINE",
"517 85 LINE",
"458 35 LINE",
"311 35 LINE",
"271 84 LINE",
"277 119 LINE",
"238 119 LINE",
"229 70 LINE",
"287 0 LINE"
);
}
);
};
layerId = "7E1D32E5-5329-438C-9451-496B813F8F3E";
paths = (
{
closed = 1;
nodes = (
"85 0 LINE",
"192 609 LINE",
"257 664 LINE",
"600 664 LINE",
"606 700 LINE",
"242 700 LINE",
"157 627 LINE",
"46 0 LINE"
);
},
{
closed = 1;
nodes = (
"473 0 LINE",
"552 67 LINE",
"593 305 LINE",
"532 379 LINE",
"414 379 LINE",
"600 664 LINE",
"557 664 LINE",
"379 389 LINE",
"370 343 LINE",
"511 343 LINE",
"553 293 LINE",
"516 85 LINE",
"457 35 LINE",
"310 35 LINE",
"270 84 LINE",
"276 119 LINE",
"237 119 LINE",
"229 73 LINE",
"289 0 LINE"
);
}
);
width = 644;
}
);
leftMetricsKey = H;
note = uni1E9E;
unicode = 1E9E;
},
{
glyphname = Schwa;
layers = (
{
background = {
paths = (
{
closed = 1;
nodes = (
"482 0 LINE",
"601 119 LINE",
"601 581 LINE",
"482 700 LINE",
"199 700 LINE",
"80 581 LINE",
"80 498 LINE",
"119 498 LINE",
"119 566 LINE",
"217 663 LINE",
"464 663 LINE",
"562 566 LINE",
"562 367 LINE",
"80 367 LINE",
"80 119 LINE",
"199 0 LINE"
);
},
{
closed = 1;
nodes = (
"119 136 LINE",
"119 329 LINE",
"562 329 LINE",
"562 136 LINE",
"462 37 LINE",
"219 37 LINE"
);
}
);
};
layerId = "39D11A97-A6D9-4B52-A6F5-15D5E4373676";
paths = (
{
closed = 1;
nodes = (
"482 0 LINE",
"601 119 LINE",
"601 581 LINE",
"482 700 LINE",
"199 700 LINE",
"80 581 LINE",
"80 498 LINE",
"119 498 LINE",
"119 566 LINE",
"217 664 LINE",
"464 664 LINE",
"562 566 LINE",
"562 366 LINE",
"80 366 LINE",
"80 119 LINE",
"199 0 LINE"
);
},
{
closed = 1;
nodes = (
"119 136 LINE",
"119 330 LINE",
"562 330 LINE",
"562 136 LINE",
"462 36 LINE",
"219 36 LINE"
);
}
);
width = 681;
},
{
background = {
paths = (
{
closed = 1;
nodes = (
"200 700 LINE",
"55 555 LINE",
"55 457 LINE",
"191 457 LINE",
"191 509 LINE",
"262 580 LINE",
"466 580 LINE",
"537 509 LINE",
"537 408 LINE",
"55 408 LINE",
"55 145 LINE",
"200 0 LINE",
"528 0 LINE",
"673 145 LINE",
"673 555 LINE",
"528 700 LINE"
);
},
{
closed = 1;
nodes = (
"537 193 LINE",
"464 120 LINE",
"264 120 LINE",
"191 193 LINE",
"191 288 LINE",
"537 288 LINE"
);
}
);
};
layerId = "D6105F7E-CAE1-4F7B-A52E-8AA6E6082DF8";
paths = (
{
closed = 1;
nodes = (
"528 0 LINE",
"673 145 LINE",
"673 555 LINE",
"528 700 LINE",
"200 700 LINE",
"55 555 LINE",
"55 459 LINE",
"191 459 LINE",
"191 511 LINE",
"262 582 LINE",
"466 582 LINE",
"537 511 LINE",
"537 407 LINE",
"55 407 LINE",
"55 145 LINE",
"200 0 LINE"
);
},
{
closed = 1;
nodes = (
"191 191 LINE",
"191 289 LINE",
"537 289 LINE",
"537 191 LINE",
"464 118 LINE",
"264 118 LINE"
);
}
);
width = 728;
},
{
layerId = "3C986DA2-2E28-42A4-B05D-29F449A87569";
paths = (
{
closed = 1;
nodes = (
"499 0 LINE",
"628 129 LINE",
"628 571 LINE",
"499 700 LINE",
"199 700 LINE",
"70 571 LINE",
"70 483 LINE",
"146 483 LINE",
"146 545 LINE",
"234 632 LINE",
"464 632 LINE",
"552 545 LINE",
"552 382 LINE",
"70 382 LINE",
"70 129 LINE",
"199 0 LINE"
);
},
{
closed = 1;
nodes = (
"146 157 LINE",
"146 314 LINE",
"552 314 LINE",
"552 157 LINE",
"462 68 LINE",
"236 68 LINE"
);
}
);
width = 698;
},
{
background = {
paths = (
{
closed = 1;
nodes = (
"485 0 LINE",
"656 145 LINE",
"728 555 LINE",
"609 700 LINE",
"281 700 LINE",
"110 555 LINE",
"93 459 LINE",
"229 459 LINE",
"239 511 LINE",
"322 582 LINE",
"526 582 LINE",
"585 511 LINE",
"566 407 LINE",
"84 407 LINE",
"38 145 LINE",
"157 0 LINE"
);
},
{
closed = 1;
nodes = (
"182 191 LINE",
"199 289 LINE",
"545 289 LINE",
"528 191 LINE",
"442 118 LINE",
"242 118 LINE"
);
}
);
};
layerId = "1C004500-E2C5-4CA7-8B0E-089ECD41D52B";
paths = (
{
closed = 1;
nodes = (
"495 0 LINE",
"654 135 LINE",
"726 547 LINE",
"601 700 LINE",
"273 700 LINE",
"111 563 LINE",
"93 459 LINE",
"229 459 LINE",
"239 511 LINE",
"322 582 LINE",
"526 582 LINE",
"585 511 LINE",
"566 407 LINE",
"84 407 LINE",
"39 153 LINE",
"165 0 LINE"
);
},
{
closed = 1;
nodes = (
"182 191 LINE",
"199 289 LINE",
"545 289 LINE",
"528 191 LINE",
"442 118 LINE",
"242 118 LINE"
);
}
);
width = 728;
},
{
layerId = "76B50E0D-F613-4BB6-AC9C-0F65D3239222";
paths = (
{
closed = 1;
nodes = (
"455 0 LINE",
"607 129 LINE",
"685 571 LINE",
"579 700 LINE",
"279 700 LINE",
"127 571 LINE",
"111 483 LINE",
"187 483 LINE",
"198 545 LINE",
"302 632 LINE",
"532 632 LINE",
"604 545 LINE",
"576 382 LINE",
"94 382 LINE",
"49 129 LINE",
"155 0 LINE"
);
},
{
closed = 1;
nodes = (
"130 157 LINE",
"158 314 LINE",
"564 314 LINE",
"536 157 LINE",
"430 68 LINE",
"204 68 LINE"
);
}
);
width = 698;
},
{
background = {
paths = (
{
closed = 1;
nodes = (
"439 0 LINE",
"579 119 LINE",
"660 581 LINE",
"562 700 LINE",
"279 700 LINE",
"139 581 LINE",
"125 498 LINE",
"164 498 LINE",
"176 566 LINE",
"291 664 LINE",
"538 664 LINE",
"619 566 LINE",
"584 366 LINE",
"102 366 LINE",
"58 119 LINE",
"156 0 LINE"
);
},
{
closed = 1;
nodes = (
"100 136 LINE",
"134 330 LINE",
"577 330 LINE",
"543 136 LINE",
"425 36 LINE",
"182 36 LINE"
);
}
);
};
layerId = "7E1D32E5-5329-438C-9451-496B813F8F3E";
paths = (
{
closed = 1;
nodes = (
"443 0 LINE",
"577 114 LINE",
"658 577 LINE",
"556 700 LINE",
"275 700 LINE",
"139 585 LINE",
"124 498 LINE",
"163 498 LINE",
"175 566 LINE",
"290 664 LINE",
"537 664 LINE",
"618 566 LINE",
"583 366 LINE",
"101 366 LINE",
"58 123 LINE",
"160 0 LINE"
);
},
{
closed = 1;
nodes = (
"99 136 LINE",
"133 330 LINE",
"576 330 LINE",
"542 136 LINE",
"424 36 LINE",
"181 36 LINE"
);
}
);
width = 681;
}
);
note = uni018F;
unicode = 018F;
},
{
glyphname = T;
layers = (
{
anchors = (
{
name = bottom;
position = "{272, 0}";
},
{
name = center;
position = "{272, 350}";
},
{
name = top;
position = "{272, 700}";
}
);
background = {
anchors = (
{
name = bottom;
position = "{272, 0}";
},
{
name = center;
position = "{281, 350}";
},
{
name = top;
position = "{272, 700}";
}
);
paths = (
{
closed = 1;
nodes = (
"291 0 LINE",
"291 663 LINE",
"503 663 LINE",
"503 700 LINE",
"40 700 LINE",
"40 663 LINE",
"252 663 LINE",
"252 0 LINE"
);
}
);
};
layerId = "39D11A97-A6D9-4B52-A6F5-15D5E4373676";
paths = (
{
closed = 1;
nodes = (
"291 0 LINE",
"291 664 LINE",
"503 664 LINE",
"503 700 LINE",
"40 700 LINE",
"40 664 LINE",
"252 664 LINE",
"252 0 LINE"
);
}
);
width = 543;
},
{
anchors = (
{
name = bottom;
position = "{292, 0}";
},
{
name = center;
position = "{292, 350}";
},
{
name = top;
position = "{292, 700}";
}
);
background = {
paths = (
{
closed = 1;
nodes = (
"375 0 LINE",
"375 582 LINE",
"584 582 LINE",
"584 700 LINE",
"30 700 LINE",
"30 582 LINE",
"239 582 LINE",
"239 0 LINE"
);
}
);
};
layerId = "D6105F7E-CAE1-4F7B-A52E-8AA6E6082DF8";
paths = (
{
closed = 1;
nodes = (
"360 0 LINE",
"360 585 LINE",
"569 585 LINE",
"569 700 LINE",
"15 700 LINE",
"15 585 LINE",
"224 585 LINE",
"224 0 LINE"
);
}
);
width = 584;
},
{
anchors = (
{
name = bottom;
position = "{280, 0}";
},
{
name = center;
position = "{280, 350}";
},
{
name = top;
position = "{280, 700}";
}
);
layerId = "3C986DA2-2E28-42A4-B05D-29F449A87569";
paths = (
{
closed = 1;
nodes = (
"318 0 LINE",
"318 633 LINE",
"530 633 LINE",
"530 700 LINE",
"30 700 LINE",
"30 633 LINE",
"242 633 LINE",
"242 0 LINE"
);
}
);
width = 560;
},
{
anchors = (
{
name = bottom;
position = "{249, 0}";
},
{
name = center;
position = "{311, 350}";
},
{
name = top;
position = "{372, 700}";
}
);
background = {
anchors = (
{
name = bottom;
position = "{249, 0}";
},
{
name = center;
position = "{311, 350}";
},
{
name = top;
position = "{372, 700}";
}
);
paths = (
{
closed = 1;
nodes = (
"317 0 LINE",
"420 585 LINE",
"629 585 LINE",
"649 700 LINE",
"95 700 LINE",
"75 585 LINE",
"284 585 LINE",
"181 0 LINE"
);
}
);
};
layerId = "1C004500-E2C5-4CA7-8B0E-089ECD41D52B";
paths = (
{
closed = 1;
nodes = (
"317 0 LINE",
"420 585 LINE",
"628 585 LINE",
"649 700 LINE",
"95 700 LINE",
"75 585 LINE",
"284 585 LINE",
"181 0 LINE"
);
}
);
width = 584;
},
{
anchors = (
{
name = bottom;
position = "{238, 0}";
},
{
name = center;
position = "{299, 350}";
},
{
name = top;
position = "{358, 700}";
}
);
layerId = "76B50E0D-F613-4BB6-AC9C-0F65D3239222";
paths = (
{
closed = 1;
nodes = (
"274 0 LINE",
"386 633 LINE",
"598 633 LINE",
"610 700 LINE",
"110 700 LINE",
"98 633 LINE",
"310 633 LINE",
"198 0 LINE"
);
}
);
width = 560;
},
{
anchors = (
{
name = bottom;
position = "{233, 0}";
},
{
name = center;
position = "{293, 350}";
},
{
name = top;
position = "{352, 700}";
}
);
background = {
paths = (
{
closed = 1;
nodes = (
"248 0 LINE",
"365 664 LINE",
"577 664 LINE",
"583 700 LINE",
"120 700 LINE",
"114 664 LINE",
"326 664 LINE",
"209 0 LINE"
);
}
);
};
layerId = "7E1D32E5-5329-438C-9451-496B813F8F3E";
paths = (
{
closed = 1;
nodes = (
"248 0 LINE",
"365 664 LINE",
"576 664 LINE",
"582 700 LINE",
"120 700 LINE",
"114 664 LINE",
"326 664 LINE",
"209 0 LINE"
);
}
);
width = 543;
}
);
leftKerningGroup = T;
note = T;
rightKerningGroup = T;
rightMetricsKey = "=|";
unicode = 0054;
},
{
glyphname = Tbar;
layers = (
{
components = (
{
name = T;
}
);
layerId = "39D11A97-A6D9-4B52-A6F5-15D5E4373676";
paths = (
{
closed = 1;
nodes = (
"461 311 LINE",
"461 345 LINE",
"82 345 LINE",
"82 311 LINE"
);
}
);
width = 543;
},
{
associatedMasterId = "39D11A97-A6D9-4B52-A6F5-15D5E4373676";
layerId = "8AF6BA7E-4672-4BE4-A9AE-4DB948958C2C";
name = "new Layer";
width = 600;
},
{
associatedMasterId = "39D11A97-A6D9-4B52-A6F5-15D5E4373676";
layerId = "7F6AF056-48B6-4F53-BC9A-D34BFBE15044";
name = "new Layer";
width = 600;
},
{
associatedMasterId = "39D11A97-A6D9-4B52-A6F5-15D5E4373676";
layerId = "F73E8325-8E12-4C51-8F58-F416F66A4A1B";
name = "new Layer";
width = 600;
},
{
background = {
paths = (
{
closed = 1;
nodes = (
"513 275 LINE",
"513 389 LINE",
"77 389 LINE",
"77 275 LINE"
);
}
);
};
components = (
{
name = T;
}
);
layerId = "D6105F7E-CAE1-4F7B-A52E-8AA6E6082DF8";
paths = (
{
closed = 1;
nodes = (
"513 275 LINE",
"513 385 LINE",
"77 385 LINE",
"77 275 LINE"
);
}
);
width = 584;
},
{
associatedMasterId = "D6105F7E-CAE1-4F7B-A52E-8AA6E6082DF8";
layerId = "CCEC87D2-BDDB-4BB0-836F-89AA69FD70A4";
name = "new Layer";
width = 600;
},
{
associatedMasterId = "D6105F7E-CAE1-4F7B-A52E-8AA6E6082DF8";
layerId = "77C5EE56-9A9F-49D7-8F19-2FEEB456554D";
name = "new Layer";
width = 600;
},
{
associatedMasterId = "D6105F7E-CAE1-4F7B-A52E-8AA6E6082DF8";
layerId = "E3B642DC-BD26-4568-8D17-3487E48E46DF";
name = "new Layer";
width = 600;
},
{
components = (
{
name = T;
}
);
layerId = "3C986DA2-2E28-42A4-B05D-29F449A87569";
paths = (
{
closed = 1;
nodes = (
"493 301 LINE",
"493 363 LINE",
"79 363 LINE",
"79 301 LINE"
);
}
);
width = 560;
},
{
background = {
paths = (
{
closed = 1;
nodes = (
"513 275 LINE",
"513 389 LINE",
"77 389 LINE",
"77 275 LINE"
);
}
);
};
components = (
{
name = T;
}
);
layerId = "1C004500-E2C5-4CA7-8B0E-089ECD41D52B";
paths = (
{
closed = 1;
nodes = (
"518 275 LINE",
"537 385 LINE",
"101 385 LINE",
"82 275 LINE"
);
}
);
width = 584;
},
{
associatedMasterId = "1C004500-E2C5-4CA7-8B0E-089ECD41D52B";
layerId = "8BCC2253-AAE4-4311-9DCD-90B018A59855";
name = "new Layer";
width = 600;
},
{
associatedMasterId = "1C004500-E2C5-4CA7-8B0E-089ECD41D52B";
layerId = "788F0041-2C02-4A75-9453-26E7ADFC8F4C";
name = "new Layer";
width = 600;
},
{
associatedMasterId = "1C004500-E2C5-4CA7-8B0E-089ECD41D52B";
layerId = "567DC31B-BC23-435C-AFB4-D9A7F85D733A";
name = "new Layer";
width = 600;
},
{
components = (
{
name = T;
}
);
layerId = "76B50E0D-F613-4BB6-AC9C-0F65D3239222";
paths = (
{
closed = 1;
nodes = (
"503 301 LINE",
"514 363 LINE",
"100 363 LINE",
"89 301 LINE"
);
}
);
width = 560;
},
{
components = (
{
name = T;
}
);
layerId = "7E1D32E5-5329-438C-9451-496B813F8F3E";
paths = (
{
closed = 1;
nodes = (
"473 311 LINE",
"479 345 LINE",
"100 345 LINE",
"94 311 LINE"
);
}
);
width = 543;
},
{
associatedMasterId = "7E1D32E5-5329-438C-9451-496B813F8F3E";
layerId = "41176D1A-24A2-4A84-90E4-D4B4F7BBB91C";
name = "new Layer";
width = 600;
},
{
associatedMasterId = "7E1D32E5-5329-438C-9451-496B813F8F3E";
layerId = "71B7C8B0-F278-4418-9D51-3AC6B197CB0A";
name = "new Layer";
width = 600;
},
{
associatedMasterId = "7E1D32E5-5329-438C-9451-496B813F8F3E";
layerId = "B84D04B0-EF5F-47A9-8DE3-C505594A2D39";
name = "new Layer";
width = 600;
}
);
leftKerningGroup = T;
leftMetricsKey = T;
note = Tbar;
rightKerningGroup = T;
rightMetricsKey = T;
unicode = 0166;
},
{
glyphname = U;
layers = (
{
anchors = (
{
name = bottom;
position = "{331, 0}";
},
{
name = ogonek;
position = "{369, 0}";
},
{
name = top;
position = "{330, 700}";
},
{
name = topright;
position = "{569, 558}";
}
);
background = {
anchors = (
{
name = bottom;
position = "{331, 0}";
},
{
name = ogonek;
position = "{469, 0}";
},
{
name = top;
position = "{330, 700}";
},
{
name = topright;
position = "{607, 518}";
}
);
paths = (
{
closed = 1;
nodes = (
"469 0 LINE",
"569 100 LINE",
"569 700 LINE",
"530 700 LINE",
"530 113 LINE",
"453 37 LINE",
"206 37 LINE",
"129 113 LINE",
"129 700 LINE",
"90 700 LINE",
"90 100 LINE",
"190 0 LINE"
);
}
);
};
layerId = "39D11A97-A6D9-4B52-A6F5-15D5E4373676";
paths = (
{
closed = 1;
nodes = (
"469 0 LINE",
"569 100 LINE",
"569 700 LINE",
"530 700 LINE",
"530 113 LINE",
"453 36 LINE",
"206 36 LINE",
"129 113 LINE",
"129 700 LINE",
"90 700 LINE",
"90 100 LINE",
"190 0 LINE"
);
}
);
width = 659;
},
{
anchors = (
{
name = bottom;
position = "{352, 0}";
},
{
name = ogonek;
position = "{431, 0}";
},
{
name = top;
position = "{350, 700}";
},
{
name = topright;
position = "{635, 558}";
}
);
background = {
paths = (
{
closed = 1;
nodes = (
"515 0 LINE",
"635 120 LINE",
"635 700 LINE",
"499 700 LINE",
"499 167 LINE",
"448 116 LINE",
"252 116 LINE",
"201 167 LINE",
"201 700 LINE",
"65 700 LINE",
"65 120 LINE",
"185 0 LINE"
);
}
);
};
layerId = "D6105F7E-CAE1-4F7B-A52E-8AA6E6082DF8";
paths = (
{
closed = 1;
nodes = (
"515 0 LINE",
"635 120 LINE",
"635 700 LINE",
"499 700 LINE",
"499 167 LINE",
"448 116 LINE",
"252 116 LINE",
"201 167 LINE",
"201 700 LINE",
"65 700 LINE",
"65 120 LINE",
"185 0 LINE"
);
}
);
width = 700;
},
{
anchors = (
{
name = bottom;
position = "{340, 0}";
},
{
name = ogonek;
position = "{393, 0}";
},
{
name = top;
position = "{338, 700}";
},
{
name = topright;
position = "{596, 558}";
}
);
layerId = "3C986DA2-2E28-42A4-B05D-29F449A87569";
paths = (
{
closed = 1;
nodes = (
"486 0 LINE",
"596 110 LINE",
"596 700 LINE",
"520 700 LINE",
"520 135 LINE",
"452 68 LINE",
"224 68 LINE",
"156 135 LINE",
"156 700 LINE",
"80 700 LINE",
"80 110 LINE",
"190 0 LINE"
);
}
);
width = 676;
},
{
anchors = (
{
name = bottom;
position = "{317, 0}";
},
{
name = ogonek;
position = "{406, 0}";
},
{
name = top;
position = "{430, 700}";
},
{
name = topright;
position = "{689, 558}";
}
);
background = {
paths = (
{
closed = 1;
nodes = (
"481 0 LINE",
"610 110 LINE",
"714 700 LINE",
"578 700 LINE",
"484 167 LINE",
"424 116 LINE",
"229 116 LINE",
"187 167 LINE",
"281 700 LINE",
"145 700 LINE",
"44 128 LINE",
"150 0 LINE"
);
}
);
};
layerId = "1C004500-E2C5-4CA7-8B0E-089ECD41D52B";
paths = (
{
closed = 1;
nodes = (
"481 0 LINE",
"610 110 LINE",
"714 700 LINE",
"578 700 LINE",
"484 167 LINE",
"424 116 LINE",
"229 116 LINE",
"187 167 LINE",
"281 700 LINE",
"145 700 LINE",
"44 128 LINE",
"150 0 LINE"
);
}
);
width = 700;
},
{
anchors = (
{
name = bottom;
position = "{297, 0}";
},
{
name = ogonek;
position = "{353, 0}";
},
{
name = top;
position = "{418, 700}";
},
{
name = topright;
position = "{650, 558}";
}
);
background = {
paths = (
{
closed = 1;
nodes = (
"449 0 LINE",
"570 103 LINE",
"676 700 LINE",
"600 700 LINE",
"499 135 LINE",
"420 68 LINE",
"193 68 LINE",
"136 135 LINE",
"236 700 LINE",
"160 700 LINE",
"57 115 LINE",
"152 0 LINE"
);
}
);
};
layerId = "76B50E0D-F613-4BB6-AC9C-0F65D3239222";
paths = (
{
closed = 1;
nodes = (
"450 0 LINE",
"570 102 LINE",
"676 700 LINE",
"600 700 LINE",
"499 135 LINE",
"420 68 LINE",
"193 68 LINE",
"136 135 LINE",
"236 700 LINE",
"160 700 LINE",
"57 115 LINE",
"152 0 LINE"
);
}
);
width = 676;
},
{
anchors = (
{
name = bottom;
position = "{291, 0}";
},
{
name = ogonek;
position = "{330, 0}";
},
{
name = top;
position = "{410, 700}";
},
{
name = topright;
position = "{624, 558}";
}
);
background = {
paths = (
{
closed = 1;
nodes = (
"430 0 LINE",
"542 95 LINE",
"649 700 LINE",
"610 700 LINE",
"506 113 LINE",
"416 36 LINE",
"169 36 LINE",
"105 113 LINE",
"209 700 LINE",
"170 700 LINE",
"65 104 LINE",
"150 0 LINE"
);
}
);
};
layerId = "7E1D32E5-5329-438C-9451-496B813F8F3E";
paths = (
{
closed = 1;
nodes = (
"430 0 LINE",
"542 95 LINE",
"649 700 LINE",
"610 700 LINE",
"506 113 LINE",
"416 36 LINE",
"169 36 LINE",
"105 113 LINE",
"209 700 LINE",
"170 700 LINE",
"65 104 LINE",
"150 0 LINE"
);
}
);
width = 659;
}
);
leftKerningGroup = U;
note = U;
rightKerningGroup = U;
rightMetricsKey = "=|";
unicode = 0055;
},
{
glyphname = V;
layers = (
{
anchors = (
{
name = bottom;
position = "{298, 0}";
},
{
name = top;
position = "{298, 700}";
}
);
background = {
anchors = (
{
name = bottom;
position = "{298, 0}";
},
{
name = top;
position = "{298, 700}";
}
);
paths = (
{
closed = 1;
nodes = (
"324 0 LINE",
"560 700 LINE",
"520 700 LINE",
"299 37 LINE",
"297 37 LINE",
"75 700 LINE",
"35 700 LINE",
"272 0 LINE"
);
}
);
};
layerId = "39D11A97-A6D9-4B52-A6F5-15D5E4373676";
paths = (
{
closed = 1;
nodes = (
"324 0 LINE",
"560 700 LINE",
"520 700 LINE",
"299 37 LINE",
"297 37 LINE",
"75 700 LINE",
"35 700 LINE",
"272 0 LINE"
);
}
);
width = 595;
},
{
anchors = (
{
name = bottom;
position = "{325, 0}";
},
{
name = top;
position = "{325, 700}";
}
);
background = {
paths = (
{
closed = 1;
nodes = (
"387 0 LINE",
"640 700 LINE",
"500 700 LINE",
"326 173 LINE",
"324 173 LINE",
"150 700 LINE",
"10 700 LINE",
"263 0 LINE"
);
}
);
};
layerId = "D6105F7E-CAE1-4F7B-A52E-8AA6E6082DF8";
paths = (
{
closed = 1;
nodes = (
"391 0 LINE",
"640 700 LINE",
"500 700 LINE",
"326 162 LINE",
"324 162 LINE",
"150 700 LINE",
"10 700 LINE",
"259 0 LINE"
);
}
);
width = 650;
},
{
anchors = (
{
name = bottom;
position = "{313, 0}";
},
{
name = top;
position = "{313, 700}";
}
);
layerId = "3C986DA2-2E28-42A4-B05D-29F449A87569";
paths = (
{
closed = 1;
nodes = (
"354 0 LINE",
"601 700 LINE",
"522 700 LINE",
"314 91 LINE",
"312 91 LINE",
"104 700 LINE",
"25 700 LINE",
"272 0 LINE"
);
}
);
width = 626;
},
{
anchors = (
{
name = bottom;
position = "{282, 0}";
},
{
name = top;
position = "{405, 700}";
}
);
background = {
paths = (
{
closed = 1;
nodes = (
"348 0 LINE",
"720 700 LINE",
"580 700 LINE",
"311 162 LINE",
"309 162 LINE",
"230 700 LINE",
"90 700 LINE",
"216 0 LINE"
);
}
);
};
layerId = "1C004500-E2C5-4CA7-8B0E-089ECD41D52B";
paths = (
{
closed = 1;
nodes = (
"348 0 LINE",
"720 700 LINE",
"574 700 LINE",
"305 162 LINE",
"303 162 LINE",
"224 700 LINE",
"90 700 LINE",
"216 0 LINE"
);
}
);
width = 650;
},
{
anchors = (
{
name = bottom;
position = "{270, 0}";
},
{
name = top;
position = "{393, 700}";
}
);
background = {
paths = (
{
closed = 1;
nodes = (
"311 0 LINE",
"681 700 LINE",
"602 700 LINE",
"287 91 LINE",
"285 91 LINE",
"184 700 LINE",
"105 700 LINE",
"229 0 LINE"
);
}
);
};
layerId = "76B50E0D-F613-4BB6-AC9C-0F65D3239222";
paths = (
{
closed = 1;
nodes = (
"311 0 LINE",
"681 700 LINE",
"598 700 LINE",
"283 91 LINE",
"281 91 LINE",
"180 700 LINE",
"105 700 LINE",
"229 0 LINE"
);
}
);
width = 626;
},
{
anchors = (
{
name = bottom;
position = "{255, 0}";
},
{
name = top;
position = "{378, 700}";
}
);
background = {
paths = (
{
closed = 1;
nodes = (
"281 0 LINE",
"640 700 LINE",
"597 700 LINE",
"259 37 LINE",
"257 37 LINE",
"152 700 LINE",
"115 700 LINE",
"229 0 LINE"
);
}
);
};
layerId = "7E1D32E5-5329-438C-9451-496B813F8F3E";
paths = (
{
closed = 1;
nodes = (
"281 0 LINE",
"640 700 LINE",
"597 700 LINE",
"259 37 LINE",
"257 37 LINE",
"152 700 LINE",
"115 700 LINE",
"229 0 LINE"
);
}
);
width = 595;
}
);
note = V;
rightMetricsKey = "=|";
unicode = 0056;
},
{
glyphname = W;
layers = (
{
anchors = (
{
name = bottom;
position = "{420, 0}";
},
{
name = top;
position = "{421, 700}";
}
);
background = {
paths = (
{
closed = 1;
nodes = (
"230 0 LINE",
"421 643 LINE",
"423 643 LINE",
"609 0 LINE",
"655 0 LINE",
"789 700 LINE",
"750 700 LINE",
"629 53 LINE",
"627 53 LINE",
"441 700 LINE",
"402 700 LINE",
"212 53 LINE",
"210 53 LINE",
"89 700 LINE",
"50 700 LINE",
"184 0 LINE"
);
}
);
};
layerId = "39D11A97-A6D9-4B52-A6F5-15D5E4373676";
paths = (
{
closed = 1;
nodes = (
"230 0 LINE",
"421 643 LINE",
"423 643 LINE",
"609 0 LINE",
"655 0 LINE",
"789 700 LINE",
"750 700 LINE",
"629 53 LINE",
"627 53 LINE",
"441 700 LINE",
"402 700 LINE",
"212 53 LINE",
"210 53 LINE",
"89 700 LINE",
"50 700 LINE",
"184 0 LINE"
);
}
);
width = 839;
},
{
anchors = (
{
name = bottom;
position = "{440, 0}";
},
{
name = top;
position = "{440, 700}";
}
);
background = {
paths = (
{
closed = 1;
nodes = (
"296 0 LINE",
"439 497 LINE",
"443 497 LINE",
"583 0 LINE",
"709 0 LINE",
"854 700 LINE",
"717 700 LINE",
"632 206 LINE",
"628 206 LINE",
"489 700 LINE",
"391 700 LINE",
"251 206 LINE",
"247 206 LINE",
"162 700 LINE",
"25 700 LINE",
"170 0 LINE"
);
}
);
};
layerId = "D6105F7E-CAE1-4F7B-A52E-8AA6E6082DF8";
paths = (
{
closed = 1;
nodes = (
"297 0 LINE",
"439 492 LINE",
"443 492 LINE",
"582 0 LINE",
"709 0 LINE",
"854 700 LINE",
"717 700 LINE",
"632 206 LINE",
"628 206 LINE",
"492 700 LINE",
"390 700 LINE",
"251 206 LINE",
"247 206 LINE",
"162 700 LINE",
"25 700 LINE",
"170 0 LINE"
);
}
);
width = 879;
},
{
anchors = (
{
name = bottom;
position = "{432, 0}";
},
{
name = top;
position = "{432, 700}";
}
);
background = {
paths = (
{
closed = 1;
nodes = (
"263 0 LINE",
"435 592 LINE",
"437 592 LINE",
"600 0 LINE",
"682 0 LINE",
"823 700 LINE",
"746 700 LINE",
"637 108 LINE",
"635 108 LINE",
"473 700 LINE",
"399 700 LINE",
"231 108 LINE",
"229 108 LINE",
"117 700 LINE",
"40 700 LINE",
"181 0 LINE"
);
}
);
};
layerId = "3C986DA2-2E28-42A4-B05D-29F449A87569";
paths = (
{
closed = 1;
nodes = (
"263 0 LINE",
"435 592 LINE",
"437 592 LINE",
"600 0 LINE",
"682 0 LINE",
"823 700 LINE",
"746 700 LINE",
"637 108 LINE",
"635 108 LINE",
"473 700 LINE",
"399 700 LINE",
"231 108 LINE",
"229 108 LINE",
"117 700 LINE",
"40 700 LINE",
"181 0 LINE"
);
}
);
width = 863;
},
{
anchors = (
{
name = bottom;
position = "{397, 0}";
},
{
name = top;
position = "{520, 700}";
}
);
background = {
paths = (
{
closed = 1;
nodes = (
"254 0 LINE",
"482 492 LINE",
"486 492 LINE",
"539 0 LINE",
"666 0 LINE",
"934 700 LINE",
"794 700 LINE",
"622 206 LINE",
"618 206 LINE",
"569 700 LINE",
"467 700 LINE",
"241 206 LINE",
"237 206 LINE",
"239 700 LINE",
"105 700 LINE",
"127 0 LINE"
);
}
);
};
layerId = "1C004500-E2C5-4CA7-8B0E-089ECD41D52B";
paths = (
{
closed = 1;
nodes = (
"254 0 LINE",
"482 492 LINE",
"486 492 LINE",
"539 0 LINE",
"666 0 LINE",
"934 700 LINE",
"794 700 LINE",
"622 206 LINE",
"618 206 LINE",
"569 700 LINE",
"467 700 LINE",
"241 206 LINE",
"237 206 LINE",
"239 700 LINE",
"105 700 LINE",
"127 0 LINE"
);
}
);
width = 879;
},
{
anchors = (
{
name = bottom;
position = "{389, 0}";
},
{
name = top;
position = "{516, 700}";
}
);
background = {
paths = (
{
closed = 1;
nodes = (
"220 0 LINE",
"496 592 LINE",
"498 592 LINE",
"557 0 LINE",
"639 0 LINE",
"903 700 LINE",
"826 700 LINE",
"613 108 LINE",
"611 108 LINE",
"553 700 LINE",
"479 700 LINE",
"207 108 LINE",
"205 108 LINE",
"197 700 LINE",
"120 700 LINE",
"138 0 LINE"
);
}
);
};
layerId = "76B50E0D-F613-4BB6-AC9C-0F65D3239222";
paths = (
{
closed = 1;
nodes = (
"220 0 LINE",
"496 592 LINE",
"498 592 LINE",
"557 0 LINE",
"639 0 LINE",
"903 700 LINE",
"825 700 LINE",
"612 108 LINE",
"610 108 LINE",
"552 700 LINE",
"478 700 LINE",
"206 108 LINE",
"204 108 LINE",
"196 700 LINE",
"120 700 LINE",
"138 0 LINE"
);
}
);
width = 863;
},
{
anchors = (
{
name = bottom;
position = "{378, 0}";
},
{
name = top;
position = "{502, 700}";
}
);
background = {
paths = (
{
closed = 1;
nodes = (
"187 0 LINE",
"491 643 LINE",
"493 643 LINE",
"566 0 LINE",
"612 0 LINE",
"869 700 LINE",
"830 700 LINE",
"595 53 LINE",
"593 53 LINE",
"521 700 LINE",
"482 700 LINE",
"178 53 LINE",
"176 53 LINE",
"169 700 LINE",
"130 700 LINE",
"141 0 LINE"
);
}
);
};
layerId = "7E1D32E5-5329-438C-9451-496B813F8F3E";
paths = (
{
closed = 1;
nodes = (
"187 0 LINE",
"491 643 LINE",
"493 643 LINE",
"566 0 LINE",
"612 0 LINE",
"869 700 LINE",
"829 700 LINE",
"594 53 LINE",
"592 53 LINE",
"519 700 LINE",
"480 700 LINE",
"177 53 LINE",
"175 53 LINE",
"168 700 LINE",
"130 700 LINE",
"141 0 LINE"
);
}
);
width = 839;
}
);
leftKerningGroup = W;
note = W;
rightKerningGroup = W;
rightMetricsKey = "=|";
unicode = 0057;
},
{
glyphname = X;
layers = (
{
anchors = (
{
name = bottom;
position = "{280, 0}";
},
{
name = top;
position = "{280, 700}";
}
);
background = {
paths = (
{
closed = 1;
nodes = (
"540 0 LINE",
"74 700 LINE",
"30 700 LINE",
"496 0 LINE"
);
},
{
closed = 1;
nodes = (
"64 0 LINE",
"530 700 LINE",
"486 700 LINE",
"20 0 LINE"
);
}
);
};
layerId = "39D11A97-A6D9-4B52-A6F5-15D5E4373676";
paths = (
{
closed = 1;
nodes = (
"64 0 LINE",
"279 324 LINE",
"496 0 LINE",
"540 0 LINE",
"301 358 LINE",
"530 700 LINE",
"486 700 LINE",
"281 391 LINE",
"74 700 LINE",
"30 700 LINE",
"259 358 LINE",
"20 0 LINE"
);
}
);
width = 560;
},
{
anchors = (
{
name = bottom;
position = "{326, 0}";
},
{
name = top;
position = "{326, 700}";
}
);
background = {
paths = (
{
closed = 1;
nodes = (
"158 0 LINE",
"326 247 LINE",
"494 0 LINE",
"647 0 LINE",
"403 357 LINE",
"637 700 LINE",
"484 700 LINE",
"326 470 LINE",
"168 700 LINE",
"15 700 LINE",
"249 361 LINE",
"5 0 LINE"
);
}
);
};
layerId = "D6105F7E-CAE1-4F7B-A52E-8AA6E6082DF8";
paths = (
{
closed = 1;
nodes = (
"158 0 LINE",
"326 247 LINE",
"494 0 LINE",
"647 0 LINE",
"403 357 LINE",
"637 700 LINE",
"484 700 LINE",
"326 470 LINE",
"168 700 LINE",
"15 700 LINE",
"249 361 LINE",
"5 0 LINE"
);
}
);
width = 652;
},
{
anchors = (
{
name = bottom;
position = "{302, 0}";
},
{
name = top;
position = "{302, 700}";
}
);
background = {
paths = (
{
closed = 1;
nodes = (
"105 0 LINE",
"302 297 LINE",
"499 0 LINE",
"584 0 LINE",
"345 355 LINE",
"574 700 LINE",
"489 700 LINE",
"303 419 LINE",
"115 700 LINE",
"30 700 LINE",
"260 360 LINE",
"20 0 LINE"
);
}
);
};
layerId = "3C986DA2-2E28-42A4-B05D-29F449A87569";
paths = (
{
closed = 1;
nodes = (
"105 0 LINE",
"302 297 LINE",
"499 0 LINE",
"584 0 LINE",
"345 356 LINE",
"574 700 LINE",
"489 700 LINE",
"303 419 LINE",
"115 700 LINE",
"30 700 LINE",
"260 360 LINE",
"20 0 LINE"
);
}
);
width = 604;
},
{
anchors = (
{
name = bottom;
position = "{282, 0}";
},
{
name = top;
position = "{405, 700}";
}
);
background = {
paths = (
{
closed = 1;
nodes = (
"115 0 LINE",
"327 247 LINE",
"451 0 LINE",
"604 0 LINE",
"423 357 LINE",
"717 700 LINE",
"564 700 LINE",
"366 470 LINE",
"248 700 LINE",
"95 700 LINE",
"270 361 LINE",
"-38 0 LINE"
);
}
);
};
layerId = "1C004500-E2C5-4CA7-8B0E-089ECD41D52B";
paths = (
{
closed = 1;
nodes = (
"120 0 LINE",
"332 247 LINE",
"456 0 LINE",
"603 0 LINE",
"422 357 LINE",
"716 700 LINE",
"557 700 LINE",
"359 470 LINE",
"241 700 LINE",
"94 700 LINE",
"269 361 LINE",
"-39 0 LINE"
);
}
);
width = 652;
},
{
anchors = (
{
name = bottom;
position = "{259, 0}";
},
{
name = top;
position = "{382, 700}";
}
);
background = {
paths = (
{
closed = 1;
nodes = (
"62 0 LINE",
"311 297 LINE",
"456 0 LINE",
"541 0 LINE",
"365 356 LINE",
"654 700 LINE",
"569 700 LINE",
"334 419 LINE",
"195 700 LINE",
"110 700 LINE",
"280 360 LINE",
"-23 0 LINE"
);
}
);
};
layerId = "76B50E0D-F613-4BB6-AC9C-0F65D3239222";
paths = (
{
closed = 1;
nodes = (
"66 0 LINE",
"315 297 LINE",
"460 0 LINE",
"540 0 LINE",
"364 356 LINE",
"653 700 LINE",
"563 700 LINE",
"328 419 LINE",
"189 700 LINE",
"109 700 LINE",
"279 360 LINE",
"-24 0 LINE"
);
}
);
width = 604;
},
{
anchors = (
{
name = bottom;
position = "{236, 0}";
},
{
name = top;
position = "{359, 700}";
}
);
background = {
paths = (
{
closed = 1;
nodes = (
"21 0 LINE",
"293 324 LINE",
"453 0 LINE",
"497 0 LINE",
"321 358 LINE",
"610 700 LINE",
"566 700 LINE",
"307 391 LINE",
"154 700 LINE",
"110 700 LINE",
"279 358 LINE",
"-23 0 LINE"
);
}
);
};
layerId = "7E1D32E5-5329-438C-9451-496B813F8F3E";
paths = (
{
closed = 1;
nodes = (
"24 0 LINE",
"296 324 LINE",
"456 0 LINE",
"496 0 LINE",
"320 358 LINE",
"609 700 LINE",
"561 700 LINE",
"302 391 LINE",
"149 700 LINE",
"109 700 LINE",
"278 358 LINE",
"-24 0 LINE"
);
}
);
width = 560;
}
);
note = X;
rightMetricsKey = "=|";
unicode = 0058;
},
{
glyphname = Y;
layers = (
{
anchors = (
{
name = bottom;
position = "{275, 0}";
},
{
name = top;
position = "{275, 700}";
},
{
name = topleft;
position = "{-19, 700}";
}
);
background = {
anchors = (
{
name = bottom;
position = "{275, 0}";
},
{
name = top;
position = "{275, 700}";
},
{
name = topleft;
position = "{-19, 700}";
}
);
paths = (
{
closed = 1;
nodes = (
"295 0 LINE",
"295 296 LINE",
"527 700 LINE",
"485 700 LINE",
"276 332 LINE",
"274 332 LINE",
"67 700 LINE",
"25 700 LINE",
"256 296 LINE",
"256 0 LINE"
);
}
);
};
layerId = "39D11A97-A6D9-4B52-A6F5-15D5E4373676";
paths = (
{
closed = 1;
nodes = (
"295 0 LINE",
"295 296 LINE",
"527 700 LINE",
"485 700 LINE",
"276 332 LINE",
"274 332 LINE",
"67 700 LINE",
"25 700 LINE",
"256 296 LINE",
"256 0 LINE"
);
}
);
width = 552;
},
{
anchors = (
{
name = bottom;
position = "{317, 0}";
},
{
name = top;
position = "{317, 700}";
},
{
name = topleft;
position = "{26, 700}";
}
);
background = {
paths = (
{
closed = 1;
nodes = (
"400 0 LINE",
"400 286 LINE",
"649 700 LINE",
"500 700 LINE",
"333 413 LINE",
"331 413 LINE",
"164 700 LINE",
"15 700 LINE",
"264 286 LINE",
"264 0 LINE"
);
}
);
};
layerId = "D6105F7E-CAE1-4F7B-A52E-8AA6E6082DF8";
paths = (
{
closed = 1;
nodes = (
"385 0 LINE",
"385 286 LINE",
"634 700 LINE",
"485 700 LINE",
"318 413 LINE",
"316 413 LINE",
"149 700 LINE",
"0 700 LINE",
"249 286 LINE",
"249 0 LINE"
);
}
);
width = 634;
},
{
anchors = (
{
name = bottom;
position = "{296, 0}";
},
{
name = top;
position = "{296, 700}";
},
{
name = topleft;
position = "{1, 700}";
}
);
layerId = "3C986DA2-2E28-42A4-B05D-29F449A87569";
paths = (
{
closed = 1;
nodes = (
"334 0 LINE",
"334 292 LINE",
"577 700 LINE",
"495 700 LINE",
"297 361 LINE",
"295 361 LINE",
"97 700 LINE",
"15 700 LINE",
"258 292 LINE",
"258 0 LINE"
);
}
);
width = 592;
},
{
anchors = (
{
name = bottom;
position = "{273, 0}";
},
{
name = top;
position = "{388, 700}";
},
{
name = topleft;
position = "{106, 700}";
}
);
background = {
paths = (
{
closed = 1;
nodes = (
"342 0 LINE",
"392 286 LINE",
"714 700 LINE",
"557 700 LINE",
"339 413 LINE",
"337 413 LINE",
"221 700 LINE",
"80 700 LINE",
"256 286 LINE",
"206 0 LINE"
);
}
);
};
layerId = "1C004500-E2C5-4CA7-8B0E-089ECD41D52B";
paths = (
{
closed = 1;
nodes = (
"342 0 LINE",
"392 286 LINE",
"714 700 LINE",
"557 700 LINE",
"339 413 LINE",
"337 413 LINE",
"221 700 LINE",
"80 700 LINE",
"256 286 LINE",
"206 0 LINE"
);
}
);
width = 634;
},
{
anchors = (
{
name = bottom;
position = "{255, 0}";
},
{
name = top;
position = "{367, 700}";
},
{
name = topleft;
position = "{81, 700}";
}
);
background = {
paths = (
{
closed = 1;
nodes = (
"291 0 LINE",
"342 292 LINE",
"657 700 LINE",
"575 700 LINE",
"317 361 LINE",
"315 361 LINE",
"177 700 LINE",
"95 700 LINE",
"266 292 LINE",
"215 0 LINE"
);
}
);
};
layerId = "76B50E0D-F613-4BB6-AC9C-0F65D3239222";
paths = (
{
closed = 1;
nodes = (
"291 0 LINE",
"342 292 LINE",
"657 700 LINE",
"569 700 LINE",
"311 361 LINE",
"309 361 LINE",
"171 700 LINE",
"95 700 LINE",
"266 292 LINE",
"215 0 LINE"
);
}
);
width = 592;
},
{
anchors = (
{
name = bottom;
position = "{234, 0}";
},
{
name = top;
position = "{348, 700}";
},
{
name = topleft;
position = "{61, 700}";
}
);
background = {
paths = (
{
closed = 1;
nodes = (
"252 0 LINE",
"304 296 LINE",
"607 700 LINE",
"562 700 LINE",
"288 332 LINE",
"286 332 LINE",
"144 700 LINE",
"105 700 LINE",
"265 296 LINE",
"213 0 LINE"
);
}
);
};
layerId = "7E1D32E5-5329-438C-9451-496B813F8F3E";
paths = (
{
closed = 1;
nodes = (
"252 0 LINE",
"304 296 LINE",
"607 700 LINE",
"562 700 LINE",
"288 332 LINE",
"286 332 LINE",
"144 700 LINE",
"105 700 LINE",
"265 296 LINE",
"213 0 LINE"
);
}
);
width = 552;
}
);
leftKerningGroup = Y;
note = Y;
rightKerningGroup = Y;
rightMetricsKey = "=|";
unicode = 0059;
},
{
glyphname = Z;
layers = (
{
anchors = (
{
name = bottom;
position = "{290, 0}";
},
{
name = top;
position = "{281, 700}";
}
);
background = {
anchors = (
{
name = bottom;
position = "{284, 0}";
},
{
name = top;
position = "{281, 700}";
}
);
paths = (
{
closed = 1;
nodes = (
"491 0 LINE",
"491 35 LINE",
"100 35 LINE",
"100 37 LINE",
"491 655 LINE",
"491 700 LINE",
"70 700 LINE",
"70 665 LINE",
"451 665 LINE",
"451 663 LINE",
"60 45 LINE",
"60 0 LINE"
);
}
);
};
layerId = "39D11A97-A6D9-4B52-A6F5-15D5E4373676";
paths = (
{
closed = 1;
nodes = (
"491 0 LINE",
"491 34 LINE",
"100 34 LINE",
"100 36 LINE",
"491 656 LINE",
"491 700 LINE",
"70 700 LINE",
"70 666 LINE",
"451 666 LINE",
"451 664 LINE",
"60 44 LINE",
"66 0 LINE"
);
}
);
width = 551;
},
{
anchors = (
{
name = bottom;
position = "{297, 0}";
},
{
name = top;
position = "{301, 700}";
}
);
background = {
paths = (
{
closed = 1;
nodes = (
"572 0 LINE",
"572 114 LINE",
"213 114 LINE",
"213 116 LINE",
"572 592 LINE",
"572 700 LINE",
"60 700 LINE",
"60 586 LINE",
"409 586 LINE",
"409 584 LINE",
"50 108 LINE",
"50 0 LINE"
);
}
);
};
layerId = "D6105F7E-CAE1-4F7B-A52E-8AA6E6082DF8";
paths = (
{
closed = 1;
nodes = (
"557 0 LINE",
"557 114 LINE",
"198 114 LINE",
"198 116 LINE",
"557 592 LINE",
"557 700 LINE",
"45 700 LINE",
"45 586 LINE",
"394 586 LINE",
"394 584 LINE",
"35 108 LINE",
"35 0 LINE"
);
}
);
width = 592;
},
{
anchors = (
{
name = bottom;
position = "{285, 0}";
},
{
name = top;
position = "{289, 700}";
}
);
layerId = "3C986DA2-2E28-42A4-B05D-29F449A87569";
paths = (
{
closed = 1;
nodes = (
"518 0 LINE",
"518 65 LINE",
"131 65 LINE",
"131 67 LINE",
"518 625 LINE",
"518 700 LINE",
"60 700 LINE",
"60 635 LINE",
"437 635 LINE",
"437 633 LINE",
"50 75 LINE",
"50 0 LINE"
);
}
);
width = 568;
},
{
anchors = (
{
name = bottom;
position = "{259, 0}";
},
{
name = top;
position = "{380, 700}";
}
);
background = {
paths = (
{
closed = 1;
nodes = (
"513 0 LINE",
"533 114 LINE",
"174 114 LINE",
"174 116 LINE",
"617 592 LINE",
"636 700 LINE",
"124 700 LINE",
"104 586 LINE",
"453 586 LINE",
"453 584 LINE",
"10 108 LINE",
"-9 0 LINE"
);
}
);
};
layerId = "1C004500-E2C5-4CA7-8B0E-089ECD41D52B";
paths = (
{
closed = 1;
nodes = (
"513 0 LINE",
"533 114 LINE",
"174 114 LINE",
"174 116 LINE",
"617 592 LINE",
"636 700 LINE",
"124 700 LINE",
"104 586 LINE",
"453 586 LINE",
"453 584 LINE",
"10 108 LINE",
"-9 0 LINE"
);
}
);
width = 592;
},
{
anchors = (
{
name = bottom;
position = "{242, 0}";
},
{
name = top;
position = "{369, 700}";
}
);
background = {
paths = (
{
closed = 1;
nodes = (
"475 0 LINE",
"486 65 LINE",
"99 65 LINE",
"100 67 LINE",
"585 625 LINE",
"598 700 LINE",
"140 700 LINE",
"129 635 LINE",
"506 635 LINE",
"506 633 LINE",
"20 75 LINE",
"7 0 LINE"
);
}
);
};
layerId = "76B50E0D-F613-4BB6-AC9C-0F65D3239222";
paths = (
{
closed = 1;
nodes = (
"474 0 LINE",
"485 65 LINE",
"97 65 LINE",
"98 67 LINE",
"584 625 LINE",
"597 700 LINE",
"139 700 LINE",
"128 635 LINE",
"505 635 LINE",
"505 633 LINE",
"19 75 LINE",
"6 0 LINE"
);
}
);
width = 568;
},
{
anchors = (
{
name = bottom;
position = "{244, 0}";
},
{
name = top;
position = "{360, 700}";
}
);
background = {
paths = (
{
closed = 1;
nodes = (
"448 0 LINE",
"454 34 LINE",
"63 34 LINE",
"63 36 LINE",
"564 656 LINE",
"571 700 LINE",
"150 700 LINE",
"144 666 LINE",
"525 666 LINE",
"525 664 LINE",
"25 44 LINE",
"17 0 LINE"
);
}
);
};
layerId = "7E1D32E5-5329-438C-9451-496B813F8F3E";
paths = (
{
closed = 1;
nodes = (
"447 0 LINE",
"453 34 LINE",
"62 34 LINE",
"62 36 LINE",
"563 656 LINE",
"570 700 LINE",
"149 700 LINE",
"143 666 LINE",
"524 666 LINE",
"524 664 LINE",
"24 44 LINE",
"17 0 LINE"
);
}
);
width = 551;
}
);
leftKerningGroup = Z;
note = Z;
rightKerningGroup = Z;
unicode = 005A;
},
{
glyphname = a;
layers = (
{
anchors = (
{
name = bottom;
position = "{266, 0}";
},
{
name = ogonek;
position = "{454, 0}";
},
{
name = top;
position = "{273, 498}";
}
);
background = {
paths = (
{
closed = 1;
nodes = (
"308 0 LINE",
"416 106 LINE",
"416 0 LINE",
"454 0 LINE",
"454 416 LINE",
"372 498 LINE",
"156 498 LINE",
"74 416 LINE",
"74 353 LINE",
"112 353 LINE",
"112 402 LINE",
"174 462 LINE",
"355 462 LINE",
"416 402 LINE",
"416 276 LINE",
"142 276 LINE",
"70 206 LINE",
"70 72 LINE",
"142 0 LINE"
);
},
{
closed = 1;
nodes = (
"108 84 LINE",
"108 194 LINE",
"156 240 LINE",
"416 240 LINE",
"416 154 LINE",
"296 36 LINE",
"156 36 LINE"
);
}
);
};
layerId = "39D11A97-A6D9-4B52-A6F5-15D5E4373676";
paths = (
{
closed = 1;
nodes = (
"308 0 LINE",
"416 106 LINE",
"416 0 LINE",
"454 0 LINE",
"454 416 LINE",
"372 498 LINE",
"156 498 LINE",
"74 416 LINE",
"74 353 LINE",
"112 353 LINE",
"112 403 LINE",
"173 463 LINE",
"355 463 LINE",
"416 403 LINE",
"416 275 LINE",
"141 275 LINE",
"70 206 LINE",
"70 72 LINE",
"142 0 LINE"
);
},
{
closed = 1;
nodes = (
"108 83 LINE",
"108 194 LINE",
"156 240 LINE",
"416 240 LINE",
"416 154 LINE",
"296 35 LINE",
"156 35 LINE"
);
}
);
width = 534;
},
{
anchors = (
{
name = bottom;
position = "{290, 0}";
},
{
name = ogonek;
position = "{520, 0}";
},
{
name = top;
position = "{290, 498}";
}
);
background = {
paths = (
{
closed = 1;
nodes = (
"327 0 LINE",
"401 71 LINE",
"401 0 LINE",
"520 0 LINE",
"520 390 LINE",
"413 498 LINE",
"156 498 LINE",
"49 390 LINE",
"49 333 LINE",
"179 333 LINE",
"179 361 LINE",
"209 392 LINE",
"359 392 LINE",
"390 361 LINE",
"390 298 LINE",
"137 298 LINE",
"45 206 LINE",
"45 92 LINE",
"137 0 LINE"
);
},
{
closed = 1;
nodes = (
"175 127 LINE",
"175 177 LINE",
"202 204 LINE",
"390 204 LINE",
"390 171 LINE",
"318 102 LINE",
"200 102 LINE"
);
}
);
};
layerId = "D6105F7E-CAE1-4F7B-A52E-8AA6E6082DF8";
paths = (
{
closed = 1;
nodes = (
"327 0 LINE",
"401 71 LINE",
"401 0 LINE",
"520 0 LINE",
"520 390 LINE",
"413 498 LINE",
"156 498 LINE",
"49 390 LINE",
"49 333 LINE",
"179 333 LINE",
"179 361 LINE",
"209 392 LINE",
"359 392 LINE",
"390 361 LINE",
"390 298 LINE",
"137 298 LINE",
"45 206 LINE",
"45 92 LINE",
"137 0 LINE"
);
},
{
closed = 1;
nodes = (
"175 127 LINE",
"175 177 LINE",
"202 204 LINE",
"390 204 LINE",
"390 171 LINE",
"318 102 LINE",
"200 102 LINE"
);
}
);
width = 575;
},
{
anchors = (
{
name = bottom;
position = "{276, 0}";
},
{
name = ogonek;
position = "{481, 0}";
},
{
name = top;
position = "{276, 498}";
}
);
layerId = "3C986DA2-2E28-42A4-B05D-29F449A87569";
paths = (
{
closed = 1;
nodes = (
"318 0 LINE",
"410 88 LINE",
"410 0 LINE",
"481 0 LINE",
"481 406 LINE",
"389 498 LINE",
"156 498 LINE",
"64 406 LINE",
"64 344 LINE",
"138 344 LINE",
"138 385 LINE",
"188 434 LINE",
"358 434 LINE",
"408 385 LINE",
"408 290 LINE",
"142 290 LINE",
"60 209 LINE",
"60 82 LINE",
"142 0 LINE"
);
},
{
closed = 1;
nodes = (
"134 103 LINE",
"134 187 LINE",
"174 226 LINE",
"408 226 LINE",
"408 165 LINE",
"303 64 LINE",
"174 64 LINE"
);
}
);
width = 551;
},
{
anchors = (
{
name = bottom;
position = "{250, 0}";
},
{
name = ogonek;
position = "{476, 0}";
},
{
name = top;
position = "{334, 498}";
}
);
background = {
paths = (
{
closed = 1;
nodes = (
"283 0 LINE",
"369 71 LINE",
"357 0 LINE",
"476 0 LINE",
"544 382 LINE",
"449 498 LINE",
"192 498 LINE",
"76 398 LINE",
"63 333 LINE",
"193 333 LINE",
"198 361 LINE",
"234 392 LINE",
"384 392 LINE",
"409 361 LINE",
"398 298 LINE",
"139 298 LINE",
"38 212 LINE",
"19 100 LINE",
"101 0 LINE"
);
},
{
closed = 1;
nodes = (
"153 127 LINE",
"162 177 LINE",
"194 204 LINE",
"382 204 LINE",
"376 171 LINE",
"292 102 LINE",
"174 102 LINE"
);
}
);
};
layerId = "1C004500-E2C5-4CA7-8B0E-089ECD41D52B";
paths = (
{
closed = 1;
nodes = (
"283 0 LINE",
"369 71 LINE",
"357 0 LINE",
"476 0 LINE",
"543 382 LINE",
"448 498 LINE",
"192 498 LINE",
"76 398 LINE",
"63 333 LINE",
"193 333 LINE",
"198 361 LINE",
"234 392 LINE",
"383 392 LINE",
"408 361 LINE",
"398 298 LINE",
"139 298 LINE",
"38 212 LINE",
"19 100 LINE",
"101 0 LINE"
);
},
{
closed = 1;
nodes = (
"153 127 LINE",
"162 177 LINE",
"194 204 LINE",
"382 204 LINE",
"376 171 LINE",
"292 102 LINE",
"174 102 LINE"
);
}
);
width = 575;
},
{
anchors = (
{
name = bottom;
position = "{235, 0}";
},
{
name = ogonek;
position = "{437, 0}";
},
{
name = top;
position = "{320, 498}";
}
);
background = {
paths = (
{
closed = 1;
nodes = (
"274 0 LINE",
"381 88 LINE",
"366 0 LINE",
"437 0 LINE",
"508 405 LINE",
"431 498 LINE",
"199 498 LINE",
"91 406 LINE",
"80 344 LINE",
"154 344 LINE",
"161 385 LINE",
"220 434 LINE",
"390 434 LINE",
"431 385 LINE",
"415 290 LINE",
"149 290 LINE",
"53 210 LINE",
"31 84 LINE",
"101 0 LINE"
);
},
{
closed = 1;
nodes = (
"108 103 LINE",
"123 187 LINE",
"169 226 LINE",
"403 226 LINE",
"393 165 LINE",
"270 64 LINE",
"141 64 LINE"
);
}
);
};
layerId = "76B50E0D-F613-4BB6-AC9C-0F65D3239222";
paths = (
{
closed = 1;
nodes = (
"274 0 LINE",
"381 88 LINE",
"366 0 LINE",
"437 0 LINE",
"508 405 LINE",
"431 498 LINE",
"198 498 LINE",
"91 407 LINE",
"80 344 LINE",
"154 344 LINE",
"161 385 LINE",
"220 434 LINE",
"390 434 LINE",
"431 385 LINE",
"415 290 LINE",
"149 290 LINE",
"53 210 LINE",
"31 84 LINE",
"101 0 LINE"
);
},
{
closed = 1;
nodes = (
"108 103 LINE",
"123 187 LINE",
"169 226 LINE",
"403 226 LINE",
"393 165 LINE",
"270 64 LINE",
"141 64 LINE"
);
}
);
width = 551;
},
{
anchors = (
{
name = bottom;
position = "{227, 0}";
},
{
name = ogonek;
position = "{410, 0}";
},
{
name = top;
position = "{313, 498}";
}
);
background = {
paths = (
{
closed = 1;
nodes = (
"264 0 LINE",
"391 106 LINE",
"372 0 LINE",
"410 0 LINE",
"483 413 LINE",
"412 498 LINE",
"196 498 LINE",
"104 420 LINE",
"93 353 LINE",
"131 353 LINE",
"139 403 LINE",
"211 463 LINE",
"393 463 LINE",
"443 403 LINE",
"421 275 LINE",
"143 275 LINE",
"63 209 LINE",
"39 69 LINE",
"95 0 LINE"
);
},
{
closed = 1;
nodes = (
"79 83 LINE",
"99 194 LINE",
"155 240 LINE",
"415 240 LINE",
"399 154 LINE",
"256 35 LINE",
"118 35 LINE"
);
}
);
};
layerId = "7E1D32E5-5329-438C-9451-496B813F8F3E";
paths = (
{
closed = 1;
nodes = (
"264 0 LINE",
"391 106 LINE",
"372 0 LINE",
"410 0 LINE",
"483 413 LINE",
"412 498 LINE",
"196 498 LINE",
"104 420 LINE",
"93 353 LINE",
"131 353 LINE",
"139 403 LINE",
"211 463 LINE",
"393 463 LINE",
"443 403 LINE",
"421 275 LINE",
"143 275 LINE",
"63 209 LINE",
"40 74 LINE",
"100 0 LINE"
);
},
{
closed = 1;
nodes = (
"79 83 LINE",
"99 194 LINE",
"155 240 LINE",
"415 240 LINE",
"399 154 LINE",
"256 35 LINE",
"118 35 LINE"
);
}
);
width = 534;
}
);
leftKerningGroup = a;
note = a;
rightKerningGroup = n;
rightMetricsKey = n;
unicode = 0061;
},
{
glyphname = "alpha-latin";
layers = (
{
background = {
paths = (
{
closed = 1;
nodes = (
"334 0 LINE",
"440 106 LINE",
"440 26 LINE",
"466 0 LINE",
"548 0 LINE",
"548 32 LINE",
"478 32 LINE",
"478 498 LINE",
"440 498 LINE",
"440 412 LINE",
"339 498 LINE",
"157 498 LINE",
"75 416 LINE",
"75 82 LINE",
"157 0 LINE"
);
},
{
closed = 1;
nodes = (
"113 94 LINE",
"113 404 LINE",
"172 462 LINE",
"326 462 LINE",
"440 365 LINE",
"440 155 LINE",
"321 36 LINE",
"172 36 LINE"
);
}
);
};
layerId = "39D11A97-A6D9-4B52-A6F5-15D5E4373676";
paths = (
{
closed = 1;
nodes = (
"334 0 LINE",
"440 106 LINE",
"440 25 LINE",
"465 0 LINE",
"548 0 LINE",
"548 32 LINE",
"478 32 LINE",
"478 498 LINE",
"440 498 LINE",
"440 411 LINE",
"339 498 LINE",
"157 498 LINE",
"75 416 LINE",
"75 82 LINE",
"157 0 LINE"
);
},
{
closed = 1;
nodes = (
"113 94 LINE",
"113 404 LINE",
"172 463 LINE",
"326 463 LINE",
"440 365 LINE",
"440 155 LINE",
"321 35 LINE",
"172 35 LINE"
);
}
);
width = 578;
},
{
background = {
paths = (
{
closed = 1;
nodes = (
"345 0 LINE",
"428 81 LINE",
"428 50 LINE",
"478 0 LINE",
"612 0 LINE",
"612 110 LINE",
"542 110 LINE",
"542 498 LINE",
"420 498 LINE",
"420 441 LINE",
"358 498 LINE",
"153 498 LINE",
"50 394 LINE",
"50 104 LINE",
"153 0 LINE"
);
},
{
closed = 1;
nodes = (
"182 151 LINE",
"182 347 LINE",
"220 386 LINE",
"340 386 LINE",
"410 325 LINE",
"410 195 LINE",
"327 112 LINE",
"220 112 LINE"
);
}
);
};
layerId = "D6105F7E-CAE1-4F7B-A52E-8AA6E6082DF8";
paths = (
{
closed = 1;
nodes = (
"345 0 LINE",
"428 81 LINE",
"428 50 LINE",
"478 0 LINE",
"612 0 LINE",
"612 110 LINE",
"542 110 LINE",
"542 498 LINE",
"420 498 LINE",
"420 440 LINE",
"354 498 LINE",
"153 498 LINE",
"50 394 LINE",
"50 104 LINE",
"153 0 LINE"
);
},
{
closed = 1;
nodes = (
"182 151 LINE",
"182 347 LINE",
"220 386 LINE",
"340 386 LINE",
"410 325 LINE",
"410 195 LINE",
"327 112 LINE",
"220 112 LINE"
);
}
);
width = 617;
},
{
layerId = "3C986DA2-2E28-42A4-B05D-29F449A87569";
paths = (
{
closed = 1;
nodes = (
"342 0 LINE",
"433 91 LINE",
"433 49 LINE",
"476 0 LINE",
"575 0 LINE",
"575 62 LINE",
"505 62 LINE",
"505 498 LINE",
"433 498 LINE",
"433 432 LINE",
"356 498 LINE",
"157 498 LINE",
"65 406 LINE",
"65 92 LINE",
"157 0 LINE"
);
},
{
closed = 1;
nodes = (
"139 115 LINE",
"139 383 LINE",
"189 432 LINE",
"340 432 LINE",
"431 354 LINE",
"431 171 LINE",
"326 66 LINE",
"189 66 LINE"
);
}
);
width = 595;
},
{
background = {
paths = (
{
closed = 1;
nodes = (
"302 0 LINE",
"399 81 LINE",
"393 50 LINE",
"435 0 LINE",
"569 0 LINE",
"588 110 LINE",
"518 110 LINE",
"586 498 LINE",
"464 498 LINE",
"454 440 LINE",
"398 498 LINE",
"197 498 LINE",
"76 394 LINE",
"25 104 LINE",
"110 0 LINE"
);
},
{
closed = 1;
nodes = (
"165 151 LINE",
"200 347 LINE",
"245 386 LINE",
"365 386 LINE",
"424 325 LINE",
"401 195 LINE",
"303 112 LINE",
"196 112 LINE"
);
}
);
};
layerId = "1C004500-E2C5-4CA7-8B0E-089ECD41D52B";
paths = (
{
closed = 1;
nodes = (
"302 0 LINE",
"399 81 LINE",
"393 50 LINE",
"435 0 LINE",
"568 0 LINE",
"587 110 LINE",
"518 110 LINE",
"586 498 LINE",
"464 498 LINE",
"453 433 LINE",
"390 498 LINE",
"189 498 LINE",
"77 402 LINE",
"26 112 LINE",
"118 0 LINE"
);
},
{
closed = 1;
nodes = (
"165 151 LINE",
"200 347 LINE",
"245 386 LINE",
"365 386 LINE",
"424 325 LINE",
"401 195 LINE",
"303 112 LINE",
"196 112 LINE"
);
}
);
width = 617;
},
{
background = {
paths = (
{
closed = 1;
nodes = (
"299 0 LINE",
"406 91 LINE",
"398 49 LINE",
"433 0 LINE",
"532 0 LINE",
"543 62 LINE",
"473 62 LINE",
"550 498 LINE",
"478 498 LINE",
"466 432 LINE",
"401 498 LINE",
"202 498 LINE",
"93 406 LINE",
"38 92 LINE",
"114 0 LINE"
);
},
{
closed = 1;
nodes = (
"116 115 LINE",
"163 383 LINE",
"222 432 LINE",
"373 432 LINE",
"450 354 LINE",
"418 171 LINE",
"294 66 LINE",
"157 66 LINE"
);
}
);
};
layerId = "76B50E0D-F613-4BB6-AC9C-0F65D3239222";
paths = (
{
closed = 1;
nodes = (
"299 0 LINE",
"406 91 LINE",
"398 49 LINE",
"433 0 LINE",
"531 0 LINE",
"542 62 LINE",
"473 62 LINE",
"550 498 LINE",
"478 498 LINE",
"465 430 LINE",
"398 498 LINE",
"194 498 LINE",
"94 413 LINE",
"38 93 LINE",
"115 0 LINE"
);
},
{
closed = 1;
nodes = (
"116 115 LINE",
"163 383 LINE",
"222 432 LINE",
"373 432 LINE",
"450 354 LINE",
"418 171 LINE",
"294 66 LINE",
"157 66 LINE"
);
}
);
width = 595;
},
{
background = {
paths = (
{
closed = 1;
nodes = (
"290 0 LINE",
"414 106 LINE",
"400 25 LINE",
"421 0 LINE",
"504 0 LINE",
"509 32 LINE",
"439 32 LINE",
"521 498 LINE",
"483 498 LINE",
"463 385 LINE",
"373 498 LINE",
"196 498 LINE",
"105 420 LINE",
"46 86 LINE",
"117 0 LINE"
);
},
{
closed = 1;
nodes = (
"85 94 LINE",
"140 404 LINE",
"209 463 LINE",
"356 463 LINE",
"455 340 LINE",
"423 157 LINE",
"281 35 LINE",
"134 35 LINE"
);
}
);
};
layerId = "7E1D32E5-5329-438C-9451-496B813F8F3E";
paths = (
{
closed = 1;
nodes = (
"290 0 LINE",
"414 106 LINE",
"400 25 LINE",
"421 0 LINE",
"504 0 LINE",
"509 32 LINE",
"439 32 LINE",
"521 498 LINE",
"483 498 LINE",
"463 385 LINE",
"373 498 LINE",
"196 498 LINE",
"105 420 LINE",
"46 86 LINE",
"117 0 LINE"
);
},
{
closed = 1;
nodes = (
"85 94 LINE",
"140 404 LINE",
"209 463 LINE",
"356 463 LINE",
"455 340 LINE",
"423 157 LINE",
"281 35 LINE",
"134 35 LINE"
);
}
);
width = 578;
}
);
leftKerningGroup = o;
leftMetricsKey = d;
note = ascript;
unicode = 0251;
},
{
glyphname = ae;
layers = (
{
anchors = (
{
name = bottom;
position = "{434, 0}";
},
{
name = top;
position = "{441, 498}";
}
);
background = {
paths = (
{
closed = 1;
nodes = (
"713 0 LINE",
"796 83 LINE",
"796 144 LINE",
"758 144 LINE",
"758 96 LINE",
"696 36 LINE",
"515 36 LINE",
"454 97 LINE",
"454 240 LINE",
"797 240 LINE",
"797 416 LINE",
"714 498 LINE",
"498 498 LINE",
"416 416 LINE",
"416 85 LINE",
"501 0 LINE"
);
},
{
closed = 1;
nodes = (
"108 84 LINE",
"108 194 LINE",
"156 240 LINE",
"416 240 LINE",
"416 124 LINE",
"326 36 LINE",
"156 36 LINE"
);
},
{
closed = 1;
nodes = (
"338 0 LINE",
"454 113 LINE",
"454 416 LINE",
"372 498 LINE",
"156 498 LINE",
"74 416 LINE",
"74 353 LINE",
"112 353 LINE",
"112 402 LINE",
"174 462 LINE",
"355 462 LINE",
"416 402 LINE",
"416 276 LINE",
"142 276 LINE",
"70 206 LINE",
"70 72 LINE",
"142 0 LINE"
);
},
{
closed = 1;
nodes = (
"454 402 LINE",
"514 462 LINE",
"699 462 LINE",
"759 402 LINE",
"759 275 LINE",
"454 275 LINE"
);
}
);
};
layerId = "39D11A97-A6D9-4B52-A6F5-15D5E4373676";
paths = (
{
closed = 1;
nodes = (
"338 0 LINE",
"454 113 LINE",
"454 416 LINE",
"372 498 LINE",
"156 498 LINE",
"74 416 LINE",
"74 353 LINE",
"112 353 LINE",
"112 402 LINE",
"173 463 LINE",
"355 463 LINE",
"416 402 LINE",
"416 275 LINE",
"142 275 LINE",
"70 205 LINE",
"70 72 LINE",
"142 0 LINE"
);
},
{
closed = 1;
nodes = (
"108 83 LINE",
"108 192 LINE",
"156 240 LINE",
"416 240 LINE",
"416 123 LINE",
"326 35 LINE",
"156 35 LINE"
);
},
{
closed = 1;
nodes = (
"713 0 LINE",
"796 83 LINE",
"796 144 LINE",
"758 144 LINE",
"758 96 LINE",
"697 35 LINE",
"515 35 LINE",
"454 96 LINE",
"454 240 LINE",
"797 240 LINE",
"797 416 LINE",
"714 498 LINE",
"498 498 LINE",
"416 416 LINE",
"416 85 LINE",
"501 0 LINE"
);
},
{
closed = 1;
nodes = (
"454 403 LINE",
"514 463 LINE",
"699 463 LINE",
"759 403 LINE",
"759 274 LINE",
"454 274 LINE"
);
}
);
width = 867;
},
{
anchors = (
{
name = bottom;
position = "{456, 0}";
},
{
name = top;
position = "{463, 498}";
}
);
background = {
paths = (
{
closed = 1;
nodes = (
"763 0 LINE",
"869 106 LINE",
"869 171 LINE",
"737 171 LINE",
"737 141 LINE",
"706 110 LINE",
"560 110 LINE",
"527 143 LINE",
"527 206 LINE",
"870 206 LINE",
"870 390 LINE",
"761 498 LINE",
"515 498 LINE",
"397 380 LINE",
"397 108 LINE",
"505 0 LINE"
);
},
{
closed = 1;
nodes = (
"176 131 LINE",
"176 176 LINE",
"203 203 LINE",
"395 203 LINE",
"395 167 LINE",
"332 104 LINE",
"203 104 LINE"
);
},
{
closed = 1;
nodes = (
"374 0 LINE",
"525 151 LINE",
"525 380 LINE",
"407 498 LINE",
"156 498 LINE",
"48 390 LINE",
"48 331 LINE",
"180 331 LINE",
"180 359 LINE",
"211 390 LINE",
"363 390 LINE",
"395 359 LINE",
"395 299 LINE",
"143 299 LINE",
"44 202 LINE",
"44 98 LINE",
"142 0 LINE"
);
},
{
closed = 1;
nodes = (
"527 357 LINE",
"560 390 LINE",
"705 390 LINE",
"738 357 LINE",
"738 298 LINE",
"527 298 LINE"
);
}
);
};
layerId = "D6105F7E-CAE1-4F7B-A52E-8AA6E6082DF8";
paths = (
{
closed = 1;
nodes = (
"374 0 LINE",
"525 151 LINE",
"525 380 LINE",
"407 498 LINE",
"156 498 LINE",
"49 390 LINE",
"49 333 LINE",
"179 333 LINE",
"179 361 LINE",
"209 392 LINE",
"359 392 LINE",
"390 361 LINE",
"390 298 LINE",
"137 298 LINE",
"45 206 LINE",
"45 92 LINE",
"137 0 LINE"
);
},
{
closed = 1;
nodes = (
"175 127 LINE",
"175 177 LINE",
"202 204 LINE",
"395 204 LINE",
"395 167 LINE",
"330 102 LINE",
"200 102 LINE"
);
},
{
closed = 1;
nodes = (
"763 0 LINE",
"869 106 LINE",
"869 171 LINE",
"737 171 LINE",
"737 141 LINE",
"706 110 LINE",
"560 110 LINE",
"527 143 LINE",
"527 206 LINE",
"870 206 LINE",
"870 390 LINE",
"761 498 LINE",
"515 498 LINE",
"397 380 LINE",
"397 108 LINE",
"505 0 LINE"
);
},
{
closed = 1;
nodes = (
"527 357 LINE",
"560 390 LINE",
"705 390 LINE",
"738 357 LINE",
"738 298 LINE",
"527 298 LINE"
);
}
);
width = 915;
},
{
anchors = (
{
name = bottom;
position = "{442, 0}";
},
{
name = top;
position = "{447, 498}";
}
);
layerId = "3C986DA2-2E28-42A4-B05D-29F449A87569";
paths = (
{
closed = 1;
nodes = (
"338 0 LINE",
"482 144 LINE",
"482 406 LINE",
"390 498 LINE",
"156 498 LINE",
"64 406 LINE",
"64 344 LINE",
"138 344 LINE",
"138 385 LINE",
"188 434 LINE",
"358 434 LINE",
"408 385 LINE",
"408 290 LINE",
"142 290 LINE",
"60 209 LINE",
"60 82 LINE",
"142 0 LINE"
);
},
{
closed = 1;
nodes = (
"134 103 LINE",
"134 187 LINE",
"174 226 LINE",
"408 226 LINE",
"408 159 LINE",
"313 64 LINE",
"174 64 LINE"
);
},
{
closed = 1;
nodes = (
"734 0 LINE",
"826 92 LINE",
"826 154 LINE",
"752 154 LINE",
"752 115 LINE",
"702 66 LINE",
"532 66 LINE",
"482 115 LINE",
"482 227 LINE",
"826 227 LINE",
"826 406 LINE",
"734 498 LINE",
"500 498 LINE",
"408 406 LINE",
"408 92 LINE",
"500 0 LINE"
);
},
{
closed = 1;
nodes = (
"482 383 LINE",
"532 432 LINE",
"702 432 LINE",
"752 383 LINE",
"752 291 LINE",
"482 291 LINE"
);
}
);
width = 886;
},
{
anchors = (
{
name = bottom;
position = "{411, 0}";
},
{
name = top;
position = "{506, 498}";
}
);
background = {
paths = (
{
closed = 1;
nodes = (
"329 0 LINE",
"506 151 LINE",
"547 380 LINE",
"450 498 LINE",
"192 498 LINE",
"76 398 LINE",
"63 333 LINE",
"193 333 LINE",
"198 361 LINE",
"234 392 LINE",
"386 392 LINE",
"413 361 LINE",
"402 298 LINE",
"140 298 LINE",
"38 212 LINE",
"19 100 LINE",
"101 0 LINE"
);
},
{
closed = 1;
nodes = (
"153 127 LINE",
"162 177 LINE",
"194 204 LINE",
"386 204 LINE",
"379 165 LINE",
"305 102 LINE",
"174 102 LINE"
);
},
{
closed = 1;
nodes = (
"735 0 LINE",
"840 90 LINE",
"853 165 LINE",
"723 165 LINE",
"719 139 LINE",
"683 108 LINE",
"533 108 LINE",
"507 141 LINE",
"518 205 LINE",
"861 205 LINE",
"893 386 LINE",
"801 498 LINE",
"555 498 LINE",
"422 382 LINE",
"373 118 LINE",
"469 0 LINE"
);
},
{
closed = 1;
nodes = (
"545 355 LINE",
"585 390 LINE",
"728 390 LINE",
"756 355 LINE",
"745 297 LINE",
"534 297 LINE"
);
}
);
};
layerId = "1C004500-E2C5-4CA7-8B0E-089ECD41D52B";
paths = (
{
closed = 1;
nodes = (
"329 0 LINE",
"506 151 LINE",
"547 380 LINE",
"450 498 LINE",
"192 498 LINE",
"76 398 LINE",
"63 333 LINE",
"193 333 LINE",
"198 361 LINE",
"234 392 LINE",
"386 392 LINE",
"413 361 LINE",
"402 298 LINE",
"140 298 LINE",
"38 212 LINE",
"19 100 LINE",
"101 0 LINE"
);
},
{
closed = 1;
nodes = (
"153 127 LINE",
"162 177 LINE",
"194 204 LINE",
"386 204 LINE",
"379 165 LINE",
"305 102 LINE",
"174 102 LINE"
);
},
{
closed = 1;
nodes = (
"736 0 LINE",
"841 90 LINE",
"854 165 LINE",
"724 165 LINE",
"720 139 LINE",
"684 108 LINE",
"533 108 LINE",
"507 141 LINE",
"518 205 LINE",
"862 205 LINE",
"894 386 LINE",
"802 498 LINE",
"555 498 LINE",
"422 382 LINE",
"373 118 LINE",
"469 0 LINE"
);
},
{
closed = 1;
nodes = (
"545 355 LINE",
"585 390 LINE",
"729 390 LINE",
"757 355 LINE",
"746 297 LINE",
"534 297 LINE"
);
}
);
width = 915;
},
{
anchors = (
{
name = bottom;
position = "{399, 0}";
},
{
name = top;
position = "{491, 498}";
}
);
background = {
paths = (
{
closed = 1;
nodes = (
"696 0 LINE",
"796 85 LINE",
"809 153 LINE",
"735 153 LINE",
"728 115 LINE",
"669 66 LINE",
"500 66 LINE",
"459 115 LINE",
"479 227 LINE",
"822 227 LINE",
"853 402 LINE",
"774 498 LINE",
"536 498 LINE",
"437 414 LINE",
"381 93 LINE",
"458 0 LINE"
);
},
{
closed = 1;
nodes = (
"506 383 LINE",
"565 432 LINE",
"735 432 LINE",
"776 383 LINE",
"760 291 LINE",
"490 291 LINE"
);
},
{
closed = 0;
nodes = (
"99 0 LINE",
"295 0 LINE",
"464 144 LINE",
"510 406 LINE"
);
},
{
closed = 0;
nodes = (
"509 405 LINE",
"432 498 LINE",
"199 498 LINE",
"92 407 LINE",
"81 344 LINE",
"155 344 LINE",
"162 385 LINE",
"221 434 LINE",
"391 434 LINE",
"432 385 LINE",
"416 290 LINE",
"150 290 LINE",
"54 210 LINE",
"32 84 LINE",
"102 0 LINE"
);
},
{
closed = 1;
nodes = (
"109 103 LINE",
"124 187 LINE",
"170 226 LINE",
"404 226 LINE",
"393 159 LINE",
"281 64 LINE",
"142 64 LINE"
);
}
);
};
layerId = "76B50E0D-F613-4BB6-AC9C-0F65D3239222";
paths = (
{
closed = 1;
nodes = (
"295 0 LINE",
"463 141 LINE",
"509 404 LINE",
"432 498 LINE",
"198 498 LINE",
"91 407 LINE",
"80 344 LINE",
"154 344 LINE",
"161 385 LINE",
"220 434 LINE",
"391 434 LINE",
"432 385 LINE",
"416 290 LINE",
"149 290 LINE",
"53 210 LINE",
"31 84 LINE",
"101 0 LINE"
);
},
{
closed = 1;
nodes = (
"108 103 LINE",
"123 187 LINE",
"169 226 LINE",
"404 226 LINE",
"393 159 LINE",
"281 64 LINE",
"141 64 LINE"
);
},
{
closed = 1;
nodes = (
"696 0 LINE",
"796 85 LINE",
"809 153 LINE",
"735 153 LINE",
"728 115 LINE",
"669 66 LINE",
"500 66 LINE",
"459 115 LINE",
"479 227 LINE",
"822 227 LINE",
"853 402 LINE",
"774 498 LINE",
"536 498 LINE",
"437 414 LINE",
"381 93 LINE",
"458 0 LINE"
);
},
{
closed = 1;
nodes = (
"506 383 LINE",
"565 432 LINE",
"735 432 LINE",
"776 383 LINE",
"760 291 LINE",
"490 291 LINE"
);
}
);
width = 886;
},
{
anchors = (
{
name = bottom;
position = "{391, 0}";
},
{
name = top;
position = "{486, 498}";
}
);
background = {
paths = (
{
closed = 1;
nodes = (
"295 0 LINE",
"431 113 LINE",
"484 413 LINE",
"413 498 LINE",
"197 498 LINE",
"105 420 LINE",
"94 353 LINE",
"132 353 LINE",
"140 403 LINE",
"212 463 LINE",
"394 463 LINE",
"444 403 LINE",
"422 275 LINE",
"143 275 LINE",
"63 209 LINE",
"40 74 LINE",
"100 0 LINE"
);
},
{
closed = 1;
nodes = (
"79 83 LINE",
"99 194 LINE",
"155 240 LINE",
"416 240 LINE",
"395 123 LINE",
"289 35 LINE",
"118 35 LINE"
);
},
{
closed = 1;
nodes = (
"674 0 LINE",
"767 80 LINE",
"779 144 LINE",
"741 144 LINE",
"732 95 LINE",
"660 35 LINE",
"479 35 LINE",
"428 96 LINE",
"454 240 LINE",
"797 240 LINE",
"828 412 LINE",
"756 498 LINE",
"543 498 LINE",
"447 416 LINE",
"389 87 LINE",
"461 0 LINE"
);
},
{
closed = 1;
nodes = (
"482 403 LINE",
"553 463 LINE",
"738 463 LINE",
"788 403 LINE",
"765 274 LINE",
"460 274 LINE"
);
}
);
};
layerId = "7E1D32E5-5329-438C-9451-496B813F8F3E";
paths = (
{
closed = 1;
nodes = (
"294 0 LINE",
"430 113 LINE",
"483 413 LINE",
"412 498 LINE",
"197 498 LINE",
"105 420 LINE",
"94 353 LINE",
"132 353 LINE",
"140 403 LINE",
"212 463 LINE",
"393 463 LINE",
"443 403 LINE",
"421 275 LINE",
"143 275 LINE",
"63 209 LINE",
"40 74 LINE",
"100 0 LINE"
);
},
{
closed = 1;
nodes = (
"79 83 LINE",
"99 194 LINE",
"155 240 LINE",
"415 240 LINE",
"394 123 LINE",
"288 35 LINE",
"118 35 LINE"
);
},
{
closed = 1;
nodes = (
"672 0 LINE",
"765 80 LINE",
"777 144 LINE",
"739 144 LINE",
"730 95 LINE",
"658 35 LINE",
"478 35 LINE",
"427 96 LINE",
"453 240 LINE",
"795 240 LINE",
"826 412 LINE",
"754 498 LINE",
"542 498 LINE",
"446 416 LINE",
"388 87 LINE",
"460 0 LINE"
);
},
{
closed = 1;
nodes = (
"481 403 LINE",
"552 463 LINE",
"736 463 LINE",
"786 403 LINE",
"763 274 LINE",
"459 274 LINE"
);
}
);
width = 867;
}
);
leftKerningGroup = a;
leftMetricsKey = a;
note = ae;
rightKerningGroup = e;
rightMetricsKey = e;
unicode = 00E6;
},
{
glyphname = b;
layers = (
{
anchors = (
{
name = bottom;
position = "{281, 0}";
},
{
name = top;
position = "{281, 714}";
}
);
background = {
paths = (
{
closed = 1;
nodes = (
"404 0 LINE",
"486 82 LINE",
"486 416 LINE",
"404 498 LINE",
"242 498 LINE",
"123 377 LINE",
"123 714 LINE",
"85 714 LINE",
"85 82 LINE",
"167 0 LINE"
);
},
{
closed = 1;
nodes = (
"123 95 LINE",
"123 328 LINE",
"257 462 LINE",
"389 462 LINE",
"448 403 LINE",
"448 95 LINE",
"389 36 LINE",
"182 36 LINE"
);
}
);
};
layerId = "39D11A97-A6D9-4B52-A6F5-15D5E4373676";
paths = (
{
closed = 1;
nodes = (
"404 0 LINE",
"486 82 LINE",
"486 416 LINE",
"404 498 LINE",
"242 498 LINE",
"123 377 LINE",
"123 714 LINE",
"85 714 LINE",
"85 82 LINE",
"167 0 LINE"
);
},
{
closed = 1;
nodes = (
"123 94 LINE",
"123 328 LINE",
"257 463 LINE",
"389 463 LINE",
"448 404 LINE",
"448 94 LINE",
"389 35 LINE",
"182 35 LINE"
);
}
);
width = 561;
},
{
anchors = (
{
name = bottom;
position = "{301, 0}";
},
{
name = top;
position = "{301, 714}";
}
);
background = {
paths = (
{
closed = 1;
nodes = (
"460 0 LINE",
"567 108 LINE",
"567 390 LINE",
"460 498 LINE",
"274 498 LINE",
"207 431 LINE",
"207 714 LINE",
"75 714 LINE",
"75 108 LINE",
"182 0 LINE"
);
},
{
closed = 1;
nodes = (
"207 147 LINE",
"207 294 LINE",
"294 386 LINE",
"401 386 LINE",
"435 351 LINE",
"435 147 LINE",
"401 112 LINE",
"241 112 LINE"
);
}
);
};
layerId = "D6105F7E-CAE1-4F7B-A52E-8AA6E6082DF8";
paths = (
{
closed = 1;
nodes = (
"447 0 LINE",
"550 104 LINE",
"550 394 LINE",
"447 498 LINE",
"265 498 LINE",
"192 429 LINE",
"192 714 LINE",
"60 714 LINE",
"60 108 LINE",
"167 0 LINE"
);
},
{
closed = 1;
nodes = (
"192 151 LINE",
"192 296 LINE",
"282 386 LINE",
"380 386 LINE",
"418 347 LINE",
"418 151 LINE",
"380 112 LINE",
"230 112 LINE"
);
}
);
width = 600;
},
{
anchors = (
{
name = bottom;
position = "{289, 0}";
},
{
name = top;
position = "{289, 714}";
}
);
layerId = "3C986DA2-2E28-42A4-B05D-29F449A87569";
paths = (
{
closed = 1;
nodes = (
"421 0 LINE",
"513 92 LINE",
"513 406 LINE",
"421 498 LINE",
"246 498 LINE",
"149 401 LINE",
"149 714 LINE",
"75 714 LINE",
"75 92 LINE",
"167 0 LINE"
);
},
{
closed = 1;
nodes = (
"149 115 LINE",
"149 314 LINE",
"267 432 LINE",
"389 432 LINE",
"439 383 LINE",
"439 115 LINE",
"389 66 LINE",
"199 66 LINE"
);
}
);
width = 578;
},
{
anchors = (
{
name = bottom;
position = "{257, 0}";
},
{
name = top;
position = "{374, 714}";
}
);
background = {
anchors = (
{
name = bottom;
position = "{258, 0}";
},
{
name = top;
position = "{346, 498}";
}
);
paths = (
{
closed = 1;
nodes = (
"404 0 LINE",
"525 104 LINE",
"576 394 LINE",
"492 498 LINE",
"310 498 LINE",
"225 429 LINE",
"275 714 LINE",
"143 714 LINE",
"36 108 LINE",
"124 0 LINE"
);
},
{
closed = 1;
nodes = (
"176 151 LINE",
"201 296 LINE",
"307 386 LINE",
"405 386 LINE",
"436 347 LINE",
"402 151 LINE",
"357 112 LINE",
"207 112 LINE"
);
}
);
};
layerId = "1C004500-E2C5-4CA7-8B0E-089ECD41D52B";
paths = (
{
closed = 1;
nodes = (
"413 0 LINE",
"522 94 LINE",
"574 386 LINE",
"483 498 LINE",
"309 498 LINE",
"224 429 LINE",
"274 714 LINE",
"142 714 LINE",
"37 116 LINE",
"131 0 LINE"
);
},
{
closed = 1;
nodes = (
"175 151 LINE",
"200 296 LINE",
"306 386 LINE",
"404 386 LINE",
"435 347 LINE",
"401 151 LINE",
"356 112 LINE",
"206 112 LINE"
);
}
);
width = 600;
},
{
anchors = (
{
name = bottom;
position = "{245, 0}";
},
{
name = top;
position = "{364, 714}";
}
);
background = {
anchors = (
{
name = bottom;
position = "{245, 0}";
},
{
name = top;
position = "{333, 498}";
}
);
paths = (
{
closed = 1;
nodes = (
"385 0 LINE",
"484 84 LINE",
"540 402 LINE",
"461 498 LINE",
"291 498 LINE",
"176 401 LINE",
"232 714 LINE",
"158 714 LINE",
"48 94 LINE",
"126 0 LINE"
);
},
{
closed = 1;
nodes = (
"126 115 LINE",
"161 314 LINE",
"300 432 LINE",
"422 432 LINE",
"463 383 LINE",
"416 115 LINE",
"357 66 LINE",
"167 66 LINE"
);
}
);
};
layerId = "76B50E0D-F613-4BB6-AC9C-0F65D3239222";
paths = (
{
closed = 1;
nodes = (
"387 0 LINE",
"484 82 LINE",
"540 402 LINE",
"461 498 LINE",
"291 498 LINE",
"176 401 LINE",
"231 714 LINE",
"157 714 LINE",
"48 93 LINE",
"125 0 LINE"
);
},
{
closed = 1;
nodes = (
"126 115 LINE",
"161 314 LINE",
"300 432 LINE",
"422 432 LINE",
"463 383 LINE",
"416 115 LINE",
"357 66 LINE",
"167 66 LINE"
);
}
);
width = 578;
},
{
anchors = (
{
name = bottom;
position = "{280, 0}";
},
{
name = top;
position = "{364, 714}";
}
);
background = {
paths = (
{
closed = 1;
nodes = (
"365 0 LINE",
"456 77 LINE",
"515 412 LINE",
"445 498 LINE",
"287 498 LINE",
"146 377 LINE",
"206 714 LINE",
"168 714 LINE",
"57 86 LINE",
"128 0 LINE"
);
},
{
closed = 1;
nodes = (
"97 94 LINE",
"138 328 LINE",
"296 463 LINE",
"428 463 LINE",
"476 404 LINE",
"422 94 LINE",
"352 35 LINE",
"145 35 LINE"
);
}
);
};
layerId = "7E1D32E5-5329-438C-9451-496B813F8F3E";
paths = (
{
closed = 1;
nodes = (
"366 0 LINE",
"456 77 LINE",
"514 412 LINE",
"444 498 LINE",
"286 498 LINE",
"145 377 LINE",
"205 714 LINE",
"167 714 LINE",
"56 85 LINE",
"126 0 LINE"
);
},
{
closed = 1;
nodes = (
"96 94 LINE",
"137 328 LINE",
"295 463 LINE",
"427 463 LINE",
"475 404 LINE",
"421 94 LINE",
"352 35 LINE",
"144 35 LINE"
);
}
);
width = 561;
}
);
leftMetricsKey = n;
note = b;
rightKerningGroup = o;
rightMetricsKey = o;
unicode = 0062;
},
{
glyphname = c;
layers = (
{
anchors = (
{
name = bottom;
position = "{271, 0}";
},
{
name = top;
position = "{268, 498}";
}
);
background = {
paths = (
{
closed = 1;
nodes = (
"380 0 LINE",
"462 82 LINE",
"462 123 LINE",
"424 123 LINE",
"424 95 LINE",
"365 36 LINE",
"172 36 LINE",
"113 95 LINE",
"113 403 LINE",
"172 462 LINE",
"365 462 LINE",
"424 403 LINE",
"424 375 LINE",
"462 375 LINE",
"462 416 LINE",
"380 498 LINE",
"157 498 LINE",
"75 416 LINE",
"75 82 LINE",
"157 0 LINE"
);
}
);
};
layerId = "39D11A97-A6D9-4B52-A6F5-15D5E4373676";
paths = (
{
closed = 1;
nodes = (
"380 0 LINE",
"462 82 LINE",
"462 123 LINE",
"424 123 LINE",
"424 94 LINE",
"365 35 LINE",
"173 35 LINE",
"113 95 LINE",
"113 403 LINE",
"173 463 LINE",
"365 463 LINE",
"424 404 LINE",
"424 375 LINE",
"462 375 LINE",
"462 416 LINE",
"380 498 LINE",
"157 498 LINE",
"75 416 LINE",
"75 82 LINE",
"157 0 LINE"
);
}
);
width = 517;
},
{
anchors = (
{
name = bottom;
position = "{293, 0}";
},
{
name = top;
position = "{288, 498}";
}
);
background = {
paths = (
{
closed = 1;
nodes = (
"425 0 LINE",
"528 104 LINE",
"528 196 LINE",
"396 196 LINE",
"396 147 LINE",
"361 112 LINE",
"217 112 LINE",
"182 147 LINE",
"182 351 LINE",
"217 386 LINE",
"361 386 LINE",
"396 351 LINE",
"396 302 LINE",
"528 302 LINE",
"528 394 LINE",
"425 498 LINE",
"151 498 LINE",
"50 396 LINE",
"50 102 LINE",
"151 0 LINE"
);
}
);
};
layerId = "D6105F7E-CAE1-4F7B-A52E-8AA6E6082DF8";
paths = (
{
closed = 1;
nodes = (
"425 0 LINE",
"528 104 LINE",
"528 196 LINE",
"396 196 LINE",
"396 147 LINE",
"361 112 LINE",
"217 112 LINE",
"182 147 LINE",
"182 351 LINE",
"217 386 LINE",
"361 386 LINE",
"396 351 LINE",
"396 302 LINE",
"528 302 LINE",
"528 394 LINE",
"425 498 LINE",
"151 498 LINE",
"50 396 LINE",
"50 102 LINE",
"151 0 LINE"
);
}
);
width = 558;
},
{
anchors = (
{
name = bottom;
position = "{282, 0}";
},
{
name = top;
position = "{277, 498}";
}
);
layerId = "3C986DA2-2E28-42A4-B05D-29F449A87569";
paths = (
{
closed = 1;
nodes = (
"397 0 LINE",
"489 92 LINE",
"489 153 LINE",
"415 153 LINE",
"415 115 LINE",
"365 66 LINE",
"189 66 LINE",
"139 115 LINE",
"139 383 LINE",
"189 432 LINE",
"365 432 LINE",
"415 383 LINE",
"415 345 LINE",
"489 345 LINE",
"489 406 LINE",
"397 498 LINE",
"157 498 LINE",
"65 406 LINE",
"65 92 LINE",
"157 0 LINE"
);
}
);
width = 534;
},
{
anchors = (
{
name = bottom;
position = "{249, 0}";
},
{
name = top;
position = "{324, 498}";
}
);
background = {
paths = (
{
closed = 1;
nodes = (
"391 0 LINE",
"500 94 LINE",
"519 196 LINE",
"387 196 LINE",
"378 147 LINE",
"337 112 LINE",
"193 112 LINE",
"164 147 LINE",
"200 351 LINE",
"241 386 LINE",
"385 386 LINE",
"414 351 LINE",
"405 302 LINE",
"537 302 LINE",
"552 386 LINE",
"461 498 LINE",
"187 498 LINE",
"77 404 LINE",
"26 110 LINE",
"115 0 LINE"
);
}
);
};
layerId = "1C004500-E2C5-4CA7-8B0E-089ECD41D52B";
paths = (
{
closed = 1;
nodes = (
"391 0 LINE",
"500 94 LINE",
"519 196 LINE",
"387 196 LINE",
"378 147 LINE",
"337 112 LINE",
"193 112 LINE",
"164 147 LINE",
"200 351 LINE",
"241 386 LINE",
"385 386 LINE",
"414 351 LINE",
"405 302 LINE",
"537 302 LINE",
"552 386 LINE",
"461 498 LINE",
"187 498 LINE",
"77 404 LINE",
"26 110 LINE",
"115 0 LINE"
);
}
);
width = 558;
},
{
anchors = (
{
name = bottom;
position = "{242, 0}";
},
{
name = top;
position = "{317, 498}";
}
);
background = {
paths = (
{
closed = 1;
nodes = (
"359 0 LINE",
"459 85 LINE",
"472 153 LINE",
"398 153 LINE",
"391 115 LINE",
"332 66 LINE",
"156 66 LINE",
"115 115 LINE",
"162 383 LINE",
"221 432 LINE",
"397 432 LINE",
"438 383 LINE",
"432 345 LINE",
"506 345 LINE",
"515 401 LINE",
"435 498 LINE",
"193 498 LINE",
"94 414 LINE",
"37 93 LINE",
"114 0 LINE"
);
}
);
};
layerId = "76B50E0D-F613-4BB6-AC9C-0F65D3239222";
paths = (
{
closed = 1;
nodes = (
"359 0 LINE",
"459 85 LINE",
"472 153 LINE",
"398 153 LINE",
"391 115 LINE",
"332 66 LINE",
"156 66 LINE",
"115 115 LINE",
"162 383 LINE",
"221 432 LINE",
"397 432 LINE",
"438 383 LINE",
"432 345 LINE",
"506 345 LINE",
"515 401 LINE",
"435 498 LINE",
"193 498 LINE",
"94 414 LINE",
"37 93 LINE",
"114 0 LINE"
);
}
);
width = 534;
},
{
anchors = (
{
name = bottom;
position = "{228, 0}";
},
{
name = top;
position = "{309, 498}";
}
);
background = {
paths = (
{
closed = 1;
nodes = (
"342 0 LINE",
"432 77 LINE",
"441 123 LINE",
"403 123 LINE",
"398 94 LINE",
"328 35 LINE",
"135 35 LINE",
"86 95 LINE",
"141 403 LINE",
"212 463 LINE",
"404 463 LINE",
"452 404 LINE",
"447 375 LINE",
"485 375 LINE",
"491 412 LINE",
"421 498 LINE",
"198 498 LINE",
"106 420 LINE",
"46 86 LINE",
"117 0 LINE"
);
}
);
};
layerId = "7E1D32E5-5329-438C-9451-496B813F8F3E";
paths = (
{
closed = 1;
nodes = (
"341 0 LINE",
"431 77 LINE",
"440 123 LINE",
"402 123 LINE",
"396 94 LINE",
"327 35 LINE",
"134 35 LINE",
"85 94 LINE",
"140 404 LINE",
"209 463 LINE",
"402 463 LINE",
"451 404 LINE",
"446 375 LINE",
"484 375 LINE",
"490 412 LINE",
"419 498 LINE",
"196 498 LINE",
"105 420 LINE",
"46 85 LINE",
"116 0 LINE"
);
}
);
width = 517;
}
);
leftKerningGroup = o;
leftMetricsKey = o;
note = c;
rightKerningGroup = c;
unicode = 0063;
},
{
glyphname = d;
layers = (
{
anchors = (
{
name = bottom;
position = "{282, 0}";
},
{
name = center;
position = "{282, 249}";
},
{
name = top;
position = "{282, 714}";
},
{
name = topright;
position = "{552, 498}";
}
);
background = {
paths = (
{
closed = 1;
nodes = (
"334 0 LINE",
"440 107 LINE",
"440 0 LINE",
"478 0 LINE",
"478 714 LINE",
"440 714 LINE",
"440 412 LINE",
"339 498 LINE",
"157 498 LINE",
"75 416 LINE",
"75 82 LINE",
"157 0 LINE"
);
},
{
closed = 1;
nodes = (
"113 95 LINE",
"113 403 LINE",
"172 462 LINE",
"326 462 LINE",
"440 365 LINE",
"440 155 LINE",
"321 36 LINE",
"172 36 LINE"
);
}
);
};
layerId = "39D11A97-A6D9-4B52-A6F5-15D5E4373676";
paths = (
{
closed = 1;
nodes = (
"334 0 LINE",
"440 107 LINE",
"440 0 LINE",
"478 0 LINE",
"478 714 LINE",
"440 714 LINE",
"440 412 LINE",
"340 498 LINE",
"157 498 LINE",
"75 416 LINE",
"75 82 LINE",
"157 0 LINE"
);
},
{
closed = 1;
nodes = (
"113 94 LINE",
"113 404 LINE",
"172 463 LINE",
"327 463 LINE",
"440 365 LINE",
"440 155 LINE",
"321 35 LINE",
"172 35 LINE"
);
}
);
width = 563;
},
{
anchors = (
{
name = bottom;
position = "{300, 0}";
},
{
name = center;
position = "{300, 249}";
},
{
name = top;
position = "{290, 714}";
},
{
name = topright;
position = "{575, 498}";
}
);
background = {
paths = (
{
closed = 1;
nodes = (
"341 0 LINE",
"418 77 LINE",
"418 0 LINE",
"542 0 LINE",
"542 714 LINE",
"410 714 LINE",
"410 447 LINE",
"351 498 LINE",
"153 498 LINE",
"50 394 LINE",
"50 104 LINE",
"153 0 LINE"
);
},
{
closed = 1;
nodes = (
"182 151 LINE",
"182 347 LINE",
"220 386 LINE",
"342 386 LINE",
"410 325 LINE",
"410 195 LINE",
"329 112 LINE",
"220 112 LINE"
);
}
);
};
layerId = "D6105F7E-CAE1-4F7B-A52E-8AA6E6082DF8";
paths = (
{
closed = 1;
nodes = (
"341 0 LINE",
"418 77 LINE",
"418 0 LINE",
"542 0 LINE",
"542 714 LINE",
"410 714 LINE",
"410 447 LINE",
"351 498 LINE",
"153 498 LINE",
"50 394 LINE",
"50 104 LINE",
"153 0 LINE"
);
},
{
closed = 1;
nodes = (
"182 151 LINE",
"182 347 LINE",
"220 386 LINE",
"342 386 LINE",
"410 325 LINE",
"410 195 LINE",
"329 112 LINE",
"220 112 LINE"
);
}
);
width = 602;
},
{
anchors = (
{
name = bottom;
position = "{290, 0}";
},
{
name = center;
position = "{290, 249}";
},
{
name = top;
position = "{290, 714}";
},
{
name = topright;
position = "{560, 498}";
}
);
layerId = "3C986DA2-2E28-42A4-B05D-29F449A87569";
paths = (
{
closed = 1;
nodes = (
"342 0 LINE",
"433 91 LINE",
"433 0 LINE",
"505 0 LINE",
"505 714 LINE",
"431 714 LINE",
"431 426 LINE",
"349 498 LINE",
"157 498 LINE",
"65 406 LINE",
"65 92 LINE",
"157 0 LINE"
);
},
{
closed = 1;
nodes = (
"139 115 LINE",
"139 383 LINE",
"189 432 LINE",
"335 432 LINE",
"431 348 LINE",
"431 171 LINE",
"326 66 LINE",
"189 66 LINE"
);
}
);
width = 580;
},
{
anchors = (
{
name = bottom;
position = "{257, 0}";
},
{
name = center;
position = "{301, 249}";
},
{
name = top;
position = "{354, 714}";
},
{
name = topright;
position = "{629, 498}";
}
);
background = {
paths = (
{
closed = 1;
nodes = (
"298 0 LINE",
"388 77 LINE",
"375 0 LINE",
"499 0 LINE",
"625 714 LINE",
"493 714 LINE",
"444 440 LINE",
"387 498 LINE",
"189 498 LINE",
"77 402 LINE",
"26 112 LINE",
"118 0 LINE"
);
},
{
closed = 1;
nodes = (
"165 151 LINE",
"200 347 LINE",
"245 386 LINE",
"367 386 LINE",
"424 325 LINE",
"401 195 LINE",
"305 112 LINE",
"196 112 LINE"
);
}
);
};
layerId = "1C004500-E2C5-4CA7-8B0E-089ECD41D52B";
paths = (
{
closed = 1;
nodes = (
"298 0 LINE",
"387 77 LINE",
"374 0 LINE",
"498 0 LINE",
"624 714 LINE",
"492 714 LINE",
"443 440 LINE",
"387 498 LINE",
"189 498 LINE",
"77 402 LINE",
"26 112 LINE",
"118 0 LINE"
);
},
{
closed = 1;
nodes = (
"165 151 LINE",
"200 347 LINE",
"245 386 LINE",
"367 386 LINE",
"424 325 LINE",
"401 195 LINE",
"305 112 LINE",
"196 112 LINE"
);
}
);
width = 602;
},
{
anchors = (
{
name = bottom;
position = "{247, 0}";
},
{
name = center;
position = "{291, 249}";
},
{
name = top;
position = "{353, 714}";
},
{
name = topright;
position = "{605, 498}";
}
);
background = {
paths = (
{
closed = 1;
nodes = (
"299 0 LINE",
"406 91 LINE",
"390 0 LINE",
"462 0 LINE",
"588 714 LINE",
"514 714 LINE",
"463 426 LINE",
"394 498 LINE",
"194 498 LINE",
"94 413 LINE",
"38 93 LINE",
"115 0 LINE"
);
},
{
closed = 1;
nodes = (
"116 115 LINE",
"163 383 LINE",
"222 432 LINE",
"368 432 LINE",
"449 348 LINE",
"418 171 LINE",
"294 66 LINE",
"157 66 LINE"
);
}
);
};
layerId = "76B50E0D-F613-4BB6-AC9C-0F65D3239222";
paths = (
{
closed = 1;
nodes = (
"298 0 LINE",
"405 91 LINE",
"389 0 LINE",
"461 0 LINE",
"587 714 LINE",
"513 714 LINE",
"462 426 LINE",
"393 498 LINE",
"194 498 LINE",
"94 413 LINE",
"37 93 LINE",
"114 0 LINE"
);
},
{
closed = 1;
nodes = (
"115 115 LINE",
"163 383 LINE",
"222 432 LINE",
"367 432 LINE",
"448 348 LINE",
"417 171 LINE",
"293 66 LINE",
"156 66 LINE"
);
}
);
width = 580;
},
{
anchors = (
{
name = bottom;
position = "{238, 0}";
},
{
name = center;
position = "{281, 249}";
},
{
name = top;
position = "{363, 714}";
},
{
name = topright;
position = "{595, 498}";
}
);
background = {
paths = (
{
closed = 1;
nodes = (
"294 0 LINE",
"413 103 LINE",
"396 0 LINE",
"434 0 LINE",
"559 714 LINE",
"521 714 LINE",
"467 407 LINE",
"379 498 LINE",
"196 498 LINE",
"105 420 LINE",
"46 86 LINE",
"117 0 LINE"
);
},
{
closed = 1;
nodes = (
"85 94 LINE",
"140 404 LINE",
"209 463 LINE",
"364 463 LINE",
"460 365 LINE",
"423 155 LINE",
"283 35 LINE",
"134 35 LINE"
);
}
);
};
layerId = "7E1D32E5-5329-438C-9451-496B813F8F3E";
paths = (
{
closed = 1;
nodes = (
"294 0 LINE",
"413 103 LINE",
"396 0 LINE",
"434 0 LINE",
"559 714 LINE",
"521 714 LINE",
"467 407 LINE",
"379 498 LINE",
"196 498 LINE",
"105 420 LINE",
"46 85 LINE",
"116 0 LINE"
);
},
{
closed = 1;
nodes = (
"85 94 LINE",
"140 404 LINE",
"209 463 LINE",
"364 463 LINE",
"460 365 LINE",
"423 155 LINE",
"283 35 LINE",
"134 35 LINE"
);
}
);
width = 563;
}
);
leftKerningGroup = o;
leftMetricsKey = o;
note = d;
rightMetricsKey = u;
unicode = 0064;
},
